<?xml version="1.0" encoding="UTF-8" standalone="no"?>
<!-- Created with Inkscape (http://www.inkscape.org/) -->

<svg
   xmlns:svg="http://www.w3.org/2000/svg"
   xmlns="http://www.w3.org/2000/svg"
   xmlns:sodipodi="http://sodipodi.sourceforge.net/DTD/sodipodi-0.dtd"
   xmlns:inkscape="http://www.inkscape.org/namespaces/inkscape"
   width="147.77345mm"
   height="59.343742mm"
   viewBox="0 0 147.77345 59.343743"
   version="1.1"
   id="svg9108"
   sodipodi:docname="02.svg"
   inkscape:version="0.92.1 r15371">
  <metadata
     id="metadata107" />
  <div id="barco2"><a href="../contenido/pag12.html" target="iframe"><defs
     id="defs105">
    <clipPath
       id="clipPath5254"
       clipPathUnits="userSpaceOnUse">
      <path
         inkscape:connector-curvature="0"
         id="path5252"
         d="m 84.767,104.272 h 137.666 v -3.013 H 84.767 Z" />
    </clipPath>
    <clipPath
       id="clipPath5268"
       clipPathUnits="userSpaceOnUse">
      <path
         inkscape:connector-curvature="0"
         id="path5266"
         d="m 122.833,125.745 h 87.269 v -3.014 h -87.269 z" />
    </clipPath>
    <clipPath
       id="clipPath5282"
       clipPathUnits="userSpaceOnUse">
      <path
         inkscape:connector-curvature="0"
         id="path5280"
         d="m 189.943,147.292 h 8.506 v -3.013 h -8.506 z" />
    </clipPath>
    <defs
       id="defs9102">
      <clipPath
         clipPathUnits="userSpaceOnUse"
         id="clipPath4796">
        <path
           d="m 175.845,416.536 h 24.601 v -9.561 h -24.601 z"
           id="path4794"
           inkscape:connector-curvature="0" />
      </clipPath>
      <clipPath
         clipPathUnits="userSpaceOnUse"
         id="clipPath4842">
        <path
           d="m 71.864,377.941 h 142.02 v -3.013 H 71.864 Z"
           id="path4840"
           inkscape:connector-curvature="0" />
      </clipPath>
      <clipPath
         clipPathUnits="userSpaceOnUse"
         id="clipPath4862">
        <path
           d="M 90.5581,390.806 H 207.054 v -3.013 H 90.5581 Z"
           id="path4860"
           inkscape:connector-curvature="0" />
      </clipPath>
      <clipPath
         clipPathUnits="userSpaceOnUse"
         id="clipPath4882">
        <path
           d="m 109.707,403.671 h 90.207 v -3.013 h -90.207 z"
           id="path4880"
           inkscape:connector-curvature="0" />
      </clipPath>
      <clipPath
         clipPathUnits="userSpaceOnUse"
         id="clipPath4994">
        <path
           d="m 167.309,416.536 h 8.506 v -3.013 h -8.506 z"
           id="path4992"
           inkscape:connector-curvature="0" />
      </clipPath>
      <clipPath
         clipPathUnits="userSpaceOnUse"
         id="clipPath5008">
        <path
           d="m 151.396,416.536 h 8.505 v -3.013 h -8.505 z"
           id="path5006"
           inkscape:connector-curvature="0" />
      </clipPath>
      <clipPath
         clipPathUnits="userSpaceOnUse"
         id="clipPath5022">
        <path
           d="m 135.482,416.536 h 8.505 v -3.013 h -8.505 z"
           id="path5020"
           inkscape:connector-curvature="0" />
      </clipPath>
      <clipPath
         clipPathUnits="userSpaceOnUse"
         id="clipPath5036">
        <path
           d="m 36.208,374.928 h 89.681 V 349.194 H 36.208 Z"
           id="path5034"
           inkscape:connector-curvature="0" />
      </clipPath>
      <filter
         height="1.0383099"
         y="-0.019154953"
         width="1.0150399"
         x="-0.0075199637"
         id="filter10233"
         style="color-interpolation-filters:sRGB"
         inkscape:collect="always">
        <feGaussianBlur
           id="feGaussianBlur10235"
           stdDeviation="1.7240716"
           inkscape:collect="always" />
      </filter>
    </defs>
    <sodipodi:namedview
       inkscape:window-maximized="1"
       inkscape:window-y="-8"
       inkscape:window-x="-8"
       inkscape:window-height="1057"
       inkscape:window-width="1920"
       fit-margin-bottom="0"
       fit-margin-right="0"
       fit-margin-left="0"
       fit-margin-top="0"
       showgrid="false"
       inkscape:current-layer="layer1"
       inkscape:document-units="mm"
       inkscape:cy="146.98327"
       inkscape:cx="221.44688"
       inkscape:zoom="0.98994949"
       inkscape:pageshadow="2"
       inkscape:pageopacity="0.0"
       borderopacity="1.0"
       bordercolor="#666666"
       pagecolor="#ffffff"
       id="base" />
  </defs>
  <sodipodi:namedview
     pagecolor="#ffffff"
     bordercolor="#666666"
     borderopacity="1"
     objecttolerance="10"
     gridtolerance="10"
     guidetolerance="10"
     inkscape:pageopacity="0"
     inkscape:pageshadow="2"
     inkscape:window-width="1920"
     inkscape:window-height="1057"
     id="namedview103"
     showgrid="false"
     inkscape:zoom="1.3571732"
     inkscape:cx="390.01218"
     inkscape:cy="193.31749"
     inkscape:window-x="-8"
     inkscape:window-y="-8"
     inkscape:window-maximized="1"
     inkscape:current-layer="svg9108" />
  <g
     transform="translate(-7.7562559,-104.79834)"
     id="layer1"
     inkscape:groupmode="layer"
     inkscape:label="Capa 1" />
  <g
     id="g5066"
     transform="translate(42.889392,147.24428)">
    <path
       id="path4867"
       transform="scale(0.26458333)"
       d="m 240.89062,-552.23047 v 6.58985 h 2.39454 v 7.51757 6.44727 4.41016 7.51757 H 92.587891 c -0.01779,0 -0.03496,0.002 -0.05273,0.002 -0.55232,0.002 -1.09836,0.03 -1.636718,0.084 -0.175911,0.0176 -0.345265,0.0551 -0.519532,0.0781 -0.375867,0.0497 -0.753581,0.0957 -1.121094,0.16992 -0.249761,0.0503 -0.490717,0.12229 -0.736328,0.18359 -0.274362,0.0686 -0.551528,0.129 -0.820312,0.21094 -0.294636,0.0897 -0.579669,0.20145 -0.867188,0.30664 -0.216124,0.0792 -0.436608,0.14853 -0.648437,0.23633 -0.287957,0.11905 -0.564128,0.25821 -0.84375,0.39258 -0.199591,0.0961 -0.402569,0.18531 -0.597656,0.28906 -0.310426,0.16464 -0.607781,0.34807 -0.90625,0.53125 -0.141593,0.0871 -0.287023,0.16857 -0.425782,0.25976 -0.339803,0.2227 -0.666226,0.46288 -0.988281,0.70899 -0.08644,0.0663 -0.176615,0.12742 -0.261719,0.19531 -0.349645,0.27808 -0.683636,0.5743 -1.009765,0.87891 -0.04883,0.0458 -0.100158,0.0884 -0.148438,0.13476 -0.331762,0.31733 -0.646293,0.65073 -0.951172,0.99414 -0.04095,0.0463 -0.08455,0.09 -0.125,0.13672 -0.303725,0.34978 -0.588944,0.71361 -0.863281,1.08789 -0.033,0.0452 -0.06705,0.0893 -0.09961,0.13477 -1.974752,2.7513 -3.150391,6.11422 -3.150391,9.75976 v 19.23243 H 8.6933594 c -4.3271196,0 -7.8496094,3.52192 -7.8496094,7.85156 v 9.81836 h -3.2480469 c -0.017134,0 -0.033659,0.002 -0.050781,0.002 -0.5529891,0.002 -1.0996765,0.028 -1.6386719,0.082 -0.2450494,0.0245 -0.4827842,0.0725 -0.7246094,0.10742 -0.2980237,0.0432 -0.5998906,0.0781 -0.8925781,0.13672 -0.2801311,0.056 -0.5512695,0.13529 -0.8261719,0.20508 -0.2564295,0.0652 -0.5160527,0.12035 -0.7675781,0.19727 -0.2789551,0.0851 -0.5477395,0.19197 -0.8203125,0.29101 -0.2274822,0.0829 -0.4589014,0.15768 -0.6816406,0.25 -0.3081326,0.12741 -0.6037814,0.27501 -0.9023438,0.41992 -0.1742606,0.0848 -0.3526298,0.16136 -0.5234378,0.25196 -0.30756,0.16272 -0.602589,0.34446 -0.898437,0.52539 -0.154766,0.0949 -0.313456,0.18347 -0.464844,0.2832 -0.310529,0.20401 -0.60859,0.42482 -0.904297,0.64844 -0.114913,0.0872 -0.233136,0.16974 -0.345703,0.25976 -0.32802,0.26155 -0.639968,0.53925 -0.947266,0.82422 -0.06892,0.0641 -0.141158,0.12421 -0.208984,0.18946 -0.33357,0.31988 -0.650743,0.65566 -0.957031,1.00195 -0.0314,0.0356 -0.0646,0.0696 -0.0957,0.10547 -0.315754,0.36312 -0.612465,0.7413 -0.896484,1.13086 -0.02216,0.0305 -0.0464,0.0592 -0.06836,0.0898 -0.284396,0.39563 -0.549074,0.80424 -0.798828,1.22461 -0.0167,0.0282 -0.03424,0.0557 -0.05078,0.084 -0.256833,0.43812 -0.491942,0.88922 -0.708984,1.35157 -0.0025,0.005 -0.0053,0.0103 -0.0078,0.0156 -0.221129,0.47234 -0.418546,0.95607 -0.595703,1.45117 -0.0017,0.005 -0.0042,0.009 -0.0059,0.0137 -0.530884,1.48786 -0.854418,3.07053 -0.943359,4.71875 -4.98e-4,0.009 -0.0015,0.0181 -0.002,0.0273 h 0.002 c -0.01546,0.29526 -0.04492,0.58761 -0.04492,0.88672 v 29.38281 h -0.002 v 7.51953 H -142.8418 c 0,0 1.31855,0.27635 3.15625,0.70703 0.36902,0.0871 0.81601,0.1998 1.2461,0.30469 0.65593,0.15992 1.40065,0.34824 2.1914,0.55078 0.62118,0.15936 1.29501,0.33699 1.99414,0.52344 0.9259,0.24687 1.96325,0.53603 3.01758,0.83203 0.93866,0.26377 1.84951,0.51621 2.88281,0.82031 0.20898,0.0615 0.42012,0.12435 0.63282,0.1875 1.7522,0.52061 3.61045,1.09023 5.59765,1.72852 0.0102,0.003 0.0211,0.006 0.0312,0.01 2.88919,0.92838 6.02246,1.99238 9.33008,3.18555 0.33955,0.12243 0.6722,0.2399 1.01563,0.36524 0.8531,0.31148 1.72756,0.63913 2.60351,0.96875 0.476,0.17903 0.9512,0.3585 1.4336,0.54296 0.84302,0.3225 1.69704,0.65486 2.55859,0.99414 0.53604,0.21103 1.07633,0.42888 1.61914,0.64649 0.87379,0.35043 1.75233,0.70455 2.64258,1.07227 0.46613,0.19246 0.939785,0.39453 1.410154,0.59179 1.014598,0.42565 2.02956,0.85057 3.0625,1.29883 0.140097,0.0608 0.283414,0.12631 0.423828,0.1875 2.284041,0.99576 4.613339,2.05298 6.970704,3.16211 0.359954,0.16931 0.71478,0.32994 1.076172,0.50195 0.906161,0.43142 1.821923,0.88348 2.736328,1.33203 0.63148,0.3097 1.26153,0.61563 1.896484,0.9336 0.92341,0.46253 1.851467,0.94164 2.78125,1.42187 0.63031,0.32549 1.261735,0.65262 1.894531,0.98633 0.939955,0.49581 1.881719,1.00146 2.826172,1.51563 0.621384,0.33821 1.244278,0.68304 1.867188,1.02929 0.966644,0.53743 1.933054,1.07778 2.902343,1.63477 0.561211,0.32244 1.123781,0.65726 1.685547,0.98633 1.040696,0.60971 2.081634,1.21689 3.123047,1.84961 0.03974,0.0241 0.0794,0.05 0.119141,0.0742 2.347871,1.42846 4.694755,2.93044 7.033203,4.47852 0.632652,0.41878 1.265345,0.8301 1.896484,1.25781 0.894217,0.60605 1.783498,1.23328 2.673828,1.85742 0.706469,0.49522 1.41373,0.98936 2.117188,1.4961 4.135509,2.97924 8.217134,6.14946 12.189453,9.53906 3.902206,3.32838 7.7038,6.86248 11.351563,10.60742 0.0064,0.007 0.01312,0.0129 0.01953,0.0195 0.03779,0.038 0.07482,0.081 0.113281,0.11914 0.864671,0.88963 1.719511,1.79183 2.566406,2.70704 0.0091,0.01 0.01827,0.0195 0.02734,0.0293 0.837655,0.9057 1.666691,1.82442 2.486328,2.75391 0.127257,0.14502 0.253604,0.2854 0.38086,0.42969 0.01247,0.0142 0.02465,0.0287 0.03711,0.043 0.83201,0.95186 1.656447,1.91543 2.46875,2.89063 0.01274,0.0153 0.02437,0.0315 0.03711,0.0469 0.811377,0.97488 1.611712,1.96167 2.400391,2.9629 H 335.37891 l 25.56445,-72.1836 h -36.58008 v -36.90234 c 0,-3.10316 -0.8575,-6.00117 -2.32617,-8.49414 -0.002,-0.004 -0.005,-0.008 -0.008,-0.0117 -0.26319,-0.44589 -0.54368,-0.87871 -0.84571,-1.29688 -0.008,-0.0113 -0.0172,-0.0219 -0.0254,-0.0332 -0.29134,-0.40126 -0.5989,-0.78878 -0.92382,-1.16211 -0.0263,-0.0303 -0.0535,-0.0597 -0.0801,-0.0898 -0.3089,-0.34984 -0.62814,-0.68878 -0.96485,-1.01172 -0.0721,-0.0694 -0.14932,-0.13308 -0.22265,-0.20117 -0.30476,-0.28207 -0.61437,-0.55735 -0.93946,-0.81641 -0.10797,-0.0863 -0.22189,-0.16437 -0.33203,-0.24805 -0.29942,-0.22679 -0.59942,-0.45152 -0.91406,-0.6582 -0.15142,-0.0998 -0.31005,-0.18829 -0.46484,-0.2832 -0.29534,-0.18059 -0.58948,-0.36294 -0.89649,-0.52539 -0.17421,-0.0924 -0.35735,-0.16948 -0.53515,-0.25586 -0.2958,-0.14335 -0.58936,-0.28985 -0.89454,-0.41602 -0.22271,-0.0923 -0.45418,-0.16716 -0.68164,-0.25 -0.2726,-0.099 -0.54133,-0.20591 -0.82031,-0.29101 -0.25152,-0.0769 -0.51115,-0.13204 -0.76758,-0.19727 -0.27492,-0.0698 -0.54602,-0.14906 -0.82617,-0.20508 -0.30771,-0.0616 -0.6239,-0.0981 -0.9375,-0.14258 -0.22643,-0.0321 -0.44848,-0.0786 -0.67773,-0.10156 -0.55634,-0.0558 -1.12021,-0.084 -1.69141,-0.084 H 293.5918 v -36.90235 c 0,-3.64456 -1.17466,-7.00692 -3.14844,-9.75781 -0.0331,-0.0462 -0.068,-0.0908 -0.10156,-0.13672 -0.27344,-0.37305 -0.55869,-0.73526 -0.86133,-1.08398 -0.0477,-0.0552 -0.0981,-0.10756 -0.14649,-0.16211 -0.29121,-0.32691 -0.59059,-0.64602 -0.90625,-0.94922 -0.0767,-0.0739 -0.15822,-0.14239 -0.23632,-0.21484 -0.30722,-0.28411 -0.61942,-0.56152 -0.94727,-0.82227 -0.0877,-0.07 -0.18041,-0.13295 -0.26953,-0.20117 -0.31617,-0.24132 -0.63549,-0.47849 -0.96875,-0.69727 -0.16011,-0.10538 -0.32831,-0.19885 -0.49219,-0.29883 -0.27728,-0.16872 -0.55231,-0.3394 -0.83984,-0.49218 -0.20892,-0.1113 -0.42654,-0.20797 -0.64063,-0.31055 -0.26942,-0.12877 -0.53536,-0.26237 -0.8125,-0.37695 -0.21901,-0.0908 -0.44632,-0.16251 -0.66992,-0.24414 -0.27805,-0.10129 -0.55319,-0.2101 -0.83789,-0.29688 -0.28181,-0.086 -0.57339,-0.14936 -0.86133,-0.2207 -0.23475,-0.0581 -0.46459,-0.12771 -0.70312,-0.17578 -0.38074,-0.0769 -0.77048,-0.1272 -1.16016,-0.17774 -0.16054,-0.0208 -0.31659,-0.0541 -0.47851,-0.0703 -0.55622,-0.0558 -1.12036,-0.0859 -1.69141,-0.0859 h -12.30859 v -7.51757 -4.41016 -6.44727 -7.51757 h 2.39257 v -6.58985 z M 8.6933594,-480.73242 h 5.1953126 v 14.66211 H 3.8535156 v -9.81836 c 0,-2.67012 2.1697024,-4.84375 4.8398438,-4.84375 z m 8.2031246,0 h 10.5 v 14.66211 h -10.5 z m 13.509766,0 h 10.498047 v 14.66211 H 30.40625 Z m 13.507812,0 h 10.498047 v 14.66211 H 43.914062 Z m 13.507813,0 h 10.498047 v 14.66211 H 57.421875 Z m 13.505859,0 h 4.886719 v 14.66211 h -4.886719 z"
       style="opacity:0.87900002;vector-effect:none;fill:#eaeaea;fill-opacity:1;fill-rule:nonzero;stroke:none;stroke-width:2.75274229;stroke-linecap:butt;stroke-linejoin:miter;stroke-miterlimit:4;stroke-dasharray:none;stroke-dashoffset:0;stroke-opacity:1;filter:url(#filter10233)"
       inkscape:connector-curvature="0" />
    <path
       d="M 20.449329,-127.98956 H 2.3002268 c -1.1448837,0 -2.07716406,0.93162 -2.07716406,2.07717 v 3.34419 H 1.0193309 v -3.34419 c 0,-0.70647 0.574421,-1.28156 1.2808959,-1.28156 h 1.3746513 v 4.62575 h 0.7956075 v -4.62575 h 2.7783553 v 4.62575 H 8.045109 v -4.62575 h 2.777695 v 4.62575 h 0.796268 v -4.62575 h 2.777695 v 4.62575 h 0.796268 v -4.62575 h 2.777694 v 4.62575 h 0.795608 v -4.62575 h 1.682992 z"
       style="fill:#ffffff;fill-opacity:1;fill-rule:nonzero;stroke:none;stroke-width:0.66025549"
       id="path5068"
       inkscape:connector-curvature="0" />
    <path
       d="M 73.241377,-137.51646 H 24.497354 c -2.450868,0 -4.438237,1.98671 -4.438237,4.43823 v 9.76386 h 57.620497 v -9.76386 c 0,-2.45152 -1.987369,-4.43823 -4.438237,-4.43823"
       style="fill:#ffffff;fill-opacity:1;fill-rule:nonzero;stroke:none;stroke-width:0.66025549"
       id="path5072"
       inkscape:connector-curvature="0" />
    <path
       d="m 20.071266,-133.31268 h 57.596066 c -0.12214,-2.34127 -2.054053,-4.20386 -4.425691,-4.20386 H 24.497618 c -2.372297,0 -4.303544,1.86259 -4.426352,4.20386"
       style="fill:#063a52;fill-opacity:1;fill-rule:nonzero;stroke:none;stroke-width:0.66025549"
       id="path5076"
       inkscape:connector-curvature="0" />
    <path
       inkscape:connector-curvature="0"
       id="path5078"
       style="fill:#d00c01;fill-opacity:1;fill-rule:nonzero;stroke:none;stroke-width:0.66025549"
       d="m 69.985129,-137.51639 h -5.616133 v -6.85082 h 5.616133 z" />
    <path
       inkscape:connector-curvature="0"
       id="path5080"
       style="fill:#ffffff;fill-opacity:1;fill-rule:nonzero;stroke:none;stroke-width:0.66025549"
       d="m 69.985129,-140.67241 h -5.616133 v -1.70611 h 5.616133 z" />
    <path
       inkscape:connector-curvature="0"
       id="path5082"
       style="fill:#063a52;fill-opacity:1;fill-rule:nonzero;stroke:none;stroke-width:0.66025549"
       d="M 70.617654,-144.36721 H 63.73581 v -1.74373 h 6.881844 z" />
    <path
       d="m 71.333371,-130.96528 h -5.992479 c -0.481987,0 -0.872857,0.39087 -0.872857,0.87286 v 8.00692 c 0,0.48199 0.39087,0.87286 0.872857,0.87286 h 5.992479 c 0.481987,0 0.872857,-0.39087 0.872857,-0.87286 v -8.00692 c 0,-0.48199 -0.39087,-0.87286 -0.872857,-0.87286"
       style="fill:#e5e5e5;fill-opacity:1;fill-rule:nonzero;stroke:none;stroke-width:0.66025549"
       id="path5086"
       inkscape:connector-curvature="0" />
    <path
       d="m 71.333371,-130.96528 h -5.992479 c -0.457557,0 -0.82862,0.35325 -0.865596,0.80155 0.02377,-0.002 0.04688,-0.007 0.07131,-0.007 h 5.992479 c 0.481987,0 0.872859,0.39088 0.872859,0.87286 v 8.00692 c 0,0.0243 -0.0052,0.0475 -0.0073,0.0713 0.448313,-0.0371 0.80155,-0.40804 0.80155,-0.86559 v -8.00693 c 0,-0.48199 -0.390871,-0.87285 -0.872858,-0.87285"
       style="fill:#a5a5a5;fill-opacity:1;fill-rule:nonzero;stroke:none;stroke-width:0.66025549"
       id="path5090"
       inkscape:connector-curvature="0" />
    <path
       d="m 56.763315,-130.96528 h -3.604996 c -0.481985,0 -0.872857,0.39087 -0.872857,0.87286 v 3.605 c 0,0.48199 0.390872,0.87285 0.872857,0.87285 h 3.604996 c 0.481987,0 0.872857,-0.39086 0.872857,-0.87285 v -3.605 c 0,-0.48199 -0.39087,-0.87286 -0.872857,-0.87286"
       style="fill:#063a52;fill-opacity:1;fill-rule:nonzero;stroke:none;stroke-width:0.66025549"
       id="path5094"
       inkscape:connector-curvature="0" />
    <path
       d="m 56.763315,-130.96528 h -3.604996 c -0.457557,0 -0.82862,0.35325 -0.865594,0.80155 0.02377,-0.002 0.04688,-0.007 0.07131,-0.007 h 3.604994 c 0.481987,0 0.872859,0.39088 0.872859,0.87286 v 3.605 c 0,0.0243 -0.0052,0.0475 -0.0073,0.0713 0.448313,-0.0371 0.801549,-0.40805 0.801549,-0.8656 v -3.605 c 0,-0.48199 -0.39087,-0.87285 -0.872857,-0.87285"
       style="fill:#a5a5a5;fill-opacity:1;fill-rule:nonzero;stroke:none;stroke-width:0.66025549"
       id="path5098"
       inkscape:connector-curvature="0" />
    <path
       d="m 47.845772,-130.96528 h -3.604995 c -0.481986,0 -0.872858,0.39087 -0.872858,0.87286 v 3.605 c 0,0.48199 0.390872,0.87285 0.872858,0.87285 h 3.604995 c 0.481987,0 0.872858,-0.39086 0.872858,-0.87285 v -3.605 c 0,-0.48199 -0.390871,-0.87286 -0.872858,-0.87286"
       style="fill:#063a52;fill-opacity:1;fill-rule:nonzero;stroke:none;stroke-width:0.66025549"
       id="path5102"
       inkscape:connector-curvature="0" />
    <path
       d="m 47.845772,-130.96528 h -3.604995 c -0.457558,0 -0.828621,0.35325 -0.865594,0.80155 0.02377,-0.002 0.04688,-0.007 0.07131,-0.007 h 3.604994 c 0.481987,0 0.872859,0.39088 0.872859,0.87286 v 3.605 c 0,0.0243 -0.0052,0.0475 -0.0073,0.0713 0.448313,-0.0371 0.80155,-0.40805 0.80155,-0.8656 v -3.605 c 0,-0.48199 -0.39087,-0.87285 -0.872857,-0.87285"
       style="fill:#a5a5a5;fill-opacity:1;fill-rule:nonzero;stroke:none;stroke-width:0.66025549"
       id="path5106"
       inkscape:connector-curvature="0" />
    <path
       d="m 38.928162,-130.96528 h -3.604995 c -0.481985,0 -0.872858,0.39087 -0.872858,0.87286 v 3.605 c 0,0.48199 0.390873,0.87285 0.872858,0.87285 h 3.604995 c 0.481987,0 0.872858,-0.39086 0.872858,-0.87285 v -3.605 c 0,-0.48199 -0.390871,-0.87286 -0.872858,-0.87286"
       style="fill:#063a52;fill-opacity:1;fill-rule:nonzero;stroke:none;stroke-width:0.66025549"
       id="path5110"
       inkscape:connector-curvature="0" />
    <path
       d="m 38.928162,-130.96528 h -3.604995 c -0.457557,0 -0.828621,0.35325 -0.865594,0.80155 0.02377,-0.002 0.04688,-0.007 0.07131,-0.007 h 3.604993 c 0.481987,0 0.87286,0.39088 0.87286,0.87286 v 3.605 c 0,0.0243 -0.0052,0.0475 -0.0073,0.0713 0.448314,-0.0371 0.80155,-0.40805 0.80155,-0.8656 v -3.605 c 0,-0.48199 -0.39087,-0.87285 -0.872857,-0.87285"
       style="fill:#a5a5a5;fill-opacity:1;fill-rule:nonzero;stroke:none;stroke-width:0.66025549"
       id="path5114"
       inkscape:connector-curvature="0" />
    <path
       d="m 30.01062,-130.96528 h -3.604996 c -0.481985,0 -0.872857,0.39087 -0.872857,0.87286 v 3.605 c 0,0.48199 0.390872,0.87285 0.872857,0.87285 h 3.604996 c 0.481987,0 0.872857,-0.39086 0.872857,-0.87285 v -3.605 c 0,-0.48199 -0.39087,-0.87286 -0.872857,-0.87286"
       style="fill:#063a52;fill-opacity:1;fill-rule:nonzero;stroke:none;stroke-width:0.66025549"
       id="path5118"
       inkscape:connector-curvature="0" />
    <path
       d="m 30.01062,-130.96528 h -3.604996 c -0.457557,0 -0.82862,0.35325 -0.865593,0.80155 0.02377,-0.002 0.04688,-0.007 0.07131,-0.007 h 3.604994 c 0.481987,0 0.872859,0.39088 0.872859,0.87286 v 3.605 c 0,0.0243 -0.0052,0.0475 -0.0073,0.0713 0.448313,-0.0371 0.80155,-0.40805 0.80155,-0.8656 v -3.605 c 0,-0.48199 -0.390871,-0.87285 -0.872858,-0.87285"
       style="fill:#a5a5a5;fill-opacity:1;fill-rule:nonzero;stroke:none;stroke-width:0.66025549"
       id="path5122"
       inkscape:connector-curvature="0" />
    <path
       d="M 81.382656,-123.31442 H -0.63626115 c -2.45086825,0 -4.43757635,1.98671 -4.43757635,4.43823 v 9.76386 H 85.820894 v -9.76386 c 0,-2.45152 -1.987369,-4.43823 -4.438238,-4.43823"
       style="fill:#ffffff;fill-opacity:1;fill-rule:nonzero;stroke:none;stroke-width:0.66025549"
       id="path5126"
       inkscape:connector-curvature="0" />
    <path
       d="M -5.0621513,-119.11064 H 85.808811 c -0.122814,-2.34127 -2.054054,-4.20386 -4.426353,-4.20386 H -0.63579887 c -2.37229693,0 -4.30354433,1.86259 -4.42635243,4.20386"
       style="fill:#d00c01;fill-opacity:1;fill-rule:nonzero;stroke:none;stroke-width:0.66025549"
       id="path5130"
       inkscape:connector-curvature="0" />
    <path
       d="m 77.932492,-116.78688 h -3.604996 c -0.481985,0 -0.872857,0.39087 -0.872857,0.87286 v 3.605 c 0,0.48199 0.390872,0.87285 0.872857,0.87285 h 3.604996 c 0.481987,0 0.872857,-0.39086 0.872857,-0.87285 v -3.605 c 0,-0.48199 -0.39087,-0.87286 -0.872857,-0.87286"
       style="fill:#063a52;fill-opacity:1;fill-rule:nonzero;stroke:none;stroke-width:0.66025549"
       id="path5134"
       inkscape:connector-curvature="0" />
    <path
       d="m 77.932492,-116.78688 h -3.604996 c -0.457557,0 -0.82862,0.35325 -0.865594,0.80155 0.02377,-0.002 0.04688,-0.007 0.07131,-0.007 h 3.604994 c 0.481987,0 0.872859,0.39089 0.872859,0.87286 v 3.605 c 0,0.0245 -0.0052,0.0475 -0.0073,0.0713 0.448313,-0.0371 0.80155,-0.40805 0.80155,-0.8656 v -3.605 c 0,-0.48199 -0.390871,-0.87285 -0.872858,-0.87285"
       style="fill:#a5a5a5;fill-opacity:1;fill-rule:nonzero;stroke:none;stroke-width:0.66025549"
       id="path5138"
       inkscape:connector-curvature="0" />
    <path
       d="m 69.014949,-116.78688 h -3.604995 c -0.481985,0 -0.872858,0.39087 -0.872858,0.87286 v 3.605 c 0,0.48199 0.390873,0.87285 0.872858,0.87285 h 3.604995 c 0.481987,0 0.872858,-0.39086 0.872858,-0.87285 v -3.605 c 0,-0.48199 -0.390871,-0.87286 -0.872858,-0.87286"
       style="fill:#063a52;fill-opacity:1;fill-rule:nonzero;stroke:none;stroke-width:0.66025549"
       id="path5142"
       inkscape:connector-curvature="0" />
    <path
       d="m 69.014949,-116.78688 h -3.604995 c -0.457557,0 -0.828621,0.35325 -0.865594,0.80155 0.02377,-0.002 0.04688,-0.007 0.07131,-0.007 h 3.604993 c 0.481987,0 0.87286,0.39089 0.87286,0.87286 v 3.605 c 0,0.0245 -0.0052,0.0475 -0.0073,0.0713 0.448314,-0.0371 0.80155,-0.40805 0.80155,-0.8656 v -3.605 c 0,-0.48199 -0.39087,-0.87285 -0.872857,-0.87285"
       style="fill:#a5a5a5;fill-opacity:1;fill-rule:nonzero;stroke:none;stroke-width:0.66025549"
       id="path5146"
       inkscape:connector-curvature="0" />
    <path
       d="m 60.097341,-116.78688 h -3.604995 c -0.481985,0 -0.872858,0.39087 -0.872858,0.87286 v 3.605 c 0,0.48199 0.390873,0.87285 0.872858,0.87285 h 3.604995 c 0.481987,0 0.872858,-0.39086 0.872858,-0.87285 v -3.605 c 0,-0.48199 -0.390871,-0.87286 -0.872858,-0.87286"
       style="fill:#063a52;fill-opacity:1;fill-rule:nonzero;stroke:none;stroke-width:0.66025549"
       id="path5150"
       inkscape:connector-curvature="0" />
    <path
       d="m 60.097341,-116.78688 h -3.604995 c -0.457557,0 -0.828621,0.35325 -0.865594,0.80155 0.02377,-0.002 0.04688,-0.007 0.07131,-0.007 h 3.604993 c 0.481987,0 0.87286,0.39089 0.87286,0.87286 v 3.605 c 0,0.0245 -0.0052,0.0475 -0.0073,0.0713 0.448314,-0.0371 0.80155,-0.40805 0.80155,-0.8656 v -3.605 c 0,-0.48199 -0.39087,-0.87285 -0.872857,-0.87285"
       style="fill:#a5a5a5;fill-opacity:1;fill-rule:nonzero;stroke:none;stroke-width:0.66025549"
       id="path5154"
       inkscape:connector-curvature="0" />
    <path
       d="m 47.914703,-116.78688 h -5.992479 c -0.481987,0 -0.872857,0.39087 -0.872857,0.87286 v 8.00692 c 0,0.48199 0.39087,0.87286 0.872857,0.87286 h 5.992479 c 0.481987,0 0.872857,-0.39087 0.872857,-0.87286 v -8.00692 c 0,-0.48199 -0.39087,-0.87286 -0.872857,-0.87286"
       style="fill:#e5e5e5;fill-opacity:1;fill-rule:nonzero;stroke:none;stroke-width:0.66025549"
       id="path5158"
       inkscape:connector-curvature="0" />
    <path
       d="m 47.914703,-116.78688 h -5.992479 c -0.457557,0 -0.82862,0.35325 -0.865595,0.80155 0.02377,-0.002 0.04688,-0.007 0.07131,-0.007 h 5.992479 c 0.481987,0 0.872859,0.39089 0.872859,0.87286 v 8.00692 c 0,0.0243 -0.0052,0.0475 -0.0073,0.0713 0.448313,-0.0371 0.80155,-0.40804 0.80155,-0.86559 v -8.00693 c 0,-0.48199 -0.390871,-0.87285 -0.872858,-0.87285"
       style="fill:#a5a5a5;fill-opacity:1;fill-rule:nonzero;stroke:none;stroke-width:0.66025549"
       id="path5162"
       inkscape:connector-curvature="0" />
    <path
       d="m 33.344712,-116.78688 h -3.604995 c -0.481986,0 -0.872858,0.39087 -0.872858,0.87286 v 3.605 c 0,0.48199 0.390872,0.87285 0.872858,0.87285 h 3.604995 c 0.481987,0 0.872858,-0.39086 0.872858,-0.87285 v -3.605 c 0,-0.48199 -0.390871,-0.87286 -0.872858,-0.87286"
       style="fill:#063a52;fill-opacity:1;fill-rule:nonzero;stroke:none;stroke-width:0.66025549"
       id="path5166"
       inkscape:connector-curvature="0" />
    <path
       d="m 33.344712,-116.78688 h -3.604995 c -0.457558,0 -0.828621,0.35325 -0.865594,0.80155 0.02377,-0.002 0.04688,-0.007 0.07131,-0.007 h 3.604994 c 0.481987,0 0.872859,0.39089 0.872859,0.87286 v 3.605 c 0,0.0245 -0.0052,0.0475 -0.0073,0.0713 0.448314,-0.0371 0.80155,-0.40805 0.80155,-0.8656 v -3.605 c 0,-0.48199 -0.39087,-0.87285 -0.872857,-0.87285"
       style="fill:#a5a5a5;fill-opacity:1;fill-rule:nonzero;stroke:none;stroke-width:0.66025549"
       id="path5170"
       inkscape:connector-curvature="0" />
    <path
       d="m 24.427104,-116.78688 h -3.604995 c -0.481985,0 -0.872858,0.39087 -0.872858,0.87286 v 3.605 c 0,0.48199 0.390873,0.87285 0.872858,0.87285 h 3.604995 c 0.481987,0 0.872858,-0.39086 0.872858,-0.87285 v -3.605 c 0,-0.48199 -0.390871,-0.87286 -0.872858,-0.87286"
       style="fill:#063a52;fill-opacity:1;fill-rule:nonzero;stroke:none;stroke-width:0.66025549"
       id="path5174"
       inkscape:connector-curvature="0" />
    <path
       d="m 24.427104,-116.78688 h -3.604995 c -0.457557,0 -0.828621,0.35325 -0.865594,0.80155 0.02377,-0.002 0.04688,-0.007 0.07131,-0.007 h 3.604994 c 0.481987,0 0.872859,0.39089 0.872859,0.87286 v 3.605 c 0,0.0245 -0.0052,0.0475 -0.0073,0.0713 0.448314,-0.0371 0.80155,-0.40805 0.80155,-0.8656 v -3.605 c 0,-0.48199 -0.39087,-0.87285 -0.872857,-0.87285"
       style="fill:#a5a5a5;fill-opacity:1;fill-rule:nonzero;stroke:none;stroke-width:0.66025549"
       id="path5178"
       inkscape:connector-curvature="0" />
    <path
       d="m 15.509562,-116.78688 h -3.604996 c -0.481985,0 -0.872857,0.39087 -0.872857,0.87286 v 3.605 c 0,0.48199 0.390872,0.87285 0.872857,0.87285 h 3.604996 c 0.481987,0 0.872857,-0.39086 0.872857,-0.87285 v -3.605 c 0,-0.48199 -0.39087,-0.87286 -0.872857,-0.87286"
       style="fill:#063a52;fill-opacity:1;fill-rule:nonzero;stroke:none;stroke-width:0.66025549"
       id="path5182"
       inkscape:connector-curvature="0" />
    <path
       d="m 15.509562,-116.78688 h -3.604996 c -0.457557,0 -0.82862,0.35325 -0.865594,0.80155 0.02377,-0.002 0.04688,-0.007 0.07131,-0.007 h 3.604994 c 0.481987,0 0.872859,0.39089 0.872859,0.87286 v 3.605 c 0,0.0245 -0.0052,0.0475 -0.0073,0.0713 0.448313,-0.0371 0.80155,-0.40805 0.80155,-0.8656 v -3.605 c 0,-0.48199 -0.390871,-0.87285 -0.872858,-0.87285"
       style="fill:#a5a5a5;fill-opacity:1;fill-rule:nonzero;stroke:none;stroke-width:0.66025549"
       id="path5186"
       inkscape:connector-curvature="0" />
    <path
       d="M 6.5920194,-116.78688 H 2.9870237 c -0.4819851,0 -0.8728574,0.39087 -0.8728574,0.87286 v 3.605 c 0,0.48199 0.3908723,0.87285 0.8728574,0.87285 h 3.6049957 c 0.4819869,0 0.8728573,-0.39086 0.8728573,-0.87285 v -3.605 c 0,-0.48199 -0.3908704,-0.87286 -0.8728573,-0.87286"
       style="fill:#063a52;fill-opacity:1;fill-rule:nonzero;stroke:none;stroke-width:0.66025549"
       id="path5190"
       inkscape:connector-curvature="0" />
    <path
       d="M 6.5920194,-116.78688 H 2.9870237 c -0.4575571,0 -0.8286204,0.35325 -0.8655937,0.80155 0.023769,-0.002 0.046883,-0.007 0.071308,-0.007 h 3.6049938 c 0.4819869,0 0.8728592,0.39089 0.8728592,0.87286 v 3.605 c 0,0.0245 -0.00524,0.0475 -0.0073,0.0713 0.4483133,-0.0371 0.8015498,-0.40805 0.8015498,-0.8656 v -3.605 c 0,-0.48199 -0.3908705,-0.87285 -0.8728574,-0.87285"
       style="fill:#a5a5a5;fill-opacity:1;fill-rule:nonzero;stroke:none;stroke-width:0.66025549"
       id="path5194"
       inkscape:connector-curvature="0" />
    <path
       d="m -37.793657,-109.1124 c 0,0 21.23844,4.21506 32.9480693,19.09855 H 88.73572 l 6.763665,-19.09855 z"
       style="fill:#063a52;fill-opacity:1;fill-rule:nonzero;stroke:none;stroke-width:0.66025549"
       id="path5198"
       inkscape:connector-curvature="0" />
    <path
       d="m 25.509131,-95.995696 c -8.242631,0 -16.4324388,-1.596504 -23.9791591,-4.912304 -18.5155449,-8.13566 -39.3234959,-8.20433 -39.3234959,-8.20433 0,0 15.359523,3.05038 27.156307,13.116634 v 0 c 1.0326409,0.880789 2.038209,1.815705 3.0035023,2.806749 0.011791,0.01123 0.023114,0.02452 0.034999,0.03631 0.4575552,0.470761 0.9058703,0.955391 1.3442791,1.45256 0.03367,0.03837 0.06734,0.07599 0.1010098,0.114167 0.4469938,0.511038 0.8840812,1.03396 1.3079665,1.57208 H 18.202737 88.735196 l 2.118752,-5.981921 z"
       style="fill:#053242;fill-opacity:1;fill-rule:nonzero;stroke:none;stroke-width:0.66025549"
       id="path5202"
       inkscape:connector-curvature="0" />
    <path
       d="m 80.574966,-103.38284 c 0,1.2274 -0.995005,2.22242 -2.22242,2.22242 -1.227415,0 -2.22242,-0.99502 -2.22242,-2.22242 0,-1.22741 0.995005,-2.22242 2.22242,-2.22242 1.227415,0 2.22242,0.99501 2.22242,2.22242"
       style="fill:#ffffff;fill-opacity:1;fill-rule:nonzero;stroke:none;stroke-width:0.66025549"
       id="path5206"
       inkscape:connector-curvature="0" />
    <path
       d="m 78.352415,-105.60532 c -0.758634,0 -1.428132,0.38096 -1.828907,0.96132 0.358518,-0.24824 0.792967,-0.39415 1.261748,-0.39415 1.227415,0 2.22242,0.99564 2.22242,2.22307 0,0.46878 -0.145909,0.90258 -0.393513,1.26108 0.579704,-0.40076 0.960672,-1.07027 0.960672,-1.8289 0,-1.22741 -0.995005,-2.22242 -2.22242,-2.22242"
       style="fill:#053242;fill-opacity:1;fill-rule:nonzero;stroke:none;stroke-width:0.66025549"
       id="path5210"
       inkscape:connector-curvature="0" />
    <path
       d="m 73.568864,-103.38284 c 0,1.2274 -0.995005,2.22242 -2.22242,2.22242 -1.227415,0 -2.22242,-0.99502 -2.22242,-2.22242 0,-1.22741 0.995005,-2.22242 2.22242,-2.22242 1.227415,0 2.22242,0.99501 2.22242,2.22242"
       style="fill:#ffffff;fill-opacity:1;fill-rule:nonzero;stroke:none;stroke-width:0.66025549"
       id="path5214"
       inkscape:connector-curvature="0" />
    <path
       d="m 71.346311,-105.60532 c -0.758634,0 -1.428132,0.38096 -1.828907,0.96132 0.358518,-0.24824 0.792967,-0.39415 1.261748,-0.39415 1.227415,0 2.22242,0.99564 2.22242,2.22307 0,0.46878 -0.145909,0.90258 -0.393513,1.26108 0.579704,-0.40076 0.960672,-1.07027 0.960672,-1.8289 0,-1.22741 -0.995005,-2.22242 -2.22242,-2.22242"
       style="fill:#053242;fill-opacity:1;fill-rule:nonzero;stroke:none;stroke-width:0.66025549"
       id="path5218"
       inkscape:connector-curvature="0" />
    <path
       d="m 66.562694,-103.38284 c 0,1.2274 -0.995005,2.22242 -2.22242,2.22242 -1.227415,0 -2.22242,-0.99502 -2.22242,-2.22242 0,-1.22741 0.995005,-2.22242 2.22242,-2.22242 1.227415,0 2.22242,0.99501 2.22242,2.22242"
       style="fill:#ffffff;fill-opacity:1;fill-rule:nonzero;stroke:none;stroke-width:0.66025549"
       id="path5222"
       inkscape:connector-curvature="0" />
    <path
       d="m 64.340143,-105.60532 c -0.758634,0 -1.428132,0.38096 -1.828907,0.96132 0.358518,-0.24824 0.792967,-0.39415 1.261748,-0.39415 1.227415,0 2.22242,0.99564 2.22242,2.22307 0,0.46878 -0.145909,0.90258 -0.393513,1.26108 0.579704,-0.40076 0.960672,-1.07027 0.960672,-1.8289 0,-1.22741 -0.995005,-2.22242 -2.22242,-2.22242"
       style="fill:#053242;fill-opacity:1;fill-rule:nonzero;stroke:none;stroke-width:0.66025549"
       id="path5226"
       inkscape:connector-curvature="0" />
    <path
       d="m -4.8728549,-101.74382 c -0.9494466,0 -1.7219456,-0.7725 -1.7219456,-1.72194 0,-0.94945 0.772499,-1.72195 1.7219456,-1.72195 0.9494465,0 1.7219455,0.7725 1.7219455,1.72195 0,0.94944 -0.772499,1.72194 -1.7219455,1.72194 m 0,-4.74723 c -1.6678061,0 -3.0252912,1.35683 -3.0252912,3.02529 0,1.6678 1.3574851,3.02528 3.0252912,3.02528 1.667806,0 3.0252911,-1.35748 3.0252911,-3.02528 0,-1.66846 -1.3574851,-3.02529 -3.0252911,-3.02529"
       style="fill:#ffffff;fill-opacity:1;fill-rule:nonzero;stroke:none;stroke-width:0.66025549"
       id="path5230"
       inkscape:connector-curvature="0" />
    <path
       d="m -5.9264256,-106.3015 0.3492743,1.26505 c 0.2152442,-0.0971 0.4535968,-0.15123 0.7044929,-0.15123 0.2502372,0 0.4885899,0.0541 0.7038321,0.15123 l 0.3492762,-1.26505 c -0.3281478,-0.12221 -0.6827037,-0.18949 -1.0531083,-0.18949 -0.3704027,0 -0.7256194,0.0674 -1.0537672,0.18949"
       style="fill:#d00c01;fill-opacity:1;fill-rule:nonzero;stroke:none;stroke-width:0.66025549"
       id="path5234"
       inkscape:connector-curvature="0" />
    <path
       d="m -3.8193517,-100.63017 -0.3492743,-1.26504 c -0.2152441,0.0971 -0.4535968,0.15122 -0.7044928,0.15122 -0.2502373,0 -0.4885899,-0.0541 -0.7038322,-0.15122 l -0.3492762,1.26504 c 0.3281478,0.12222 0.6827038,0.1895 1.0531084,0.1895 0.3704027,0 0.7256193,-0.0674 1.0537671,-0.1895"
       style="fill:#d00c01;fill-opacity:1;fill-rule:nonzero;stroke:none;stroke-width:0.66025549"
       id="path5238"
       inkscape:connector-curvature="0" />
    <path
       d="m -3.1509094,-103.46583 c 0,0.2509 -0.054145,0.4886 -0.1512058,0.70383 l 1.2650491,0.34993 c 0.12214,-0.3288 0.1894929,-0.68335 0.1894929,-1.05376 0,-0.37041 -0.06734,-0.72496 -0.1894929,-1.05376 l -1.2650491,0.34993 c 0.097061,0.21458 0.1512058,0.45292 0.1512058,0.70383"
       style="fill:#d00c01;fill-opacity:1;fill-rule:nonzero;stroke:none;stroke-width:0.66025549"
       id="path5242"
       inkscape:connector-curvature="0" />
    <path
       d="m -6.5949333,-103.46583 c 0,-0.25091 0.054145,-0.48925 0.1512057,-0.70383 l -1.2650491,-0.34993 c -0.12214,0.3288 -0.1894929,0.68335 -0.1894929,1.05376 0,0.37041 0.06734,0.72496 0.1894929,1.05376 l 1.2650491,-0.34993 c -0.097061,-0.21523 -0.1512057,-0.45293 -0.1512057,-0.70383"
       style="fill:#d00c01;fill-opacity:1;fill-rule:nonzero;stroke:none;stroke-width:0.66025549"
       id="path5246"
       inkscape:connector-curvature="0" />
    <g
       transform="matrix(0.66025549,0,0,-0.66025549,-61.041912,-42.255392)"
       id="g5260">
      <g
         clip-path="url(#clipPath5254)"
         id="g5258">
        <path
           d="M 222.433,101.259 H 84.767 v 3.013 h 137.666 z"
           style="fill:#e4e5e6;fill-opacity:1;fill-rule:nonzero;stroke:none"
           id="path5256"
           inkscape:connector-curvature="0" />
      </g>
    </g>
    <g
       transform="matrix(0.66025549,0,0,-0.66025549,-61.041912,-42.255392)"
       id="g5274">
      <g
         clip-path="url(#clipPath5268)"
         id="g5272">
        <path
           d="m 210.102,122.731 h -87.269 v 3.013 h 87.269 z"
           style="fill:#e4e5e6;fill-opacity:1;fill-rule:nonzero;stroke:none"
           id="path5270"
           inkscape:connector-curvature="0" />
      </g>
    </g>
    <g
       transform="matrix(0.66025549,0,0,-0.66025549,-61.041912,-42.255392)"
       id="g5288">
      <g
         clip-path="url(#clipPath5282)"
         id="g5286">
        <path
           d="m 198.449,144.279 h -8.506 v 3.013 h 8.506 z"
           style="fill:#e4e5e6;fill-opacity:1;fill-rule:nonzero;stroke:none"
           id="path5284"
           inkscape:connector-curvature="0" />
      </g>
    </g>
  </g></a>
</svg>
