<?xml version="1.0" encoding="UTF-8" standalone="no"?>
<!-- Created with Inkscape (http://www.inkscape.org/) -->

<svg
   xmlns:dc="http://purl.org/dc/elements/1.1/"
   xmlns:cc="http://creativecommons.org/ns#"
   xmlns:rdf="http://www.w3.org/1999/02/22-rdf-syntax-ns#"
   xmlns:svg="http://www.w3.org/2000/svg"
   xmlns="http://www.w3.org/2000/svg"
   xmlns:sodipodi="http://sodipodi.sourceforge.net/DTD/sodipodi-0.dtd"
   xmlns:inkscape="http://www.inkscape.org/namespaces/inkscape"
   width="147.77345mm"
   height="59.343742mm"
   viewBox="0 0 147.77345 59.343743"
   version="1.1"
   id="svg9108"
   sodipodi:docname="e.svg"
   inkscape:version="0.92.1 r15371">
  <a href="../contenido/pag14.html" target="iframe"><defs
     id="defs95">
    <clipPath
       id="clipPath4622"
       clipPathUnits="userSpaceOnUse">
      <path
         inkscape:connector-curvature="0"
         id="path4620"
         d="m 309.511,247.825 h 113.998 v -3.013 H 309.511 Z" />
    </clipPath>
    <clipPath
       id="clipPath4694"
       clipPathUnits="userSpaceOnUse">
      <path
         inkscape:connector-curvature="0"
         id="path4692"
         d="M 268.03,242.673 H 447.915 V 223.419 H 268.03 Z" />
    </clipPath>
    <clipPath
       id="clipPath4770"
       clipPathUnits="userSpaceOnUse">
      <path
         inkscape:connector-curvature="0"
         id="path4768"
         d="m 334.771,269.219 h 22.75 v -3.014 h -22.75 z" />
    </clipPath>
    <defs
       id="defs105">
      <clipPath
         clipPathUnits="userSpaceOnUse"
         id="clipPath5254">
        <path
           d="m 84.767,104.272 h 137.666 v -3.013 H 84.767 Z"
           id="path5252"
           inkscape:connector-curvature="0" />
      </clipPath>
      <clipPath
         clipPathUnits="userSpaceOnUse"
         id="clipPath5268">
        <path
           d="m 122.833,125.745 h 87.269 v -3.014 h -87.269 z"
           id="path5266"
           inkscape:connector-curvature="0" />
      </clipPath>
      <clipPath
         clipPathUnits="userSpaceOnUse"
         id="clipPath5282">
        <path
           d="m 189.943,147.292 h 8.506 v -3.013 h -8.506 z"
           id="path5280"
           inkscape:connector-curvature="0" />
      </clipPath>
      <defs
         id="defs9102">
        <clipPath
           id="clipPath4796"
           clipPathUnits="userSpaceOnUse">
          <path
             inkscape:connector-curvature="0"
             id="path4794"
             d="m 175.845,416.536 h 24.601 v -9.561 h -24.601 z" />
        </clipPath>
        <clipPath
           id="clipPath4842"
           clipPathUnits="userSpaceOnUse">
          <path
             inkscape:connector-curvature="0"
             id="path4840"
             d="m 71.864,377.941 h 142.02 v -3.013 H 71.864 Z" />
        </clipPath>
        <clipPath
           id="clipPath4862"
           clipPathUnits="userSpaceOnUse">
          <path
             inkscape:connector-curvature="0"
             id="path4860"
             d="M 90.5581,390.806 H 207.054 v -3.013 H 90.5581 Z" />
        </clipPath>
        <clipPath
           id="clipPath4882"
           clipPathUnits="userSpaceOnUse">
          <path
             inkscape:connector-curvature="0"
             id="path4880"
             d="m 109.707,403.671 h 90.207 v -3.013 h -90.207 z" />
        </clipPath>
        <clipPath
           id="clipPath4994"
           clipPathUnits="userSpaceOnUse">
          <path
             inkscape:connector-curvature="0"
             id="path4992"
             d="m 167.309,416.536 h 8.506 v -3.013 h -8.506 z" />
        </clipPath>
        <clipPath
           id="clipPath5008"
           clipPathUnits="userSpaceOnUse">
          <path
             inkscape:connector-curvature="0"
             id="path5006"
             d="m 151.396,416.536 h 8.505 v -3.013 h -8.505 z" />
        </clipPath>
        <clipPath
           id="clipPath5022"
           clipPathUnits="userSpaceOnUse">
          <path
             inkscape:connector-curvature="0"
             id="path5020"
             d="m 135.482,416.536 h 8.505 v -3.013 h -8.505 z" />
        </clipPath>
        <clipPath
           id="clipPath5036"
           clipPathUnits="userSpaceOnUse">
          <path
             inkscape:connector-curvature="0"
             id="path5034"
             d="m 36.208,374.928 h 89.681 V 349.194 H 36.208 Z" />
        </clipPath>
        <filter
           inkscape:collect="always"
           style="color-interpolation-filters:sRGB"
           id="filter10233"
           x="-0.0075199637"
           width="1.0150399"
           y="-0.019154953"
           height="1.0383099">
          <feGaussianBlur
             inkscape:collect="always"
             stdDeviation="1.7240716"
             id="feGaussianBlur10235" />
        </filter>
      </defs>
      <sodipodi:namedview
         id="base"
         pagecolor="#ffffff"
         bordercolor="#666666"
         borderopacity="1.0"
         inkscape:pageopacity="0.0"
         inkscape:pageshadow="2"
         inkscape:zoom="0.98994949"
         inkscape:cx="221.44688"
         inkscape:cy="146.98327"
         inkscape:document-units="mm"
         inkscape:current-layer="layer1"
         showgrid="false"
         fit-margin-top="0"
         fit-margin-left="0"
         fit-margin-right="0"
         fit-margin-bottom="0"
         inkscape:window-width="1920"
         inkscape:window-height="1057"
         inkscape:window-x="-8"
         inkscape:window-y="-8"
         inkscape:window-maximized="1" />
    </defs>
    <sodipodi:namedview
       inkscape:current-layer="svg9108"
       inkscape:window-maximized="1"
       inkscape:window-y="-8"
       inkscape:window-x="-8"
       inkscape:cy="193.31749"
       inkscape:cx="390.01218"
       inkscape:zoom="1.3571732"
       showgrid="false"
       id="namedview103"
       inkscape:window-height="1057"
       inkscape:window-width="1920"
       inkscape:pageshadow="2"
       inkscape:pageopacity="0"
       guidetolerance="10"
       gridtolerance="10"
       objecttolerance="10"
       borderopacity="1"
       bordercolor="#666666"
       pagecolor="#ffffff" />
    <clipPath
       id="clipPath5494"
       clipPathUnits="userSpaceOnUse">
      <path
         inkscape:connector-curvature="0"
         id="path5492"
         d="m 360.516,100.091 h 76.043 v -5.5825 h -76.043 z" />
    </clipPath>
    <clipPath
       id="clipPath5536"
       clipPathUnits="userSpaceOnUse">
      <path
         inkscape:connector-curvature="0"
         id="path5534"
         d="m 274.613,108.371 h 24.601 v -9.5608 h -24.601 z" />
    </clipPath>
    <clipPath
       id="clipPath5580"
       clipPathUnits="userSpaceOnUse">
      <path
         inkscape:connector-curvature="0"
         id="path5578"
         d="m 400.768,122.493 h 31.336 v -4.15 h -31.336 z" />
    </clipPath>
    <clipPath
       id="clipPath5494-5"
       clipPathUnits="userSpaceOnUse">
      <path
         inkscape:connector-curvature="0"
         id="path5492-8"
         d="m 360.516,100.091 h 76.043 v -5.5825 h -76.043 z" />
    </clipPath>
    <clipPath
       id="clipPath5536-0"
       clipPathUnits="userSpaceOnUse">
      <path
         inkscape:connector-curvature="0"
         id="path5534-3"
         d="m 274.613,108.371 h 24.601 v -9.5608 h -24.601 z" />
    </clipPath>
    <clipPath
       id="clipPath5580-8"
       clipPathUnits="userSpaceOnUse">
      <path
         inkscape:connector-curvature="0"
         id="path5578-7"
         d="m 400.768,122.493 h 31.336 v -4.15 h -31.336 z" />
    </clipPath>
  </defs>
  <sodipodi:namedview
     pagecolor="#ffffff"
     bordercolor="#666666"
     borderopacity="1"
     objecttolerance="10"
     gridtolerance="10"
     guidetolerance="10"
     inkscape:pageopacity="0"
     inkscape:pageshadow="2"
     inkscape:window-width="1920"
     inkscape:window-height="1057"
     id="namedview93"
     showgrid="false"
     inkscape:zoom="0.67858659"
     inkscape:cx="73.682564"
     inkscape:cy="1.3682609"
     inkscape:window-x="-8"
     inkscape:window-y="-8"
     inkscape:window-maximized="1"
     inkscape:current-layer="svg9108" />
  <metadata
     id="metadata107">
    <rdf:RDF>
      <cc:Work
         rdf:about="">
        <dc:format>image/svg+xml</dc:format>
        <dc:type
           rdf:resource="http://purl.org/dc/dcmitype/StillImage" />
        <dc:title></dc:title>
      </cc:Work>
    </rdf:RDF>
  </metadata>
  <g
     inkscape:label="Capa 1"
     inkscape:groupmode="layer"
     id="layer1"
     transform="translate(-7.7562559,-104.79834)" />
  <g
     id="g5784"
     transform="translate(-0.83997789,83.769133)">
    <path
       id="path5468"
       transform="scale(0.26458333)"
       d="m 406.9668,-284.00586 v 9.6543 h -15.625 v 11.06054 h 8.28515 v 38.13477 h 78.19727 v -10.35547 -27.7793 h 8.28516 v -11.06054 h -15.62305 v -9.6543 z m -285.36328,55.95703 v 5.4961 h -1.125 c -8.71413,0 -15.7793,7.06322 -15.7793,15.77734 h 10.36719 l -13.44336,13.49219 -28.439456,-0.041 c 0,0 24.0343,53.51948 102.386716,74.59375 0.0566,0.0152 0.11325,0.0317 0.16992,0.0469 2.95255,0.79157 5.98163,1.53564 9.08985,2.23047 0.43797,0.098 0.87725,0.19501 1.31836,0.29101 0.8922,0.19394 1.78634,0.38677 2.6914,0.57227 0.35903,0.0737 0.72488,0.14252 1.08594,0.21484 1.6066,0.32141 3.23381,0.6299 4.88086,0.92383 0.56079,0.1002 1.12198,0.19996 1.6875,0.29687 0.83162,0.14235 1.66594,0.28283 2.50781,0.41797 0.81552,0.13107 1.63964,0.2567 2.46485,0.38086 1.02475,0.15399 2.05595,0.30219 3.0957,0.44531 0.99797,0.13754 1.99982,0.27311 3.01172,0.40039 0.6593,0.0828 1.32305,0.16184 1.98828,0.24024 1.01227,0.11944 2.03251,0.23085 3.05859,0.33984 0.61063,0.0648 1.2165,0.13429 1.83203,0.19531 1.48337,0.14724 2.98402,0.28134 4.4961,0.40626 0.57475,0.0474 1.15546,0.0906 1.73437,0.13476 1.18374,0.0904 2.37687,0.17362 3.57813,0.25 0.55348,0.0352 1.1049,0.0714 1.66211,0.10352 1.67355,0.0966 3.3609,0.1811 5.06836,0.25 0.29687,0.012 0.59859,0.0201 0.89648,0.0312 1.51791,0.0567 3.05092,0.1025 4.59571,0.13671 0.45819,0.0101 0.91638,0.0192 1.37695,0.0273 1.8312,0.0324 3.674,0.0547 5.54297,0.0547 0,0 0.002,0 0.002,0 h 253.20508 l 21.22265,-23.34766 0.0547,-0.0586 h 21.27539 l 15.42774,-15.42579 v -16.49023 -10.8457 c 0,-4.32962 -3.52254,-7.85157 -7.84961,-7.85157 H 488.94141 V -225.1543 H 338.30078 l -12.48437,18.98047 -2.09961,3.19336 -12.05469,18.32227 h 0.002 l -3.32226,5.04882 -9.16211,13.92969 v 0.002 h 185.32812 v 0.0156 H 282.76953 l -27.39648,-27.39453 -116.18946,-0.16992 7.01758,-7.04492 6.48242,-6.50391 h 1.37696 c 8.71412,0 15.77734,-7.06322 15.77734,-15.77734 H 158.8457 v -5.4961 z m 367.33789,46.69727 h 9.07226 v 15.68945 h -10.49805 v -0.0156 h 1.42579 v -0.002 h 0.002 v -13.92969 h -0.002 z m 12.08203,0 h 10.49804 v 15.68945 h -10.49804 z m 13.50781,0 h 10.5 v 15.68945 h -10.5 z m 13.50781,0 h 10.5 v 15.68945 h -10.5 z m 13.50782,0 h 5.19531 c 2.67012,0 4.83984,2.17363 4.83984,4.84375 v 10.8457 h -10.03515 z"
       style="opacity:0.87900002;vector-effect:none;fill:#eaeaea;fill-opacity:1;fill-rule:nonzero;stroke:none;stroke-width:2.75274229;stroke-linecap:butt;stroke-linejoin:miter;stroke-miterlimit:4;stroke-dasharray:none;stroke-dashoffset:0;stroke-opacity:1;filter:url(#filter10233)"
       inkscape:connector-curvature="0" />
    <path
       d="m 126.50965,-48.778356 h 18.14911 c 1.14487,0 2.07715,0.931622 2.07715,2.077166 v 3.344195 h -0.79627 v -3.344195 c 0,-0.706469 -0.57441,-1.281553 -1.28088,-1.281553 h -1.37466 v 4.625748 h -0.79562 v -4.625748 h -2.77833 v 4.625748 h -0.79562 v -4.625748 h -2.77836 v 4.625748 h -0.79626 v -4.625748 h -2.77771 v 4.625748 h -0.79626 v -4.625748 h -2.77769 v 4.625748 h -0.79561 v -4.625748 h -1.68299 z"
       style="fill:#ffffff;fill-opacity:1;fill-rule:nonzero;stroke:none;stroke-width:0.66025549"
       id="path5482"
       inkscape:connector-curvature="0" />
    <path
       d="M 79.157982,-43.835692 89.508813,-59.57223 h 39.856977 v 15.736538 z"
       style="fill:#ffffff;fill-opacity:1;fill-rule:nonzero;stroke:none;stroke-width:0.66025549"
       id="path5486"
       inkscape:connector-curvature="0" />
    <path
       inkscape:connector-curvature="0"
       id="path5496"
       style="fill:#e4e5e6;fill-opacity:1;fill-rule:nonzero;stroke:none;stroke-width:0.66025549"
       d="m 81.582312,-47.521432 -2.424458,3.685546 h 50.208466 v -3.685546 z" />
    <path
       d="m 124.40273,-54.550378 h -14.73427 c -0.51235,0 -0.92831,0.415961 -0.92831,0.928327 v 3.836068 c 0,0.512367 0.41596,0.928328 0.92831,0.928328 h 14.73427 c 0.51302,0 0.92832,-0.415961 0.92832,-0.928328 v -3.836068 c 0,-0.512366 -0.4153,-0.928327 -0.92832,-0.928327"
       style="fill:#063a52;fill-opacity:1;fill-rule:nonzero;stroke:none;stroke-width:0.66025549"
       id="path5506"
       inkscape:connector-curvature="0" />
    <path
       d="m 124.40273,-54.550378 h -14.73427 c -0.48661,0 -0.88144,0.375684 -0.92105,0.852397 0.0258,-0.0019 0.0502,-0.0075 0.076,-0.0075 h 14.73425 c 0.51302,0 0.92898,0.415287 0.92898,0.928308 v 3.835432 c 0,0.02639 -0.006,0.05091 -0.007,0.07599 0.4767,-0.03893 0.8524,-0.433797 0.8524,-0.92041 v -3.836068 c 0,-0.512367 -0.41531,-0.928328 -0.92833,-0.928328"
       style="fill:#a5a5a5;fill-opacity:1;fill-rule:nonzero;stroke:none;stroke-width:0.66025549"
       id="path5510"
       inkscape:connector-curvature="0" />
    <path
       d="M 103.95876,-54.550322 H 86.205811 l -3.744958,5.692723 h 21.497907 c 0.51303,0 0.92833,-0.415961 0.92833,-0.928328 v -3.836068 c 0,-0.512366 -0.4153,-0.928327 -0.92833,-0.928327"
       style="fill:#063a52;fill-opacity:1;fill-rule:nonzero;stroke:none;stroke-width:0.66025549"
       id="path5514"
       inkscape:connector-curvature="0" />
    <path
       d="M 103.95876,-54.550322 H 86.205811 l -0.555937,0.845135 h 17.463756 c 0.51302,0 0.92898,0.415287 0.92898,0.928309 v 3.835432 c 0,0.02639 -0.006,0.05091 -0.007,0.07599 0.4767,-0.03893 0.8524,-0.433797 0.8524,-0.920411 v -3.836067 c 0,-0.512367 -0.4153,-0.928328 -0.92833,-0.928328"
       style="fill:#a5a5a5;fill-opacity:1;fill-rule:nonzero;stroke:none;stroke-width:0.66025549"
       id="path5518"
       inkscape:connector-curvature="0" />
    <path
       d="M 32.393077,-46.675905 H 22.44039 l 8.246582,-8.276959 h 9.952688 z"
       style="fill:#ffffff;fill-opacity:1;fill-rule:nonzero;stroke:none;stroke-width:0.66025549"
       id="path5522"
       inkscape:connector-curvature="0" />
    <path
       d="m 31.87663,-58.883971 c -2.305612,0 -4.174788,1.869176 -4.174788,4.174788 h 13.059845 c 2.305613,0 4.174789,-1.869176 4.174789,-4.174788 v 0 z"
       style="fill:#063a52;fill-opacity:1;fill-rule:nonzero;stroke:none;stroke-width:0.66025549"
       id="path5526"
       inkscape:connector-curvature="0" />
    <path
       inkscape:connector-curvature="0"
       id="path5528"
       style="fill:#d00c01;fill-opacity:1;fill-rule:nonzero;stroke:none;stroke-width:0.66025549"
       d="m 42.027987,-58.883896 h -9.853643 v -1.453889 h 9.853643 z" />
    <path
       inkscape:connector-curvature="0"
       id="path5538"
       style="fill:#e4e5e6;fill-opacity:1;fill-rule:nonzero;stroke:none;stroke-width:0.66025549"
       d="m 28.729917,-52.988612 -6.289594,6.312703 h 9.952691 l 6.289594,-6.312703 z" />
    <path
       d="m 19.363008,-51.150129 c 0,0 9.852333,21.956132 45.038008,21.956132 H 131.3945 l 5.63001,-6.193186 h 5.62933 l 4.08169,-4.08104 V -43.8312 H 74.815892 l -7.248295,-7.248276 z"
       style="fill:#063a52;fill-opacity:1;fill-rule:nonzero;stroke:none;stroke-width:0.66025549"
       id="path5548"
       inkscape:connector-curvature="0" />
    <path
       d="m 36.133226,-35.371611 c 6.770253,3.490778 15.966294,6.177352 28.267509,6.177352 h 66.994155 l 5.61547,-6.177352 z"
       style="fill:#053242;fill-opacity:1;fill-rule:nonzero;stroke:none;stroke-width:0.66025549"
       id="path5552"
       inkscape:connector-curvature="0" />
    <path
       inkscape:connector-curvature="0"
       id="path5554"
       style="fill:#ffffff;fill-opacity:1;fill-rule:nonzero;stroke:none;stroke-width:0.66025549"
       d="m 126.42449,-59.572548 h -20.68977 v -10.090024 h 20.68977 z" />
    <path
       inkscape:connector-curvature="0"
       id="path5556"
       style="fill:#d00c01;fill-opacity:1;fill-rule:nonzero;stroke:none;stroke-width:0.66025549"
       d="m 128.61654,-69.662572 h -25.07387 v -2.926251 h 25.07387 z" />
    <path
       d="m 116.70796,-68.632767 h -9.23499 c -0.38163,0 -0.69063,0.308999 -0.69063,0.690635 v 2.85163 c 0,0.380981 0.309,0.689981 0.69063,0.689981 h 9.23499 c 0.38164,0 0.69064,-0.309 0.69064,-0.689981 v -2.85163 c 0,-0.381636 -0.309,-0.690635 -0.69064,-0.690635"
       style="fill:#063a52;fill-opacity:1;fill-rule:nonzero;stroke:none;stroke-width:0.66025549"
       id="path5560"
       inkscape:connector-curvature="0" />
    <path
       d="m 116.70796,-68.632767 h -9.23499 c -0.36249,0 -0.65563,0.279279 -0.68468,0.633851 0.0187,-0.0013 0.0371,-0.0056 0.0562,-0.0056 h 9.235 c 0.38162,0 0.69062,0.308999 0.69062,0.68998 v 2.85163 c 0,0.01984 -0.004,0.03762 -0.006,0.05671 0.35455,-0.02901 0.6345,-0.322868 0.6345,-0.684684 v -2.85163 c 0,-0.381636 -0.309,-0.690635 -0.69063,-0.690635"
       style="fill:#a5a5a5;fill-opacity:1;fill-rule:nonzero;stroke:none;stroke-width:0.66025549"
       id="path5564"
       inkscape:connector-curvature="0" />
    <path
       d="m 123.30801,-68.632767 h -3.18441 c -0.38097,0 -0.68997,0.308999 -0.68997,0.690635 v 2.85163 c 0,0.380981 0.309,0.689981 0.68997,0.689981 h 3.18441 c 0.38097,0 0.69064,-0.309 0.69064,-0.689981 v -2.85163 c 0,-0.381636 -0.30967,-0.690635 -0.69064,-0.690635"
       style="fill:#063a52;fill-opacity:1;fill-rule:nonzero;stroke:none;stroke-width:0.66025549"
       id="path5568"
       inkscape:connector-curvature="0" />
    <path
       d="m 123.30801,-68.632767 h -3.18441 c -0.36182,0 -0.65497,0.279279 -0.68469,0.633851 0.0191,-0.0013 0.0376,-0.0056 0.0567,-0.0056 h 3.18376 c 0.38162,0 0.69062,0.308999 0.69062,0.68998 v 2.85163 c 0,0.01984 -0.004,0.03762 -0.006,0.05671 0.35455,-0.02901 0.6345,-0.322868 0.6345,-0.684684 v -2.85163 c 0,-0.381636 -0.30967,-0.690635 -0.69063,-0.690635"
       style="fill:#a5a5a5;fill-opacity:1;fill-rule:nonzero;stroke:none;stroke-width:0.66025549"
       id="path5572"
       inkscape:connector-curvature="0" />
    <path
       d="m 126.42449,-59.572547 h -20.68977 v -2.740061 h 20.68977 z"
       style="fill:#e4e5e6;fill-opacity:1;fill-rule:nonzero;stroke:none;stroke-width:0.66025549"
       id="path5582"
       inkscape:connector-curvature="0" />
    <path
       d="m 37.425933,-45.113352 c 0,1.329747 -1.078204,2.407951 -2.407951,2.407951 -1.329746,0 -2.40795,-1.078204 -2.40795,-2.407951 0,-1.329746 1.078204,-2.40795 2.40795,-2.40795 1.329747,0 2.407951,1.078204 2.407951,2.40795"
       style="fill:#ffffff;fill-opacity:1;fill-rule:nonzero;stroke:none;stroke-width:0.66025549"
       id="path5590"
       inkscape:connector-curvature="0" />
    <path
       d="m 35.017926,-47.521433 c -0.822021,0 -1.546982,0.412667 -1.981434,1.041222 0.388243,-0.268068 0.859004,-0.426517 1.366729,-0.426517 1.329765,0 2.407951,1.078186 2.407951,2.407951 0,0.508398 -0.157775,0.978486 -0.426517,1.366728 0.628555,-0.434452 1.041222,-1.159412 1.041222,-1.981434 0,-1.329746 -1.078205,-2.40795 -2.407951,-2.40795"
       style="fill:#053242;fill-opacity:1;fill-rule:nonzero;stroke:none;stroke-width:0.66025549"
       id="path5594"
       inkscape:connector-curvature="0" />
    <path
       d="m 45.700852,-45.113352 c 0,1.329747 -1.078205,2.407951 -2.407951,2.407951 -1.329746,0 -2.407951,-1.078204 -2.407951,-2.407951 0,-1.329746 1.078205,-2.40795 2.407951,-2.40795 1.329746,0 2.407951,1.078204 2.407951,2.40795"
       style="fill:#ffffff;fill-opacity:1;fill-rule:nonzero;stroke:none;stroke-width:0.66025549"
       id="path5598"
       inkscape:connector-curvature="0" />
    <path
       d="m 43.29277,-47.521433 c -0.822021,0 -1.546982,0.412667 -1.981434,1.041222 0.388243,-0.268068 0.859004,-0.426517 1.366729,-0.426517 1.329765,0 2.407951,1.078186 2.407951,2.407951 0,0.508398 -0.157775,0.978486 -0.426517,1.366728 0.628555,-0.434452 1.041222,-1.159412 1.041222,-1.981434 0,-1.329746 -1.078205,-2.40795 -2.407951,-2.40795"
       style="fill:#053242;fill-opacity:1;fill-rule:nonzero;stroke:none;stroke-width:0.66025549"
       id="path5602"
       inkscape:connector-curvature="0" />
    <path
       d="m 53.975771,-45.113352 c 0,1.329747 -1.078205,2.407951 -2.407951,2.407951 -1.329746,0 -2.407951,-1.078204 -2.407951,-2.407951 0,-1.329746 1.078205,-2.40795 2.407951,-2.40795 1.329746,0 2.407951,1.078204 2.407951,2.40795"
       style="fill:#ffffff;fill-opacity:1;fill-rule:nonzero;stroke:none;stroke-width:0.66025549"
       id="path5606"
       inkscape:connector-curvature="0" />
    <path
       d="m 51.567689,-47.521433 c -0.822021,0 -1.546982,0.412667 -1.981434,1.041222 0.388243,-0.268068 0.859004,-0.426517 1.366729,-0.426517 1.329765,0 2.407951,1.078186 2.407951,2.407951 0,0.508398 -0.157776,0.978486 -0.426517,1.366728 0.628555,-0.434452 1.041222,-1.159412 1.041222,-1.981434 0,-1.329746 -1.078205,-2.40795 -2.407951,-2.40795"
       style="fill:#053242;fill-opacity:1;fill-rule:nonzero;stroke:none;stroke-width:0.66025549"
       id="path5610"
       inkscape:connector-curvature="0" />
    <path
       d="m 62.250689,-45.113352 c 0,1.329747 -1.078204,2.407951 -2.40795,2.407951 -1.329747,0 -2.407951,-1.078204 -2.407951,-2.407951 0,-1.329746 1.078204,-2.40795 2.407951,-2.40795 1.329746,0 2.40795,1.078204 2.40795,2.40795"
       style="fill:#ffffff;fill-opacity:1;fill-rule:nonzero;stroke:none;stroke-width:0.66025549"
       id="path5614"
       inkscape:connector-curvature="0" />
    <path
       d="m 59.842608,-47.521433 c -0.822022,0 -1.546982,0.412667 -1.981434,1.041222 0.388242,-0.268068 0.859003,-0.426517 1.366729,-0.426517 1.329765,0 2.40795,1.078186 2.40795,2.407951 0,0.508398 -0.157775,0.978486 -0.426516,1.366728 0.628554,-0.434452 1.041221,-1.159412 1.041221,-1.981434 0,-1.329746 -1.078204,-2.40795 -2.40795,-2.40795"
       style="fill:#053242;fill-opacity:1;fill-rule:nonzero;stroke:none;stroke-width:0.66025549"
       id="path5618"
       inkscape:connector-curvature="0" />
    <path
       inkscape:connector-curvature="0"
       id="path5620"
       style="fill:#063a52;fill-opacity:1;fill-rule:nonzero;stroke:none;stroke-width:0.66025549"
       d="m 124.48268,-72.588823 h -16.80615 v -2.554533 h 16.80615 z" />
    <path
       d="m 139.64795,-38.044392 c -0.94944,0 -1.72194,-0.772499 -1.72194,-1.721938 0,-0.949458 0.7725,-1.721957 1.72194,-1.721957 0.94944,0 1.72194,0.772499 1.72194,1.721957 0,0.949439 -0.7725,1.721938 -1.72194,1.721938 m 0,-4.747233 c -1.66781,0 -3.02529,1.356828 -3.02529,3.025295 0,1.667793 1.35748,3.025276 3.02529,3.025276 1.66781,0 3.0253,-1.357483 3.0253,-3.025276 0,-1.668467 -1.35749,-3.025295 -3.0253,-3.025295"
       style="fill:#ffffff;fill-opacity:1;fill-rule:nonzero;stroke:none;stroke-width:0.66025549"
       id="path5624"
       inkscape:connector-curvature="0" />
    <path
       d="m 138.59438,-42.60207 0.34927,1.265045 c 0.21524,-0.09714 0.4536,-0.151224 0.70449,-0.151224 0.25025,0 0.4886,0.05409 0.70383,0.151224 l 0.34928,-1.265045 c -0.32815,-0.122215 -0.6827,-0.189499 -1.05311,-0.189499 -0.37041,0 -0.72562,0.06738 -1.05376,0.189499"
       style="fill:#d00c01;fill-opacity:1;fill-rule:nonzero;stroke:none;stroke-width:0.66025549"
       id="path5628"
       inkscape:connector-curvature="0" />
    <path
       d="m 140.70145,-36.930665 -0.34927,-1.265045 c -0.21524,0.09714 -0.4536,0.151224 -0.70449,0.151224 -0.25025,0 -0.4886,-0.05409 -0.70383,-0.151224 l -0.34928,1.265045 c 0.32815,0.122215 0.6827,0.189499 1.05311,0.189499 0.37041,0 0.72562,-0.06738 1.05376,-0.189499"
       style="fill:#d00c01;fill-opacity:1;fill-rule:nonzero;stroke:none;stroke-width:0.66025549"
       id="path5632"
       inkscape:connector-curvature="0" />
    <path
       d="m 141.36989,-39.76633 c 0,0.250905 -0.0541,0.488597 -0.15122,0.70383 l 1.26506,0.349931 c 0.12221,-0.328801 0.18948,-0.683355 0.18948,-1.053761 0,-0.370407 -0.0674,-0.724961 -0.18948,-1.053762 l -1.26506,0.349932 c 0.0971,0.214577 0.15122,0.452925 0.15122,0.70383"
       style="fill:#d00c01;fill-opacity:1;fill-rule:nonzero;stroke:none;stroke-width:0.66025549"
       id="path5636"
       inkscape:connector-curvature="0" />
    <path
       d="m 137.92594,-39.76633 c 0,-0.250905 0.0541,-0.489253 0.15122,-0.70383 l -1.26506,-0.349932 c -0.12222,0.328801 -0.18948,0.683355 -0.18948,1.053762 0,0.370406 0.0674,0.72496 0.18948,1.053761 l 1.26506,-0.349931 c -0.0971,-0.215233 -0.15122,-0.452925 -0.15122,-0.70383"
       style="fill:#d00c01;fill-opacity:1;fill-rule:nonzero;stroke:none;stroke-width:0.66025549"
       id="path5640"
       inkscape:connector-curvature="0" />
  </g></a>
</svg>
