<?xml version="1.0" encoding="UTF-8" standalone="no"?>
<!-- Created with Inkscape (http://www.inkscape.org/) -->

<svg
   xmlns:dc="http://purl.org/dc/elements/1.1/"
   xmlns:cc="http://creativecommons.org/ns#"
   xmlns:rdf="http://www.w3.org/1999/02/22-rdf-syntax-ns#"
   xmlns:svg="http://www.w3.org/2000/svg"
   xmlns="http://www.w3.org/2000/svg"
   xmlns:sodipodi="http://sodipodi.sourceforge.net/DTD/sodipodi-0.dtd"
   xmlns:inkscape="http://www.inkscape.org/namespaces/inkscape"
   width="147.77345mm"
   height="59.343742mm"
   viewBox="0 0 147.77345 59.343743"
   version="1.1"
   id="svg9108"
   sodipodi:docname="01.svg"
   inkscape:version="0.92.1 r15371">
  <metadata
     id="metadata107" />
  <defs
     id="defs105" />
  <sodipodi:namedview
     pagecolor="#ffffff"
     bordercolor="#666666"
     borderopacity="1"
     objecttolerance="10"
     gridtolerance="10"
     guidetolerance="10"
     inkscape:pageopacity="0"
     inkscape:pageshadow="2"
     inkscape:window-width="755"
     inkscape:window-height="480"
     id="namedview103"
     showgrid="false"
     inkscape:zoom="1.9193327"
     inkscape:cx="67.9181"
     inkscape:cy="92.709456"
     inkscape:window-x="0"
     inkscape:window-y="0"
     inkscape:window-maximized="0"
     inkscape:current-layer="layer1" />
    <defs
       id="defs9102">
      <clipPath
         id="clipPath4796"
         clipPathUnits="userSpaceOnUse">
        <path
           inkscape:connector-curvature="0"
           id="path4794"
           d="m 175.845,416.536 h 24.601 v -9.561 h -24.601 z" />
      </clipPath>
      <clipPath
         id="clipPath4842"
         clipPathUnits="userSpaceOnUse">
        <path
           inkscape:connector-curvature="0"
           id="path4840"
           d="m 71.864,377.941 h 142.02 v -3.013 H 71.864 Z" />
      </clipPath>
      <clipPath
         id="clipPath4862"
         clipPathUnits="userSpaceOnUse">
        <path
           inkscape:connector-curvature="0"
           id="path4860"
           d="M 90.5581,390.806 H 207.054 v -3.013 H 90.5581 Z" />
      </clipPath>
      <clipPath
         id="clipPath4882"
         clipPathUnits="userSpaceOnUse">
        <path
           inkscape:connector-curvature="0"
           id="path4880"
           d="m 109.707,403.671 h 90.207 v -3.013 h -90.207 z" />
      </clipPath>
      <clipPath
         id="clipPath4994"
         clipPathUnits="userSpaceOnUse">
        <path
           inkscape:connector-curvature="0"
           id="path4992"
           d="m 167.309,416.536 h 8.506 v -3.013 h -8.506 z" />
      </clipPath>
      <clipPath
         id="clipPath5008"
         clipPathUnits="userSpaceOnUse">
        <path
           inkscape:connector-curvature="0"
           id="path5006"
           d="m 151.396,416.536 h 8.505 v -3.013 h -8.505 z" />
      </clipPath>
      <clipPath
         id="clipPath5022"
         clipPathUnits="userSpaceOnUse">
        <path
           inkscape:connector-curvature="0"
           id="path5020"
           d="m 135.482,416.536 h 8.505 v -3.013 h -8.505 z" />
      </clipPath>
      <clipPath
         id="clipPath5036"
         clipPathUnits="userSpaceOnUse">
        <path
           inkscape:connector-curvature="0"
           id="path5034"
           d="m 36.208,374.928 h 89.681 V 349.194 H 36.208 Z" />
      </clipPath>
      <filter
         inkscape:collect="always"
         style="color-interpolation-filters:sRGB"
         id="filter10233"
         x="-0.0075199637"
         width="1.0150399"
         y="-0.019154953"
         height="1.0383099">
        <feGaussianBlur
           inkscape:collect="always"
           stdDeviation="1.7240716"
           id="feGaussianBlur10235" />
      </filter>
    </defs>
    <sodipodi:namedview
       id="base"
       pagecolor="#ffffff"
       bordercolor="#666666"
       borderopacity="1.0"
       inkscape:pageopacity="0.0"
       inkscape:pageshadow="2"
       inkscape:zoom="0.98994949"
       inkscape:cx="221.44688"
       inkscape:cy="146.98327"
       inkscape:document-units="mm"
       inkscape:current-layer="layer1"
       showgrid="false"
       fit-margin-top="0"
       fit-margin-left="0"
       fit-margin-right="0"
       fit-margin-bottom="0"
       inkscape:window-width="1920"
       inkscape:window-height="1057"
       inkscape:window-x="-8"
       inkscape:window-y="-8"
       inkscape:window-maximized="1" />
    <metadata
       id="metadata9105">
      <rdf:RDF>
        <cc:Work
           rdf:about="">
          <dc:format>image/svg+xml</dc:format>
          <dc:type
             rdf:resource="http://purl.org/dc/dcmitype/StillImage" />
          <dc:title />
        </cc:Work>
      </rdf:RDF>
    </metadata>
    <g
       inkscape:label="Capa 1"
       inkscape:groupmode="layer"
       id="layer1"
       transform="translate(-7.7562559,-104.79834)">
      <path
         style="opacity:0.87900002;fill:#eaeaea;fill-opacity:1;fill-rule:nonzero;stroke:none;stroke-width:2.75274229;filter:url(#filter10233)"
         d="m 424.9707,0 v 6.0625 h -1.24218 c -9.61259,0 -17.40625,7.791711 -17.40625,17.404297 h 11.43554 l -15.41406,15.46875 H 384.30273 V 30.640625 25.777344 18.664062 10.375 h 2.63868 V 3.1054688 H 358.25 V 10.375 h 2.63672 v 8.289062 7.113282 13.158203 h -20.38867 v -8.294922 h -0.004 V 29.09375 21.980469 13.691406 h 2.64063 V 6.421875 h -28.69141 v 7.269531 h 2.63672 v 8.289063 7.113281 9.841797 h -20.38867 v -8.294922 h -0.004 v -5.34375 -8.285156 h -23.41406 v 8.285156 7.113281 6.525391 h -47.65625 l -7.4336,11.300781 -1.25,1.902344 -7.17578,10.908203 h 0.002 l -4.60743,7.003906 -2.82812,4.296875 v 0.002 h -29.41797 l -19.82617,30.140624 -3.46875,5.27149 v 0.002 h -26.98828 l -18.74024,27.11914 -5.730466,8.29297 v 0.002 H 0 l 46.25,43.35938 12.369141,11.5957 16.800781,15.75196 171.449218,0.13085 -0.45508,-0.13085 H 550.23828 L 519.77734,145.17773 H 489.0957 v -11.60937 -10.9082 -1.90235 -10.99414 H 470.29492 V 98.179688 87.271484 85.367188 74.349609 H 450.63867 V 38.935547 h -6.79883 l 8.26368,-8.294922 7.14843,-7.173828 h 1.51953 c 9.61259,0 17.40625,-7.791749 17.40625,-17.404297 h -12.125 V 0 Z M 270.63672,9.7382812 v 7.2714848 h 28.6914 V 9.7382812 Z"
         transform="matrix(0.26458333,0,0,0.26458333,8.8510414,105.89313)"
         id="path9942"
         inkscape:connector-curvature="0" />
      <path
         inkscape:connector-curvature="0"
         id="path4782"
         style="fill:#ffffff;fill-opacity:1;fill-rule:nonzero;stroke:none;stroke-width:0.72832972"
         d="m 121.53231,120.96366 h -10.97884 l 9.09684,-9.13034 h 10.97884 z" />
      <path
         inkscape:connector-curvature="0"
         id="path4786"
         style="fill:#063a52;fill-opacity:1;fill-rule:nonzero;stroke:none;stroke-width:0.72832972"
         d="m 120.96254,107.49692 c -2.54333,0 -4.60523,2.0619 -4.60523,4.60523 h 14.40636 c 2.54333,0 4.60523,-2.06191 4.60523,-4.60523 v 0 z" />
      <path
         d="m 132.1609,107.49692 h -10.8696 v -1.60379 h 10.8696 z"
         style="fill:#d00c01;fill-opacity:1;fill-rule:nonzero;stroke:none;stroke-width:0.72832972"
         id="path4788"
         inkscape:connector-curvature="0" />
      <g
         id="g4804"
         transform="matrix(0.72832967,0,0,-0.72832967,-17.520318,417.3757)">
        <g
           id="g4802"
           clip-path="url(#clipPath4796)">
          <g
             id="g4800"
             transform="translate(185.3718,416.5361)">
            <path
               inkscape:connector-curvature="0"
               id="path4798"
               style="fill:#e4e5e6;fill-opacity:1;fill-rule:nonzero;stroke:none"
               d="M 0,0 -9.526,-9.561 H 5.548 L 15.074,0 Z" />
          </g>
        </g>
      </g>
      <path
         d="m 110.53096,116.19463 h -6.19517 v -7.55642 h 6.19517 z"
         style="fill:#063a52;fill-opacity:1;fill-rule:nonzero;stroke:none;stroke-width:0.72832972"
         id="path4806"
         inkscape:connector-curvature="0" />
      <path
         d="m 110.53096,112.71321 h -6.19517 v -1.882 h 6.19517 z"
         style="fill:#ffffff;fill-opacity:1;fill-rule:nonzero;stroke:none;stroke-width:0.72832972"
         id="path4808"
         inkscape:connector-curvature="0" />
      <path
         d="m 111.22943,108.63821 h -7.59138 v -1.92352 h 7.59138 z"
         style="fill:#d00c01;fill-opacity:1;fill-rule:nonzero;stroke:none;stroke-width:0.72832972"
         id="path4810"
         inkscape:connector-curvature="0" />
      <path
         d="m 98.940324,117.07227 h -6.195173 v -7.55642 h 6.195173 z"
         style="fill:#063a52;fill-opacity:1;fill-rule:nonzero;stroke:none;stroke-width:0.72832972"
         id="path4812"
         inkscape:connector-curvature="0" />
      <path
         d="m 98.940324,113.59085 h -6.195173 v -1.882 h 6.195173 z"
         style="fill:#ffffff;fill-opacity:1;fill-rule:nonzero;stroke:none;stroke-width:0.72832972"
         id="path4814"
         inkscape:connector-curvature="0" />
      <path
         d="m 99.638793,109.51585 h -7.591381 v -1.92352 h 7.591381 z"
         style="fill:#d00c01;fill-opacity:1;fill-rule:nonzero;stroke:none;stroke-width:0.72832972"
         id="path4816"
         inkscape:connector-curvature="0" />
      <path
         d="m 87.349687,117.95063 h -6.195173 v -7.55642 h 6.195173 z"
         style="fill:#063a52;fill-opacity:1;fill-rule:nonzero;stroke:none;stroke-width:0.72832972"
         id="path4818"
         inkscape:connector-curvature="0" />
      <path
         d="m 87.349687,114.46849 h -6.195173 v -1.88201 h 6.195173 z"
         style="fill:#ffffff;fill-opacity:1;fill-rule:nonzero;stroke:none;stroke-width:0.72832972"
         id="path4820"
         inkscape:connector-curvature="0" />
      <path
         d="m 88.048155,110.39348 h -7.591381 v -1.92351 h 7.591381 z"
         style="fill:#d00c01;fill-opacity:1;fill-rule:nonzero;stroke:none;stroke-width:0.72832972"
         id="path4822"
         inkscape:connector-curvature="0" />
      <path
         inkscape:connector-curvature="0"
         id="path4826"
         style="fill:#063a52;fill-opacity:1;fill-rule:nonzero;stroke:none;stroke-width:0.72832972"
         d="M 8.8510414,144.30458 28.805817,163.01246 H 154.43468 l -8.05898,-18.70788 z" />
      <path
         inkscape:connector-curvature="0"
         id="path4830"
         style="fill:#d00c01;fill-opacity:1;fill-rule:nonzero;stroke:none;stroke-width:0.72832972"
         d="M 24.360459,158.84468 H 152.63971 l -1.32191,-3.06773 H 21.088073 Z" />
      <path
         inkscape:connector-curvature="0"
         id="path4834"
         style="fill:#ffffff;fill-opacity:1;fill-rule:nonzero;stroke:none;stroke-width:0.72832972"
         d="m 34.820366,144.30458 6.47485,-9.36997 h 96.962534 v 9.36997 z" />
      <g
         id="g4850"
         transform="matrix(0.72832967,0,0,-0.72832967,-17.520318,417.3757)">
        <g
           id="g4848"
           clip-path="url(#clipPath4842)">
          <g
             id="g4846"
             transform="translate(213.884,377.9411)">
            <path
               inkscape:connector-curvature="0"
               id="path4844"
               style="fill:#e4e5e6;fill-opacity:1;fill-rule:nonzero;stroke:none"
               d="m 0,0 h -139.938 l -2.082,-3.013 H 0 Z" />
          </g>
        </g>
      </g>
      <path
         inkscape:connector-curvature="0"
         id="path4854"
         style="fill:#ffffff;fill-opacity:1;fill-rule:nonzero;stroke:none;stroke-width:0.72832972"
         d="m 48.435834,134.93463 6.163125,-9.36996 h 78.684371 v 9.36996 z" />
      <g
         id="g4870"
         transform="matrix(0.72832967,0,0,-0.72832967,-17.520318,417.3757)">
        <g
           id="g4868"
           clip-path="url(#clipPath4862)">
          <g
             id="g4866"
             transform="translate(92.5401,390.8061)">
            <path
               inkscape:connector-curvature="0"
               id="path4864"
               style="fill:#e4e5e6;fill-opacity:1;fill-rule:nonzero;stroke:none"
               d="M 0,0 -1.982,-3.013 H 114.514 V 0 Z" />
          </g>
        </g>
      </g>
      <path
         inkscape:connector-curvature="0"
         id="path4874"
         style="fill:#ffffff;fill-opacity:1;fill-rule:nonzero;stroke:none;stroke-width:0.72832972"
         d="m 62.38269,125.56467 6.163125,-9.36997 H 128.0824 v 9.36997 z" />
      <g
         id="g4890"
         transform="matrix(0.72832967,0,0,-0.72832967,-17.520318,417.3757)">
        <g
           id="g4888"
           clip-path="url(#clipPath4882)">
          <g
             id="g4886"
             transform="translate(111.6892,403.6711)">
            <path
               inkscape:connector-curvature="0"
               id="path4884"
               style="fill:#e4e5e6;fill-opacity:1;fill-rule:nonzero;stroke:none"
               d="M 0,0 -1.982,-3.013 H 88.224 V 0 Z" />
          </g>
        </g>
      </g>
      <path
         inkscape:connector-curvature="0"
         id="path4894"
         style="fill:#063a52;fill-opacity:1;fill-rule:nonzero;stroke:none;stroke-width:0.72832972"
         d="M 57.306088,137.84343 H 43.092006 c -0.305171,0 -0.552802,0.24762 -0.552802,0.55281 v 2.28404 c 0,0.30516 0.247631,0.5528 0.552802,0.5528 h 14.214082 c 0.30517,0 0.552801,-0.24764 0.552801,-0.5528 v -2.28404 c 0,-0.30519 -0.247631,-0.55281 -0.552801,-0.55281" />
      <path
         inkscape:connector-curvature="0"
         id="path4898"
         style="fill:#a5a5a5;fill-opacity:1;fill-rule:nonzero;stroke:none;stroke-width:0.72832972"
         d="M 57.306088,137.84343 H 43.092006 c -0.289876,0 -0.525126,0.22359 -0.548433,0.50765 0.01528,-0.001 0.02985,-0.004 0.04515,-0.004 h 14.214082 c 0.305168,0 0.552801,0.24763 0.552801,0.55281 v 2.28404 c 0,0.0145 -0.0029,0.0299 -0.0043,0.0452 0.28405,-0.0233 0.507645,-0.25856 0.507645,-0.54842 v -2.28404 c 0,-0.30519 -0.247631,-0.55281 -0.552801,-0.55281" />
      <path
         inkscape:connector-curvature="0"
         id="path4902"
         style="fill:#063a52;fill-opacity:1;fill-rule:nonzero;stroke:none;stroke-width:0.72832972"
         d="M 72.62825,128.47994 H 58.414168 c -0.30517,0 -0.552801,0.24763 -0.552801,0.55281 v 2.28404 c 0,0.30516 0.247631,0.5528 0.552801,0.5528 H 72.62825 c 0.305171,0 0.552802,-0.24764 0.552802,-0.5528 v -2.28404 c 0,-0.30518 -0.247631,-0.55281 -0.552802,-0.55281" />
      <path
         inkscape:connector-curvature="0"
         id="path4906"
         style="fill:#a5a5a5;fill-opacity:1;fill-rule:nonzero;stroke:none;stroke-width:0.72832972"
         d="M 72.62825,128.47994 H 58.414168 c -0.289876,0 -0.525126,0.22359 -0.548433,0.50766 0.01528,-10e-4 0.02985,-0.004 0.04515,-0.004 h 14.214082 c 0.305168,0 0.552802,0.24762 0.552802,0.5528 v 2.28404 c 0,0.0145 -0.0029,0.0299 -0.0043,0.0452 0.28405,-0.0233 0.507646,-0.25857 0.507646,-0.54843 v -2.28404 c 0,-0.30518 -0.247631,-0.55281 -0.552802,-0.55281" />
      <path
         inkscape:connector-curvature="0"
         id="path4910"
         style="fill:#063a52;fill-opacity:1;fill-rule:nonzero;stroke:none;stroke-width:0.72832972"
         d="M 99.085845,119.18486 H 84.871763 c -0.305171,0 -0.552802,0.24763 -0.552802,0.5528 v 2.28404 c 0,0.30518 0.247631,0.55281 0.552802,0.55281 h 14.214082 c 0.30517,0 0.552801,-0.24763 0.552801,-0.55281 v -2.28404 c 0,-0.30517 -0.247631,-0.5528 -0.552801,-0.5528" />
      <path
         inkscape:connector-curvature="0"
         id="path4914"
         style="fill:#a5a5a5;fill-opacity:1;fill-rule:nonzero;stroke:none;stroke-width:0.72832972"
         d="M 99.085845,119.18486 H 84.871763 c -0.289877,0 -0.525127,0.2236 -0.548433,0.50765 0.01528,-0.001 0.02985,-0.004 0.04515,-0.004 h 14.214082 c 0.305169,0 0.552802,0.24763 0.552802,0.55281 v 2.28404 c 0,0.0144 -0.0029,0.0299 -0.0043,0.0452 0.28405,-0.0233 0.507646,-0.25854 0.507646,-0.54843 v -2.28404 c 0,-0.30517 -0.247631,-0.5528 -0.552802,-0.5528" />
      <path
         inkscape:connector-curvature="0"
         id="path4918"
         style="fill:#063a52;fill-opacity:1;fill-rule:nonzero;stroke:none;stroke-width:0.72832972"
         d="m 121.02197,119.18486 h -14.21408 c -0.30517,0 -0.5528,0.24763 -0.5528,0.5528 v 2.28404 c 0,0.30518 0.24763,0.55281 0.5528,0.55281 h 14.21408 c 0.30517,0 0.5528,-0.24763 0.5528,-0.55281 v -2.28404 c 0,-0.30517 -0.24763,-0.5528 -0.5528,-0.5528" />
      <path
         inkscape:connector-curvature="0"
         id="path4922"
         style="fill:#a5a5a5;fill-opacity:1;fill-rule:nonzero;stroke:none;stroke-width:0.72832972"
         d="m 121.02197,119.18486 h -14.21408 c -0.28988,0 -0.52513,0.2236 -0.54844,0.50765 0.0153,-0.001 0.0299,-0.004 0.0452,-0.004 h 14.21408 c 0.30517,0 0.5528,0.24763 0.5528,0.55281 v 2.28404 c 0,0.0144 -0.003,0.0299 -0.004,0.0452 0.28405,-0.0233 0.50765,-0.25854 0.50765,-0.54843 v -2.28404 c 0,-0.30517 -0.24763,-0.5528 -0.5528,-0.5528" />
      <path
         inkscape:connector-curvature="0"
         id="path4926"
         style="fill:#063a52;fill-opacity:1;fill-rule:nonzero;stroke:none;stroke-width:0.72832972"
         d="M 94.326719,128.47994 H 80.112638 c -0.305171,0 -0.552802,0.24763 -0.552802,0.55281 v 2.28404 c 0,0.30516 0.247631,0.5528 0.552802,0.5528 h 14.214081 c 0.305171,0 0.552802,-0.24764 0.552802,-0.5528 v -2.28404 c 0,-0.30518 -0.247631,-0.55281 -0.552802,-0.55281" />
      <path
         inkscape:connector-curvature="0"
         id="path4930"
         style="fill:#a5a5a5;fill-opacity:1;fill-rule:nonzero;stroke:none;stroke-width:0.72832972"
         d="M 94.326719,128.47994 H 80.112638 c -0.289877,0 -0.525127,0.22359 -0.548433,0.50766 0.01528,-10e-4 0.02985,-0.004 0.04515,-0.004 h 14.214082 c 0.305169,0 0.552802,0.24762 0.552802,0.5528 v 2.28404 c 0,0.0145 -0.0029,0.0299 -0.0043,0.0452 0.28405,-0.0233 0.507646,-0.25857 0.507646,-0.54843 v -2.28404 c 0,-0.30518 -0.247631,-0.55281 -0.552802,-0.55281" />
      <path
         inkscape:connector-curvature="0"
         id="path4934"
         style="fill:#063a52;fill-opacity:1;fill-rule:nonzero;stroke:none;stroke-width:0.72832972"
         d="m 116.02519,128.47994 h -14.21408 c -0.30517,0 -0.5528,0.24763 -0.5528,0.55281 v 2.28404 c 0,0.30516 0.24763,0.5528 0.5528,0.5528 h 14.21408 c 0.30517,0 0.5528,-0.24764 0.5528,-0.5528 v -2.28404 c 0,-0.30518 -0.24763,-0.55281 -0.5528,-0.55281" />
      <path
         inkscape:connector-curvature="0"
         id="path4938"
         style="fill:#a5a5a5;fill-opacity:1;fill-rule:nonzero;stroke:none;stroke-width:0.72832972"
         d="m 116.02519,128.47994 h -14.21408 c -0.28988,0 -0.52513,0.22359 -0.54843,0.50766 0.0153,-10e-4 0.0298,-0.004 0.0451,-0.004 h 14.21409 c 0.30516,0 0.5528,0.24762 0.5528,0.5528 v 2.28404 c 0,0.0145 -0.003,0.0299 -0.004,0.0452 0.28405,-0.0233 0.50765,-0.25857 0.50765,-0.54843 v -2.28404 c 0,-0.30518 -0.24763,-0.55281 -0.5528,-0.55281" />
      <path
         inkscape:connector-curvature="0"
         id="path4942"
         style="fill:#063a52;fill-opacity:1;fill-rule:nonzero;stroke:none;stroke-width:0.72832972"
         d="M 78.739736,137.84343 H 64.525654 c -0.30517,0 -0.552801,0.24762 -0.552801,0.55281 v 2.28404 c 0,0.30516 0.247631,0.5528 0.552801,0.5528 h 14.214082 c 0.305171,0 0.552802,-0.24764 0.552802,-0.5528 v -2.28404 c 0,-0.30519 -0.247631,-0.55281 -0.552802,-0.55281" />
      <path
         inkscape:connector-curvature="0"
         id="path4946"
         style="fill:#a5a5a5;fill-opacity:1;fill-rule:nonzero;stroke:none;stroke-width:0.72832972"
         d="M 78.739736,137.84343 H 64.525654 c -0.289876,0 -0.525126,0.22359 -0.548433,0.50765 0.01528,-0.001 0.02985,-0.004 0.04515,-0.004 h 14.214082 c 0.305168,0 0.552802,0.24763 0.552802,0.55281 v 2.28404 c 0,0.0145 -0.0029,0.0299 -0.0043,0.0452 0.28405,-0.0233 0.507646,-0.25856 0.507646,-0.54842 v -2.28404 c 0,-0.30519 -0.247631,-0.55281 -0.552802,-0.55281" />
      <path
         inkscape:connector-curvature="0"
         id="path4950"
         style="fill:#063a52;fill-opacity:1;fill-rule:nonzero;stroke:none;stroke-width:0.72832972"
         d="M 100.17331,137.84343 H 85.959233 c -0.305171,0 -0.552802,0.24762 -0.552802,0.55281 v 2.28404 c 0,0.30516 0.247631,0.5528 0.552802,0.5528 h 14.214077 c 0.30517,0 0.55281,-0.24764 0.55281,-0.5528 v -2.28404 c 0,-0.30519 -0.24764,-0.55281 -0.55281,-0.55281" />
      <path
         inkscape:connector-curvature="0"
         id="path4954"
         style="fill:#a5a5a5;fill-opacity:1;fill-rule:nonzero;stroke:none;stroke-width:0.72832972"
         d="M 100.17331,137.84343 H 85.959233 c -0.289877,0 -0.525127,0.22359 -0.548433,0.50765 0.01528,-0.001 0.02985,-0.004 0.04515,-0.004 h 14.214082 c 0.305168,0 0.552808,0.24763 0.552808,0.55281 v 2.28404 c 0,0.0145 -0.003,0.0299 -0.004,0.0452 0.28405,-0.0233 0.50765,-0.25856 0.50765,-0.54842 v -2.28404 c 0,-0.30519 -0.24764,-0.55281 -0.55281,-0.55281" />
      <path
         inkscape:connector-curvature="0"
         id="path4958"
         style="fill:#063a52;fill-opacity:1;fill-rule:nonzero;stroke:none;stroke-width:0.72832972"
         d="m 121.60696,137.84343 h -14.21408 c -0.30517,0 -0.5528,0.24762 -0.5528,0.55281 v 2.28404 c 0,0.30516 0.24763,0.5528 0.5528,0.5528 h 14.21408 c 0.30517,0 0.5528,-0.24764 0.5528,-0.5528 v -2.28404 c 0,-0.30519 -0.24763,-0.55281 -0.5528,-0.55281" />
      <path
         inkscape:connector-curvature="0"
         id="path4962"
         style="fill:#a5a5a5;fill-opacity:1;fill-rule:nonzero;stroke:none;stroke-width:0.72832972"
         d="m 121.60696,137.84343 h -14.21408 c -0.28987,0 -0.52512,0.22359 -0.54843,0.50765 0.0153,-0.001 0.0299,-0.004 0.0452,-0.004 h 14.21408 c 0.30517,0 0.5528,0.24763 0.5528,0.55281 v 2.28404 c 0,0.0145 -0.003,0.0299 -0.004,0.0452 0.28405,-0.0233 0.50764,-0.25856 0.50764,-0.54842 v -2.28404 c 0,-0.30519 -0.24763,-0.55281 -0.5528,-0.55281" />
      <path
         inkscape:connector-curvature="0"
         id="path4966"
         style="fill:#063a52;fill-opacity:1;fill-rule:nonzero;stroke:none;stroke-width:0.72832972"
         d="m 138.25775,137.84343 h -9.43114 c -0.30517,0 -0.55281,0.24762 -0.55281,0.55281 v 2.28404 c 0,0.30516 0.24764,0.5528 0.55281,0.5528 h 9.43114 z" />
      <path
         inkscape:connector-curvature="0"
         id="path4970"
         style="fill:#a5a5a5;fill-opacity:1;fill-rule:nonzero;stroke:none;stroke-width:0.72832972"
         d="m 138.25775,137.84343 h -9.43114 c -0.28988,0 -0.52513,0.22359 -0.54844,0.50765 0.0153,-0.001 0.0299,-0.004 0.0452,-0.004 h 9.93441 z" />
      <path
         inkscape:connector-curvature="0"
         id="path4974"
         style="fill:#063a52;fill-opacity:1;fill-rule:nonzero;stroke:none;stroke-width:0.72832972"
         d="M 77.149792,119.18486 H 66.578815 l -2.229416,3.38965 h 12.800393 c 0.305171,0 0.552802,-0.24763 0.552802,-0.55281 v -2.28404 c 0,-0.30517 -0.247631,-0.5528 -0.552802,-0.5528" />
      <path
         inkscape:connector-curvature="0"
         id="path4978"
         style="fill:#a5a5a5;fill-opacity:1;fill-rule:nonzero;stroke:none;stroke-width:0.72832972"
         d="M 77.149792,119.18486 H 66.578815 l -0.330662,0.50328 h 10.398364 c 0.305169,0 0.552802,0.24763 0.552802,0.5528 v 2.28404 c 0,0.0144 -0.0029,0.0299 -0.0043,0.0452 0.28405,-0.0233 0.507646,-0.25854 0.507646,-0.54843 v -2.28404 c 0,-0.30517 -0.247631,-0.5528 -0.552802,-0.5528" />
      <path
         inkscape:connector-curvature="0"
         id="path4982"
         style="fill:#063a52;fill-opacity:1;fill-rule:nonzero;stroke:none;stroke-width:0.72832972"
         d="m 133.2834,128.47994 h -9.77419 c -0.30517,0 -0.5528,0.24763 -0.5528,0.55281 v 2.28404 c 0,0.30516 0.24763,0.5528 0.5528,0.5528 h 9.77419 z" />
      <path
         inkscape:connector-curvature="0"
         id="path4986"
         style="fill:#a5a5a5;fill-opacity:1;fill-rule:nonzero;stroke:none;stroke-width:0.72832972"
         d="m 133.2834,128.47994 h -9.77419 c -0.28987,0 -0.52439,0.22359 -0.5477,0.50766 0.0147,-10e-4 0.0291,-0.004 0.0451,-0.004 h 10.27673 z" />
      <g
         id="g5000"
         transform="matrix(0.72832967,0,0,-0.72832967,-17.520318,417.3757)">
        <g
           id="g4998"
           clip-path="url(#clipPath4994)">
          <path
             inkscape:connector-curvature="0"
             id="path4996"
             style="fill:#e4e5e6;fill-opacity:1;fill-rule:nonzero;stroke:none"
             d="m 167.309,413.523 h 8.506 v 3.013 h -8.506 z" />
        </g>
      </g>
      <g
         id="g5014"
         transform="matrix(0.72832967,0,0,-0.72832967,-17.520318,417.3757)">
        <g
           id="g5012"
           clip-path="url(#clipPath5008)">
          <path
             inkscape:connector-curvature="0"
             id="path5010"
             style="fill:#e4e5e6;fill-opacity:1;fill-rule:nonzero;stroke:none"
             d="m 151.396,413.523 h 8.506 v 3.013 h -8.506 z" />
        </g>
      </g>
      <g
         id="g5028"
         transform="matrix(0.72832967,0,0,-0.72832967,-17.520318,417.3757)">
        <g
           id="g5026"
           clip-path="url(#clipPath5022)">
          <path
             inkscape:connector-curvature="0"
             id="path5024"
             style="fill:#e4e5e6;fill-opacity:1;fill-rule:nonzero;stroke:none"
             d="m 135.482,413.523 h 8.506 v 3.013 h -8.506 z" />
        </g>
      </g>
      <g
         id="g5044"
         transform="matrix(0.72832967,0,0,-0.72832967,-17.520318,417.3757)">
        <g
           id="g5042"
           clip-path="url(#clipPath5036)">
          <g
             id="g5040"
             transform="translate(36.208,374.9279)">
            <path
               inkscape:connector-curvature="0"
               id="path5038"
               style="fill:#babcbe;fill-opacity:1;fill-rule:nonzero;stroke:none"
               d="m 0,0 89.681,-25.734 -62.283,0.048 z" />
          </g>
        </g>
      </g>
      <g
         id="g4589">
        <path
           d="m 27.406989,151.89967 c -1.047337,0 -1.899483,-0.85214 -1.899483,-1.89947 0,-1.04735 0.852146,-1.8995 1.899483,-1.8995 1.047337,0 1.899483,0.85215 1.899483,1.8995 0,1.04733 -0.852146,1.89947 -1.899483,1.89947 m 0,-5.23668 c -1.840488,0 -3.337207,1.49672 -3.337207,3.33721 0,1.83975 1.496719,3.33719 3.337207,3.33719 1.839762,0 3.337207,-1.49744 3.337207,-3.33719 0,-1.84049 -1.497445,-3.33721 -3.337207,-3.33721"
           style="fill:#ffffff;fill-opacity:1;fill-rule:nonzero;stroke:none;stroke-width:0.72832972"
           id="path5048"
           inkscape:connector-curvature="0" />
        <path
           d="m 26.244792,146.87209 0.385286,1.39547 c 0.237436,-0.10715 0.500364,-0.16681 0.777128,-0.16681 0.276037,0 0.538965,0.0597 0.776399,0.16681 l 0.385288,-1.39547 c -0.361981,-0.13482 -0.753093,-0.20904 -1.161687,-0.20904 -0.408592,0 -0.800433,0.0743 -1.162414,0.20904"
           style="fill:#d00c01;fill-opacity:1;fill-rule:nonzero;stroke:none;stroke-width:0.72832972"
           id="path5052"
           inkscape:connector-curvature="0" />
        <path
           d="m 28.569111,153.12823 -0.385285,-1.39547 c -0.237436,0.10715 -0.500364,0.16681 -0.777128,0.16681 -0.276037,0 -0.538965,-0.0597 -0.776399,-0.16681 l -0.385288,1.39547 c 0.361981,0.13482 0.753093,0.20904 1.161687,0.20904 0.408592,0 0.800433,-0.0743 1.162413,-0.20904"
           style="fill:#d00c01;fill-opacity:1;fill-rule:nonzero;stroke:none;stroke-width:0.72832972"
           id="path5056"
           inkscape:connector-curvature="0" />
        <path
           d="m 29.306546,150.0002 c 0,0.27677 -0.05973,0.53897 -0.166795,0.7764 l 1.395479,0.38601 c 0.134733,-0.3627 0.20903,-0.75381 0.20903,-1.16241 0,-0.4086 -0.07428,-0.79971 -0.20903,-1.16241 l -1.395479,0.38601 c 0.107068,0.2367 0.166795,0.49963 0.166795,0.7764"
           style="fill:#d00c01;fill-opacity:1;fill-rule:nonzero;stroke:none;stroke-width:0.72832972"
           id="path5060"
           inkscape:connector-curvature="0" />
        <path
           d="m 25.507432,150.0002 c 0,-0.27677 0.05973,-0.5397 0.166795,-0.7764 l -1.395479,-0.38601 c -0.134733,0.3627 -0.20903,0.75381 -0.20903,1.16241 0,0.4086 0.07428,0.79971 0.20903,1.16241 l 1.395479,-0.38601 c -0.107068,-0.23743 -0.166795,-0.49963 -0.166795,-0.7764"
           style="fill:#d00c01;fill-opacity:1;fill-rule:nonzero;stroke:none;stroke-width:0.72832972"
           id="path5064"
           inkscape:connector-curvature="0" />
      </g>
    </g>
</svg>
