<?xml version="1.0" encoding="UTF-8" standalone="no"?>
<!-- Created with Inkscape (http://www.inkscape.org/) -->

<svg
   xmlns:dc="http://purl.org/dc/elements/1.1/"
   xmlns:cc="http://creativecommons.org/ns#"
   xmlns:rdf="http://www.w3.org/1999/02/22-rdf-syntax-ns#"
   xmlns:svg="http://www.w3.org/2000/svg"
   xmlns="http://www.w3.org/2000/svg"
   xmlns:sodipodi="http://sodipodi.sourceforge.net/DTD/sodipodi-0.dtd"
   xmlns:inkscape="http://www.inkscape.org/namespaces/inkscape"
   width="147.77345mm"
   height="59.343742mm"
   viewBox="0 0 147.77345 59.343743"
   version="1.1"
   id="svg9108"
   sodipodi:docname="11.svg"
   inkscape:version="0.92.1 r15371">
  <a href="../contenido/pag5.html" target="iframe"><defs
     id="defs95">
    <clipPath
       id="clipPath4622"
       clipPathUnits="userSpaceOnUse">
      <path
         inkscape:connector-curvature="0"
         id="path4620"
         d="m 309.511,247.825 h 113.998 v -3.013 H 309.511 Z" />
    </clipPath>
    <clipPath
       id="clipPath4694"
       clipPathUnits="userSpaceOnUse">
      <path
         inkscape:connector-curvature="0"
         id="path4692"
         d="M 268.03,242.673 H 447.915 V 223.419 H 268.03 Z" />
    </clipPath>
    <clipPath
       id="clipPath4770"
       clipPathUnits="userSpaceOnUse">
      <path
         inkscape:connector-curvature="0"
         id="path4768"
         d="m 334.771,269.219 h 22.75 v -3.014 h -22.75 z" />
    </clipPath>
    <defs
       id="defs105">
      <clipPath
         clipPathUnits="userSpaceOnUse"
         id="clipPath5254">
        <path
           d="m 84.767,104.272 h 137.666 v -3.013 H 84.767 Z"
           id="path5252"
           inkscape:connector-curvature="0" />
      </clipPath>
      <clipPath
         clipPathUnits="userSpaceOnUse"
         id="clipPath5268">
        <path
           d="m 122.833,125.745 h 87.269 v -3.014 h -87.269 z"
           id="path5266"
           inkscape:connector-curvature="0" />
      </clipPath>
      <clipPath
         clipPathUnits="userSpaceOnUse"
         id="clipPath5282">
        <path
           d="m 189.943,147.292 h 8.506 v -3.013 h -8.506 z"
           id="path5280"
           inkscape:connector-curvature="0" />
      </clipPath>
      <defs
         id="defs9102">
        <clipPath
           id="clipPath4796"
           clipPathUnits="userSpaceOnUse">
          <path
             inkscape:connector-curvature="0"
             id="path4794"
             d="m 175.845,416.536 h 24.601 v -9.561 h -24.601 z" />
        </clipPath>
        <clipPath
           id="clipPath4842"
           clipPathUnits="userSpaceOnUse">
          <path
             inkscape:connector-curvature="0"
             id="path4840"
             d="m 71.864,377.941 h 142.02 v -3.013 H 71.864 Z" />
        </clipPath>
        <clipPath
           id="clipPath4862"
           clipPathUnits="userSpaceOnUse">
          <path
             inkscape:connector-curvature="0"
             id="path4860"
             d="M 90.5581,390.806 H 207.054 v -3.013 H 90.5581 Z" />
        </clipPath>
        <clipPath
           id="clipPath4882"
           clipPathUnits="userSpaceOnUse">
          <path
             inkscape:connector-curvature="0"
             id="path4880"
             d="m 109.707,403.671 h 90.207 v -3.013 h -90.207 z" />
        </clipPath>
        <clipPath
           id="clipPath4994"
           clipPathUnits="userSpaceOnUse">
          <path
             inkscape:connector-curvature="0"
             id="path4992"
             d="m 167.309,416.536 h 8.506 v -3.013 h -8.506 z" />
        </clipPath>
        <clipPath
           id="clipPath5008"
           clipPathUnits="userSpaceOnUse">
          <path
             inkscape:connector-curvature="0"
             id="path5006"
             d="m 151.396,416.536 h 8.505 v -3.013 h -8.505 z" />
        </clipPath>
        <clipPath
           id="clipPath5022"
           clipPathUnits="userSpaceOnUse">
          <path
             inkscape:connector-curvature="0"
             id="path5020"
             d="m 135.482,416.536 h 8.505 v -3.013 h -8.505 z" />
        </clipPath>
        <clipPath
           id="clipPath5036"
           clipPathUnits="userSpaceOnUse">
          <path
             inkscape:connector-curvature="0"
             id="path5034"
             d="m 36.208,374.928 h 89.681 V 349.194 H 36.208 Z" />
        </clipPath>
        <filter
           inkscape:collect="always"
           style="color-interpolation-filters:sRGB"
           id="filter10233"
           x="-0.0075199637"
           width="1.0150399"
           y="-0.019154953"
           height="1.0383099">
          <feGaussianBlur
             inkscape:collect="always"
             stdDeviation="1.7240716"
             id="feGaussianBlur10235" />
        </filter>
      </defs>
      <sodipodi:namedview
         id="base"
         pagecolor="#ffffff"
         bordercolor="#666666"
         borderopacity="1.0"
         inkscape:pageopacity="0.0"
         inkscape:pageshadow="2"
         inkscape:zoom="0.98994949"
         inkscape:cx="221.44688"
         inkscape:cy="146.98327"
         inkscape:document-units="mm"
         inkscape:current-layer="layer1"
         showgrid="false"
         fit-margin-top="0"
         fit-margin-left="0"
         fit-margin-right="0"
         fit-margin-bottom="0"
         inkscape:window-width="1920"
         inkscape:window-height="1057"
         inkscape:window-x="-8"
         inkscape:window-y="-8"
         inkscape:window-maximized="1" />
    </defs>
    <sodipodi:namedview
       inkscape:current-layer="svg9108"
       inkscape:window-maximized="1"
       inkscape:window-y="-8"
       inkscape:window-x="-8"
       inkscape:cy="193.31749"
       inkscape:cx="390.01218"
       inkscape:zoom="1.3571732"
       showgrid="false"
       id="namedview103"
       inkscape:window-height="1057"
       inkscape:window-width="1920"
       inkscape:pageshadow="2"
       inkscape:pageopacity="0"
       guidetolerance="10"
       gridtolerance="10"
       objecttolerance="10"
       borderopacity="1"
       bordercolor="#666666"
       pagecolor="#ffffff" />
  </defs>
  <sodipodi:namedview
     pagecolor="#ffffff"
     bordercolor="#666666"
     borderopacity="1"
     objecttolerance="10"
     gridtolerance="10"
     guidetolerance="10"
     inkscape:pageopacity="0"
     inkscape:pageshadow="2"
     inkscape:window-width="1920"
     inkscape:window-height="1057"
     id="namedview93"
     showgrid="false"
     inkscape:zoom="0.67858659"
     inkscape:cx="73.682564"
     inkscape:cy="112.14565"
     inkscape:window-x="-8"
     inkscape:window-y="-8"
     inkscape:window-maximized="1"
     inkscape:current-layer="svg9108" />
  <metadata
     id="metadata107">
    <rdf:RDF>
      <cc:Work
         rdf:about="">
        <dc:format>image/svg+xml</dc:format>
        <dc:type
           rdf:resource="http://purl.org/dc/dcmitype/StillImage" />
      </cc:Work>
    </rdf:RDF>
  </metadata>
  <g
     inkscape:label="Capa 1"
     inkscape:groupmode="layer"
     id="layer1"
     transform="translate(-7.7562559,-104.79834)" />
  <g
     id="g5296"
     transform="translate(6.4957734,72.70783)">
    <path
       id="path4885"
       transform="scale(0.26458333)"
       d="m 353.97461,-252.94336 c -1.84667,0 -3.3418,1.49768 -3.3418,3.3418 v 1.60742 h -17.36914 v 4.30664 h 17.36914 v 7.50391 h -8.2832 v 4.30859 h 8.2832 v 7.50391 h -17.36914 v 4.30664 h 17.36914 v 11.04297 h -88.39843 v -7.51758 -20.16797 h 6.01367 v -8.0293 h -19.30078 v -7.77148 h -30.20118 v 7.77148 h -19.29882 v 8.0293 h 6.01757 v 27.68555 h -23.9375 l -26.33203,35.95312 H 65.507812 l -2.53125,-35.95117 -3.761718,53.38476 -9.96875,6.27735 -10.330078,6.5039 -0.002,0.002 c 0,0 19.447372,8.07593 38.416016,25.71094 2.889282,2.68581 5.764075,5.59847 8.560547,8.73242 0.255563,0.28659 0.511478,0.57288 0.765625,0.86328 0.525355,0.59989 1.04781,1.20805 1.566406,1.82422 0.317461,0.37746 0.630671,0.76288 0.945313,1.14648 0.498968,0.60788 0.999065,1.21455 1.490234,1.83789 0.606522,0.77033 1.203726,1.55556 1.796875,2.34961 0.4291,0.573987 0.85012,1.159643 1.271484,1.746095 0.483849,0.673937 0.966683,1.350566 1.439454,2.041016 0.32687,0.477029 0.647554,0.962312 0.96875,1.447265 0.438476,0.662487 0.871609,1.332463 1.298828,2.009766 0.40523,0.642034 0.812621,1.28207 1.207031,1.9375 0.04351,0.07236 0.08748,0.144278 0.130859,0.216797 0.599401,1.001472 1.185705,2.017996 1.757812,3.050781 0.0125,0.02261 0.0246,0.04573 0.0371,0.06836 0.52633,0.951828 1.03786,1.919883 1.53906,2.898438 0.0765,0.149432 0.15457,0.297211 0.23047,0.447265 0.49716,0.982584 0.98128,1.978795 1.45117,2.988282 0.0869,0.186777 0.16992,0.376755 0.25586,0.564453 0.42916,0.937021 0.84789,1.883625 1.25195,2.84375 0.046,0.10938 0.0949,0.216492 0.14063,0.326172 0.43889,1.05345 0.85881,2.123797 1.26562,3.205078 0.0722,0.19186 0.14176,0.38539 0.21289,0.578125 0.40739,1.103773 0.80388,2.216903 1.17578,3.349609 h 409.04493 l 12.78125,-36.089842 -11.30664,-15.30469 h -45.3125 l -24.5879,-33.57227 H 426.9043 l -5.50782,-7.51953 -33.59375,-45.86718 h -30.48632 v -11.04297 h 8.52148 v -4.30664 h -8.52148 v -7.50391 h 17.60742 v -4.30859 h -17.60742 v -7.50391 h 8.52148 v -4.30664 h -8.52148 v -1.60742 c 0,-1.84412 -1.49513,-3.3418 -3.3418,-3.3418 z m -288.25586,82.88281 h 11.857422 v 14.42578 H 66.734375 Z m 14.863281,0 h 13.535157 v 14.42578 H 80.582031 Z m 16.542969,0 h 13.53516 v 14.42578 H 97.125 Z m 16.54297,0 h 13.53515 v 14.42578 h -13.53515 z m 16.54101,0 h 13.53516 v 12.62891 l -1.31641,1.79687 h -12.21875 z m 16.54297,0 h 6.24024 l -6.24024,8.52149 z m 328.7461,51.00391 h 9.10547 v 12.29687 h -0.0977 l -5.50781,-7.51953 z m 12.11133,0 h 10.5 v 12.29687 h -10.5 z m 13.50585,0 h 10.50196 v 12.29687 h -10.50196 z m 13.50782,0 h 2.46679 l 9.07032,12.29687 h -11.53711 z"
       style="opacity:0.87900002;vector-effect:none;fill:#eaeaea;fill-opacity:1;fill-rule:nonzero;stroke:none;stroke-width:2.75274229;stroke-linecap:butt;stroke-linejoin:miter;stroke-miterlimit:4;stroke-dasharray:none;stroke-dashoffset:0;stroke-opacity:1;filter:url(#filter10233)"
       inkscape:connector-curvature="0" />
    <path
       d="m 17.059898,-41.178316 h -0.795613 v -4.612553 h 26.940402 v 0.795613 H 17.059898 Z"
       style="fill:#ffffff;fill-opacity:1;fill-rule:nonzero;stroke:none;stroke-width:0.66025549"
       id="path4510"
       inkscape:connector-curvature="0" />
    <path
       inkscape:connector-curvature="0"
       id="path4512"
       style="fill:#ffffff;fill-opacity:1;fill-rule:nonzero;stroke:none;stroke-width:0.66025549"
       d="M 21.320723,-41.178316 H 20.52511 v -4.215065 h 0.795613 z" />
    <path
       inkscape:connector-curvature="0"
       id="path4514"
       style="fill:#ffffff;fill-opacity:1;fill-rule:nonzero;stroke:none;stroke-width:0.66025549"
       d="m 25.69755,-41.178316 h -0.795595 v -4.215065 h 0.795595 z" />
    <path
       inkscape:connector-curvature="0"
       id="path4516"
       style="fill:#ffffff;fill-opacity:1;fill-rule:nonzero;stroke:none;stroke-width:0.66025549"
       d="m 30.074395,-41.178316 h -0.795613 v -4.215065 h 0.795613 z" />
    <path
       inkscape:connector-curvature="0"
       id="path4518"
       style="fill:#ffffff;fill-opacity:1;fill-rule:nonzero;stroke:none;stroke-width:0.66025549"
       d="m 34.451221,-41.178316 h -0.795613 v -4.215065 h 0.795613 z" />
    <path
       inkscape:connector-curvature="0"
       id="path4520"
       style="fill:#ffffff;fill-opacity:1;fill-rule:nonzero;stroke:none;stroke-width:0.66025549"
       d="m 38.828066,-41.178316 h -0.795613 v -4.215065 h 0.795613 z" />
    <path
       d="m 15.667285,-41.178316 0.995012,-14.124836 0.994339,14.124836 z"
       style="fill:#063a52;fill-opacity:1;fill-rule:nonzero;stroke:none;stroke-width:0.66025549"
       id="path4524"
       inkscape:connector-curvature="0" />
    <path
       d="M 102.60636,-55.303433 H 48.028992 l -10.344898,14.124837 h 75.267146 z"
       style="fill:#ffffff;fill-opacity:1;fill-rule:nonzero;stroke:none;stroke-width:0.66025549"
       id="path4528"
       inkscape:connector-curvature="0" />
    <path
       d="m 93.655671,-66.924456 c -0.488597,0 -0.884083,0.39616 -0.884083,0.884083 v 10.737071 h 1.768166 v -10.737071 c 0,-0.487923 -0.395486,-0.884083 -0.884083,-0.884083"
       style="fill:#063a52;fill-opacity:1;fill-rule:nonzero;stroke:none;stroke-width:0.66025549"
       id="path4540"
       inkscape:connector-curvature="0" />
    <path
       inkscape:connector-curvature="0"
       id="path4542"
       style="fill:#d00c01;fill-opacity:1;fill-rule:nonzero;stroke:none;stroke-width:0.66025549"
       d="m 99.198517,-61.350448 h -8.618318 v -1.139593 h 8.618318 z" />
    <path
       inkscape:connector-curvature="0"
       id="path4544"
       style="fill:#d00c01;fill-opacity:1;fill-rule:nonzero;stroke:none;stroke-width:0.66025549"
       d="m 96.794534,-58.225454 h -8.618318 v -1.139611 h 8.618318 z" />
    <path
       inkscape:connector-curvature="0"
       id="path4546"
       style="fill:#d00c01;fill-opacity:1;fill-rule:nonzero;stroke:none;stroke-width:0.66025549"
       d="m 96.794534,-64.475443 h -8.618318 v -1.139592 h 8.618318 z" />
    <path
       inkscape:connector-curvature="0"
       id="path4548"
       style="fill:#ffffff;fill-opacity:1;fill-rule:nonzero;stroke:none;stroke-width:0.66025549"
       d="M 69.382697,-55.303171 H 54.362548 v -7.325536 h 15.020149 z" />
    <path
       inkscape:connector-curvature="0"
       id="path4550"
       style="fill:#d00c01;fill-opacity:1;fill-rule:nonzero;stroke:none;stroke-width:0.66025549"
       d="M 70.973923,-62.628707 H 52.770666 v -2.124685 h 18.203257 z" />
    <path
       d="m 69.626659,-51.724709 h -3.605002 c -0.481972,0 -0.872853,0.390863 -0.872853,0.872854 v 3.605001 c 0,0.481991 0.390881,0.872854 0.872853,0.872854 h 3.605002 c 0.48199,0 0.872853,-0.390863 0.872853,-0.872854 v -3.605001 c 0,-0.481991 -0.390863,-0.872854 -0.872853,-0.872854"
       style="fill:#063a52;fill-opacity:1;fill-rule:nonzero;stroke:none;stroke-width:0.66025549"
       id="path4554"
       inkscape:connector-curvature="0" />
    <path
       d="m 69.626659,-51.724709 h -3.605002 c -0.457547,0 -0.828609,0.353244 -0.865591,0.801546 0.02377,-0.0019 0.04679,-0.0075 0.07131,-0.0075 h 3.605001 c 0.481991,0 0.872854,0.390881 0.872854,0.872853 v 3.605002 c 0,0.02433 -0.0056,0.04754 -0.0075,0.07131 0.44832,-0.03706 0.801546,-0.408044 0.801546,-0.865592 v -3.605001 c 0,-0.481991 -0.390863,-0.872853 -0.872854,-0.872853"
       style="fill:#a5a5a5;fill-opacity:1;fill-rule:nonzero;stroke:none;stroke-width:0.66025549"
       id="path4558"
       inkscape:connector-curvature="0" />
    <path
       d="m 62.328467,-61.881231 h -6.704898 c -0.27664,0 -0.501137,0.224478 -0.501137,0.501137 v 2.070559 c 0,0.27664 0.224497,0.501137 0.501137,0.501137 h 6.704898 c 0.27664,0 0.501137,-0.224497 0.501137,-0.501137 v -2.070559 c 0,-0.276659 -0.224497,-0.501137 -0.501137,-0.501137"
       style="fill:#063a52;fill-opacity:1;fill-rule:nonzero;stroke:none;stroke-width:0.66025549"
       id="path4562"
       inkscape:connector-curvature="0" />
    <path
       d="m 62.328467,-61.881231 h -6.704898 c -0.262771,0 -0.476039,0.202693 -0.497169,0.460205 0.0131,-0.0013 0.02714,-0.0037 0.04099,-0.0037 h 6.704897 c 0.27664,0 0.501137,0.224479 0.501137,0.501137 v 2.070559 c 0,0.0131 -0.0019,0.02714 -0.0037,0.04099 0.257512,-0.02115 0.460206,-0.234398 0.460206,-0.497169 v -2.070559 c 0,-0.276659 -0.224498,-0.501137 -0.501138,-0.501137"
       style="fill:#a5a5a5;fill-opacity:1;fill-rule:nonzero;stroke:none;stroke-width:0.66025549"
       id="path4566"
       inkscape:connector-curvature="0" />
    <path
       d="m 67.12,-61.881231 h -2.311545 c -0.276658,0 -0.501137,0.224478 -0.501137,0.501137 v 2.070559 c 0,0.27664 0.224479,0.501137 0.501137,0.501137 H 67.12 c 0.27664,0 0.501137,-0.224497 0.501137,-0.501137 v -2.070559 c 0,-0.276659 -0.224497,-0.501137 -0.501137,-0.501137"
       style="fill:#063a52;fill-opacity:1;fill-rule:nonzero;stroke:none;stroke-width:0.66025549"
       id="path4570"
       inkscape:connector-curvature="0" />
    <path
       d="m 67.12,-61.881231 h -2.311545 c -0.26279,0 -0.476058,0.202693 -0.497188,0.460205 0.0131,-0.0013 0.02714,-0.0037 0.04099,-0.0037 H 66.6638 c 0.27664,0 0.501137,0.224479 0.501137,0.501137 v 2.070559 c 0,0.0131 -0.0019,0.02714 -0.0037,0.04099 0.257512,-0.02115 0.460205,-0.234398 0.460205,-0.497169 v -2.070559 c 0,-0.276659 -0.224497,-0.501137 -0.501137,-0.501137"
       style="fill:#a5a5a5;fill-opacity:1;fill-rule:nonzero;stroke:none;stroke-width:0.66025549"
       id="path4574"
       inkscape:connector-curvature="0" />
    <path
       d="m 51.566635,-51.728284 h -3.605002 c -0.481971,0 -0.872853,0.390863 -0.872853,0.872854 v 3.605001 c 0,0.481991 0.390882,0.872854 0.872853,0.872854 h 3.605002 c 0.48199,0 0.872853,-0.390863 0.872853,-0.872854 v -3.605001 c 0,-0.481991 -0.390863,-0.872854 -0.872853,-0.872854"
       style="fill:#063a52;fill-opacity:1;fill-rule:nonzero;stroke:none;stroke-width:0.66025549"
       id="path4578"
       inkscape:connector-curvature="0" />
    <path
       d="m 51.566635,-51.728284 h -3.605002 c -0.457547,0 -0.828609,0.353244 -0.865591,0.801546 0.02377,-0.0019 0.04679,-0.0075 0.07131,-0.0075 h 3.605002 c 0.48199,0 0.872853,0.390882 0.872853,0.872854 v 3.605001 c 0,0.02433 -0.0056,0.04754 -0.0075,0.07131 0.448321,-0.03706 0.801546,-0.408045 0.801546,-0.865592 v -3.605002 c 0,-0.48199 -0.390863,-0.872853 -0.872854,-0.872853"
       style="fill:#a5a5a5;fill-opacity:1;fill-rule:nonzero;stroke:none;stroke-width:0.66025549"
       id="path4582"
       inkscape:connector-curvature="0" />
    <path
       d="m 77.58453,-51.724709 h -3.605001 c -0.481972,0 -0.872854,0.390863 -0.872854,0.872854 v 3.605001 c 0,0.481991 0.390882,0.872854 0.872854,0.872854 h 3.605001 c 0.481991,0 0.872854,-0.390863 0.872854,-0.872854 v -3.605001 c 0,-0.481991 -0.390863,-0.872854 -0.872854,-0.872854"
       style="fill:#063a52;fill-opacity:1;fill-rule:nonzero;stroke:none;stroke-width:0.66025549"
       id="path4586"
       inkscape:connector-curvature="0" />
    <path
       d="m 77.58453,-51.724709 h -3.605001 c -0.457548,0 -0.828609,0.353244 -0.865592,0.801546 0.02377,-0.0019 0.04679,-0.0075 0.07131,-0.0075 h 3.605002 c 0.48199,0 0.872853,0.390881 0.872853,0.872853 v 3.605002 c 0,0.02433 -0.0056,0.04754 -0.0075,0.07131 0.448321,-0.03706 0.801546,-0.408044 0.801546,-0.865592 v -3.605001 c 0,-0.481991 -0.390863,-0.872853 -0.872854,-0.872853"
       style="fill:#a5a5a5;fill-opacity:1;fill-rule:nonzero;stroke:none;stroke-width:0.66025549"
       id="path4590"
       inkscape:connector-curvature="0" />
    <path
       d="m 85.542327,-51.724709 h -3.605002 c -0.481972,0 -0.872853,0.390863 -0.872853,0.872854 v 3.605001 c 0,0.481991 0.390881,0.872854 0.872853,0.872854 h 3.605002 c 0.48199,0 0.872853,-0.390863 0.872853,-0.872854 v -3.605001 c 0,-0.481991 -0.390863,-0.872854 -0.872853,-0.872854"
       style="fill:#063a52;fill-opacity:1;fill-rule:nonzero;stroke:none;stroke-width:0.66025549"
       id="path4594"
       inkscape:connector-curvature="0" />
    <path
       d="m 85.542327,-51.724709 h -3.605002 c -0.457547,0 -0.828609,0.353244 -0.865592,0.801546 0.02377,-0.0019 0.04679,-0.0075 0.07131,-0.0075 h 3.605001 c 0.481991,0 0.872854,0.390881 0.872854,0.872853 v 3.605002 c 0,0.02433 -0.0056,0.04754 -0.0075,0.07131 0.44832,-0.03706 0.801546,-0.408044 0.801546,-0.865592 v -3.605001 c 0,-0.481991 -0.390863,-0.872853 -0.872854,-0.872853"
       style="fill:#a5a5a5;fill-opacity:1;fill-rule:nonzero;stroke:none;stroke-width:0.66025549"
       id="path4598"
       inkscape:connector-curvature="0" />
    <path
       d="m 93.500123,-51.724709 h -3.605001 c -0.481972,0 -0.872854,0.390863 -0.872854,0.872854 v 3.605001 c 0,0.481991 0.390882,0.872854 0.872854,0.872854 h 3.605001 c 0.481991,0 0.872854,-0.390863 0.872854,-0.872854 v -3.605001 c 0,-0.481991 -0.390863,-0.872854 -0.872854,-0.872854"
       style="fill:#063a52;fill-opacity:1;fill-rule:nonzero;stroke:none;stroke-width:0.66025549"
       id="path4602"
       inkscape:connector-curvature="0" />
    <path
       d="m 93.500123,-51.724709 h -3.605001 c -0.457548,0 -0.828609,0.353244 -0.865592,0.801546 0.02377,-0.0019 0.04679,-0.0075 0.07131,-0.0075 h 3.605002 c 0.48199,0 0.872853,0.390881 0.872853,0.872853 v 3.605002 c 0,0.02433 -0.0056,0.04754 -0.0075,0.07131 0.448321,-0.03706 0.801546,-0.408044 0.801546,-0.865592 v -3.605001 c 0,-0.481991 -0.390863,-0.872853 -0.872854,-0.872853"
       style="fill:#a5a5a5;fill-opacity:1;fill-rule:nonzero;stroke:none;stroke-width:0.66025549"
       id="path4606"
       inkscape:connector-curvature="0" />
    <path
       d="m 101.45792,-51.724709 h -3.605002 c -0.481972,0 -0.872853,0.390863 -0.872853,0.872854 v 3.605001 c 0,0.481991 0.390881,0.872854 0.872853,0.872854 h 3.605002 c 0.48199,0 0.87285,-0.390863 0.87285,-0.872854 v -3.605001 c 0,-0.481991 -0.39086,-0.872854 -0.87285,-0.872854"
       style="fill:#063a52;fill-opacity:1;fill-rule:nonzero;stroke:none;stroke-width:0.66025549"
       id="path4610"
       inkscape:connector-curvature="0" />
    <path
       d="m 101.45792,-51.724709 h -3.605002 c -0.457547,0 -0.828609,0.353244 -0.865592,0.801546 0.02377,-0.0019 0.04679,-0.0075 0.07131,-0.0075 h 3.605004 c 0.48199,0 0.87285,0.390881 0.87285,0.872853 v 3.605002 c 0,0.02433 -0.006,0.04754 -0.007,0.07131 0.44832,-0.03706 0.80155,-0.408044 0.80155,-0.865592 v -3.605001 c 0,-0.481991 -0.39086,-0.872853 -0.87286,-0.872853"
       style="fill:#a5a5a5;fill-opacity:1;fill-rule:nonzero;stroke:none;stroke-width:0.66025549"
       id="path4614"
       inkscape:connector-curvature="0" />
    <g
       transform="matrix(0.66025549,0,0,-0.66025549,111.49446,-43.167799)"
       id="g4626">
      <path
         d="m 0,0 h -109.584 l -2.207,-3.013 H 2.207 Z"
         style="fill:#e4e5e6;fill-opacity:1;fill-rule:nonzero;stroke:none"
         id="path4624"
         inkscape:connector-curvature="0" />
    </g>
    <path
       d="m 61.322562,-52.683263 h -5.399576 c -0.721648,0 -1.307306,0.584985 -1.307306,1.307306 v 11.965808 c 0,0.721666 0.585658,1.30665 1.307306,1.30665 h 5.399576 c 0.721666,0 1.307306,-0.584984 1.307306,-1.30665 v -11.965808 c 0,-0.722321 -0.58564,-1.307306 -1.307306,-1.307306"
       style="fill:#e5e5e5;fill-opacity:1;fill-rule:nonzero;stroke:none;stroke-width:0.66025549"
       id="path4634"
       inkscape:connector-curvature="0" />
    <path
       d="m 61.322562,-52.683263 h -5.399576 c -0.685339,0 -1.241276,0.529529 -1.296076,1.200345 0.03575,-0.0037 0.07,-0.01123 0.107055,-0.01123 h 5.398902 c 0.722321,0 1.307306,0.584985 1.307306,1.306632 v 11.965808 c 0,0.03706 -0.0075,0.07131 -0.01123,0.107055 0.670815,-0.05484 1.200344,-0.610738 1.200344,-1.296077 v -11.965807 c 0,-0.722322 -0.585639,-1.307306 -1.307305,-1.307306"
       style="fill:#a5a5a5;fill-opacity:1;fill-rule:nonzero;stroke:none;stroke-width:0.66025549"
       id="path4638"
       inkscape:connector-curvature="0" />
    <path
       d="m 137.21523,-32.295897 h -13.30019 v 0.795613 h 4.3029 v 4.625748 h 0.79559 v -4.625748 h 2.7777 v 4.625748 h 0.79562 v -4.625748 h 2.77835 v 4.625748 h 0.7956 v -4.625748 h 0.65234 l 2.57434,3.489449 0.81938,-0.235708 z"
       style="fill:#ffffff;fill-opacity:1;fill-rule:nonzero;stroke:none;stroke-width:0.66025549"
       id="path4642"
       inkscape:connector-curvature="0" />
    <path
       d="m 10.295783,-37.796296 5.371839,-3.381833 H 118.72096 l 10.34488,14.124856 H 27.803126 l -6.101422,-8.222833 z"
       style="fill:#ffffff;fill-opacity:1;fill-rule:nonzero;stroke:none;stroke-width:0.66025549"
       id="path4646"
       inkscape:connector-curvature="0" />
    <path
       d="m 53.287712,-37.796296 c 0,1.06763 -0.865592,1.933222 -1.933222,1.933222 -1.06763,0 -1.932567,-0.865592 -1.932567,-1.933222 0,-1.06763 0.864937,-1.933222 1.932567,-1.933222 1.06763,0 1.933222,0.865592 1.933222,1.933222"
       style="fill:#063a52;fill-opacity:1;fill-rule:nonzero;stroke:none;stroke-width:0.66025549"
       id="path4650"
       inkscape:connector-curvature="0" />
    <path
       d="m 51.354696,-39.72933 c -0.659586,0 -1.241931,0.33144 -1.590553,0.835889 0.311639,-0.215251 0.689307,-0.342014 1.097351,-0.342014 1.066957,0 1.932567,0.864937 1.932567,1.932567 0,0.408025 -0.126706,0.785693 -0.342014,1.097332 0.504431,-0.348603 0.835871,-0.930948 0.835871,-1.590553 0,-1.06763 -0.865592,-1.933221 -1.933222,-1.933221"
       style="fill:#a5a5a5;fill-opacity:1;fill-rule:nonzero;stroke:none;stroke-width:0.66025549"
       id="path4654"
       inkscape:connector-curvature="0" />
    <path
       d="m 60.051902,-37.796296 c 0,1.06763 -0.865592,1.933222 -1.933222,1.933222 -1.06763,0 -1.932567,-0.865592 -1.932567,-1.933222 0,-1.06763 0.864937,-1.933222 1.932567,-1.933222 1.06763,0 1.933222,0.865592 1.933222,1.933222"
       style="fill:#063a52;fill-opacity:1;fill-rule:nonzero;stroke:none;stroke-width:0.66025549"
       id="path4658"
       inkscape:connector-curvature="0" />
    <path
       d="m 58.118867,-39.72933 c -0.659586,0 -1.241931,0.33144 -1.590552,0.835889 0.311638,-0.215251 0.689306,-0.342014 1.09735,-0.342014 1.066957,0 1.932567,0.864937 1.932567,1.932567 0,0.408025 -0.126706,0.785693 -0.342014,1.097332 0.504431,-0.348603 0.835871,-0.930948 0.835871,-1.590553 0,-1.06763 -0.865592,-1.933221 -1.933222,-1.933221"
       style="fill:#a5a5a5;fill-opacity:1;fill-rule:nonzero;stroke:none;stroke-width:0.66025549"
       id="path4662"
       inkscape:connector-curvature="0" />
    <path
       d="m 69.626659,-39.72933 h -3.605002 c -0.481972,0 -0.872853,0.390863 -0.872853,0.872853 v 3.605002 c 0,0.48199 0.390881,0.872853 0.872853,0.872853 h 3.605002 c 0.48199,0 0.872853,-0.390863 0.872853,-0.872853 v -3.605002 c 0,-0.48199 -0.390863,-0.872853 -0.872853,-0.872853"
       style="fill:#063a52;fill-opacity:1;fill-rule:nonzero;stroke:none;stroke-width:0.66025549"
       id="path4666"
       inkscape:connector-curvature="0" />
    <path
       d="m 69.626659,-39.72933 h -3.605002 c -0.457547,0 -0.828609,0.353244 -0.865591,0.801546 0.02377,-0.0019 0.04679,-0.0075 0.07131,-0.0075 h 3.605001 c 0.481991,0 0.872854,0.390882 0.872854,0.872854 v 3.605001 c 0,0.02433 -0.0056,0.04754 -0.0075,0.07131 0.44832,-0.03706 0.801546,-0.408044 0.801546,-0.865592 v -3.605001 c 0,-0.481991 -0.390863,-0.872854 -0.872854,-0.872854"
       style="fill:#a5a5a5;fill-opacity:1;fill-rule:nonzero;stroke:none;stroke-width:0.66025549"
       id="path4670"
       inkscape:connector-curvature="0" />
    <path
       d="m 77.58453,-39.72933 h -3.605001 c -0.481972,0 -0.872854,0.390863 -0.872854,0.872853 v 3.605002 c 0,0.48199 0.390882,0.872853 0.872854,0.872853 h 3.605001 c 0.481991,0 0.872854,-0.390863 0.872854,-0.872853 v -3.605002 c 0,-0.48199 -0.390863,-0.872853 -0.872854,-0.872853"
       style="fill:#063a52;fill-opacity:1;fill-rule:nonzero;stroke:none;stroke-width:0.66025549"
       id="path4674"
       inkscape:connector-curvature="0" />
    <path
       d="m 77.58453,-39.72933 h -3.605001 c -0.457548,0 -0.828609,0.353244 -0.865592,0.801546 0.02377,-0.0019 0.04679,-0.0075 0.07131,-0.0075 h 3.605002 c 0.48199,0 0.872853,0.390882 0.872853,0.872854 v 3.605001 c 0,0.02433 -0.0056,0.04754 -0.0075,0.07131 0.448321,-0.03706 0.801546,-0.408044 0.801546,-0.865592 v -3.605001 c 0,-0.481991 -0.390863,-0.872854 -0.872854,-0.872854"
       style="fill:#a5a5a5;fill-opacity:1;fill-rule:nonzero;stroke:none;stroke-width:0.66025549"
       id="path4678"
       inkscape:connector-curvature="0" />
    <path
       d="m 85.542327,-39.72933 h -3.605002 c -0.481972,0 -0.872853,0.390863 -0.872853,0.872853 v 3.605002 c 0,0.48199 0.390881,0.872853 0.872853,0.872853 h 3.605002 c 0.48199,0 0.872853,-0.390863 0.872853,-0.872853 v -3.605002 c 0,-0.48199 -0.390863,-0.872853 -0.872853,-0.872853"
       style="fill:#063a52;fill-opacity:1;fill-rule:nonzero;stroke:none;stroke-width:0.66025549"
       id="path4682"
       inkscape:connector-curvature="0" />
    <path
       d="m 85.542327,-39.72933 h -3.605002 c -0.457547,0 -0.828609,0.353244 -0.865592,0.801546 0.02377,-0.0019 0.04679,-0.0075 0.07131,-0.0075 h 3.605001 c 0.481991,0 0.872854,0.390882 0.872854,0.872854 v 3.605001 c 0,0.02433 -0.0056,0.04754 -0.0075,0.07131 0.44832,-0.03706 0.801546,-0.408044 0.801546,-0.865592 v -3.605001 c 0,-0.481991 -0.390863,-0.872854 -0.872854,-0.872854"
       style="fill:#a5a5a5;fill-opacity:1;fill-rule:nonzero;stroke:none;stroke-width:0.66025549"
       id="path4686"
       inkscape:connector-curvature="0" />
    <g
       transform="matrix(0.66025549,0,0,-0.66025549,13.424268,-39.766031)"
       id="g4698">
      <path
         d="m 0,0 -4.738,-2.983 17.275,-3.817 9.24,-12.454 h 153.37 l -3.531,4.821 H 107.954 C 55.679,-14.433 59.209,-0.697 0,0"
         style="fill:#e4e5e6;fill-opacity:1;fill-rule:nonzero;stroke:none"
         id="path4696"
         inkscape:connector-curvature="0" />
    </g>
    <path
       d="m 93.500123,-39.72933 h -3.605001 c -0.481972,0 -0.872854,0.390863 -0.872854,0.872853 v 3.605002 c 0,0.48199 0.390882,0.872853 0.872854,0.872853 h 3.605001 c 0.481991,0 0.872854,-0.390863 0.872854,-0.872853 v -3.605002 c 0,-0.48199 -0.390863,-0.872853 -0.872854,-0.872853"
       style="fill:#063a52;fill-opacity:1;fill-rule:nonzero;stroke:none;stroke-width:0.66025549"
       id="path4706"
       inkscape:connector-curvature="0" />
    <path
       d="m 93.500123,-39.72933 h -3.605001 c -0.457548,0 -0.828609,0.353244 -0.865592,0.801546 0.02377,-0.0019 0.04679,-0.0075 0.07131,-0.0075 h 3.605002 c 0.48199,0 0.872853,0.390882 0.872853,0.872854 v 3.605001 c 0,0.02433 -0.0056,0.04754 -0.0075,0.07131 0.448321,-0.03706 0.801546,-0.408044 0.801546,-0.865592 v -3.605001 c 0,-0.481991 -0.390863,-0.872854 -0.872854,-0.872854"
       style="fill:#a5a5a5;fill-opacity:1;fill-rule:nonzero;stroke:none;stroke-width:0.66025549"
       id="path4710"
       inkscape:connector-curvature="0" />
    <path
       d="m 101.45792,-39.72933 h -3.605002 c -0.481972,0 -0.872853,0.390863 -0.872853,0.872853 v 3.605002 c 0,0.48199 0.390881,0.872853 0.872853,0.872853 h 3.605002 c 0.48199,0 0.87285,-0.390863 0.87285,-0.872853 v -3.605002 c 0,-0.48199 -0.39086,-0.872853 -0.87285,-0.872853"
       style="fill:#063a52;fill-opacity:1;fill-rule:nonzero;stroke:none;stroke-width:0.66025549"
       id="path4714"
       inkscape:connector-curvature="0" />
    <path
       d="m 101.45792,-39.72933 h -3.605002 c -0.457547,0 -0.828609,0.353244 -0.865592,0.801546 0.02377,-0.0019 0.04679,-0.0075 0.07131,-0.0075 h 3.605004 c 0.48199,0 0.87285,0.390882 0.87285,0.872854 v 3.605001 c 0,0.02433 -0.006,0.04754 -0.007,0.07131 0.44832,-0.03706 0.80155,-0.408044 0.80155,-0.865592 v -3.605001 c 0,-0.481991 -0.39086,-0.872854 -0.87286,-0.872854"
       style="fill:#a5a5a5;fill-opacity:1;fill-rule:nonzero;stroke:none;stroke-width:0.66025549"
       id="path4718"
       inkscape:connector-curvature="0" />
    <path
       d="m 111.64433,-39.72933 h -5.39957 c -0.72165,0 -1.30731,0.584984 -1.30731,1.307305 v 11.965808 c 0,0.721666 0.58566,1.306651 1.30731,1.306651 h 5.39957 c 0.72167,0 1.30731,-0.584985 1.30731,-1.306651 v -11.965808 c 0,-0.722321 -0.58564,-1.307305 -1.30731,-1.307305"
       style="fill:#e5e5e5;fill-opacity:1;fill-rule:nonzero;stroke:none;stroke-width:0.66025549"
       id="path4722"
       inkscape:connector-curvature="0" />
    <path
       d="m 111.64433,-39.72933 h -5.39957 c -0.68534,0 -1.24128,0.529529 -1.29608,1.200344 0.0358,-0.0037 0.07,-0.01123 0.10705,-0.01123 h 5.39891 c 0.72232,0 1.3073,0.584984 1.3073,1.306632 v 11.965807 c 0,0.03706 -0.007,0.07131 -0.0112,0.107055 0.67082,-0.05484 1.20035,-0.610737 1.20035,-1.296076 v -11.965808 c 0,-0.722321 -0.58564,-1.307306 -1.30731,-1.307306"
       style="fill:#a5a5a5;fill-opacity:1;fill-rule:nonzero;stroke:none;stroke-width:0.66025549"
       id="path4726"
       inkscape:connector-curvature="0" />
    <path
       d="m 10.295783,-37.796296 c 0,0 13.926111,5.769309 18.302938,19.098551 H 136.82516 l 3.38183,-9.549285 h -55.5057 c -35.412137,0 -32.030305,-9.549266 -74.405507,-9.549266"
       style="fill:#063a52;fill-opacity:1;fill-rule:nonzero;stroke:none;stroke-width:0.66025549"
       id="path4730"
       inkscape:connector-curvature="0" />
    <path
       d="m 28.598721,-18.697539 h 54.004928 c -22.373404,-3.239873 -32.060681,-9.83648 -62.161057,-12.312445 3.243822,3.011427 6.43683,7.07596 8.156129,12.312445"
       style="fill:#053242;fill-opacity:1;fill-rule:nonzero;stroke:none;stroke-width:0.66025549"
       id="path4734"
       inkscape:connector-curvature="0" />
    <path
       d="m 30.480848,-29.023272 c -0.949439,0 -1.721938,-0.772499 -1.721938,-1.721938 0,-0.949458 0.772499,-1.721957 1.721938,-1.721957 0.949439,0 1.721938,0.772499 1.721938,1.721957 0,0.949439 -0.772499,1.721938 -1.721938,1.721938 m 0,-4.747233 c -1.667811,0 -3.025295,1.356828 -3.025295,3.025295 0,1.667793 1.357484,3.025276 3.025295,3.025276 1.667812,0 3.025295,-1.357483 3.025295,-3.025276 0,-1.668467 -1.357483,-3.025295 -3.025295,-3.025295"
       style="fill:#ffffff;fill-opacity:1;fill-rule:nonzero;stroke:none;stroke-width:0.66025549"
       id="path4738"
       inkscape:connector-curvature="0" />
    <path
       d="m 29.427274,-33.581025 0.349276,1.265045 c 0.215233,-0.09713 0.453599,-0.151224 0.704485,-0.151224 0.250251,0 0.488598,0.05409 0.703831,0.151224 l 0.349276,-1.265045 c -0.328146,-0.122215 -0.6827,-0.189498 -1.053107,-0.189498 -0.370406,0 -0.725615,0.06738 -1.053761,0.189498"
       style="fill:#d00c01;fill-opacity:1;fill-rule:nonzero;stroke:none;stroke-width:0.66025549"
       id="path4742"
       inkscape:connector-curvature="0" />
    <path
       d="m 31.534273,-27.909619 -0.349276,-1.265046 c -0.215233,0.09714 -0.453599,0.151225 -0.704486,0.151225 -0.25025,0 -0.488597,-0.05409 -0.70383,-0.151225 l -0.349276,1.265046 c 0.328146,0.122214 0.6827,0.189498 1.053106,0.189498 0.370407,0 0.725616,-0.06738 1.053762,-0.189498"
       style="fill:#d00c01;fill-opacity:1;fill-rule:nonzero;stroke:none;stroke-width:0.66025549"
       id="path4746"
       inkscape:connector-curvature="0" />
    <path
       d="m 32.202786,-30.745285 c 0,0.250906 -0.05409,0.488598 -0.151224,0.703831 l 1.265064,0.349931 c 0.122215,-0.328801 0.18948,-0.683355 0.18948,-1.053762 0,-0.370406 -0.06738,-0.72496 -0.18948,-1.053761 l -1.265064,0.349931 c 0.09714,0.215233 0.151224,0.452925 0.151224,0.70383"
       style="fill:#d00c01;fill-opacity:1;fill-rule:nonzero;stroke:none;stroke-width:0.66025549"
       id="path4750"
       inkscape:connector-curvature="0" />
    <path
       d="m 28.75876,-30.745285 c 0,-0.250905 0.05409,-0.488597 0.151225,-0.70383 l -1.265064,-0.349931 c -0.122215,0.328801 -0.18948,0.683355 -0.18948,1.053761 0,0.370407 0.06738,0.724961 0.18948,1.053762 l 1.265064,-0.349931 c -0.09714,-0.215233 -0.151225,-0.452925 -0.151225,-0.703831"
       style="fill:#d00c01;fill-opacity:1;fill-rule:nonzero;stroke:none;stroke-width:0.66025549"
       id="path4754"
       inkscape:connector-curvature="0" />
    <path
       d="m 46.523597,-37.796296 c 0,1.06763 -0.865592,1.933222 -1.933222,1.933222 -1.06763,0 -1.932567,-0.865592 -1.932567,-1.933222 0,-1.06763 0.864937,-1.933222 1.932567,-1.933222 1.06763,0 1.933222,0.865592 1.933222,1.933222"
       style="fill:#063a52;fill-opacity:1;fill-rule:nonzero;stroke:none;stroke-width:0.66025549"
       id="path4758"
       inkscape:connector-curvature="0" />
    <path
       d="m 44.590562,-39.72933 c -0.659586,0 -1.241931,0.33144 -1.590552,0.835889 0.311638,-0.215251 0.689307,-0.342014 1.097351,-0.342014 1.066956,0 1.932567,0.864937 1.932567,1.932567 0,0.408025 -0.126707,0.785693 -0.342015,1.097332 0.504431,-0.348603 0.835871,-0.930948 0.835871,-1.590553 0,-1.06763 -0.865592,-1.933221 -1.933222,-1.933221"
       style="fill:#a5a5a5;fill-opacity:1;fill-rule:nonzero;stroke:none;stroke-width:0.66025549"
       id="path4762"
       inkscape:connector-curvature="0" />
    <path
       d="M 69.382703,-55.303163 H 54.362551 v -1.98935 h 15.020152 z"
       style="fill:#e4e5e6;fill-opacity:1;fill-rule:nonzero;stroke:none;stroke-width:0.66025549"
       id="path4772"
       inkscape:connector-curvature="0" />
    <path
       inkscape:connector-curvature="0"
       id="path4778"
       style="fill:#063a52;fill-opacity:1;fill-rule:nonzero;stroke:none;stroke-width:0.66025549"
       d="m 65.867494,-64.753392 h -7.991073 v -2.056036 h 7.991073 z" />
  </g></a>
</svg>
