<?xml version="1.0" encoding="UTF-8" standalone="no"?>
<!-- Created with Inkscape (http://www.inkscape.org/) -->

<svg
   xmlns:dc="http://purl.org/dc/elements/1.1/"
   xmlns:cc="http://creativecommons.org/ns#"
   xmlns:rdf="http://www.w3.org/1999/02/22-rdf-syntax-ns#"
   xmlns:svg="http://www.w3.org/2000/svg"
   xmlns="http://www.w3.org/2000/svg"
   xmlns:sodipodi="http://sodipodi.sourceforge.net/DTD/sodipodi-0.dtd"
   xmlns:inkscape="http://www.inkscape.org/namespaces/inkscape"
   width="147.77345mm"
   height="59.343742mm"
   viewBox="0 0 147.77345 59.343743"
   version="1.1"
   id="svg9108"
   sodipodi:docname="7.svg"
   inkscape:version="0.92.1 r15371">
   <a href="../contenido/pag8.html" target="iframe"><defs
     id="defs95">
    <clipPath
       id="clipPath4622"
       clipPathUnits="userSpaceOnUse">
      <path
         inkscape:connector-curvature="0"
         id="path4620"
         d="m 309.511,247.825 h 113.998 v -3.013 H 309.511 Z" />
    </clipPath>
    <clipPath
       id="clipPath4694"
       clipPathUnits="userSpaceOnUse">
      <path
         inkscape:connector-curvature="0"
         id="path4692"
         d="M 268.03,242.673 H 447.915 V 223.419 H 268.03 Z" />
    </clipPath>
    <clipPath
       id="clipPath4770"
       clipPathUnits="userSpaceOnUse">
      <path
         inkscape:connector-curvature="0"
         id="path4768"
         d="m 334.771,269.219 h 22.75 v -3.014 h -22.75 z" />
    </clipPath>
    <defs
       id="defs105">
      <clipPath
         clipPathUnits="userSpaceOnUse"
         id="clipPath5254">
        <path
           d="m 84.767,104.272 h 137.666 v -3.013 H 84.767 Z"
           id="path5252"
           inkscape:connector-curvature="0" />
      </clipPath>
      <clipPath
         clipPathUnits="userSpaceOnUse"
         id="clipPath5268">
        <path
           d="m 122.833,125.745 h 87.269 v -3.014 h -87.269 z"
           id="path5266"
           inkscape:connector-curvature="0" />
      </clipPath>
      <clipPath
         clipPathUnits="userSpaceOnUse"
         id="clipPath5282">
        <path
           d="m 189.943,147.292 h 8.506 v -3.013 h -8.506 z"
           id="path5280"
           inkscape:connector-curvature="0" />
      </clipPath>
      <defs
         id="defs9102">
        <clipPath
           id="clipPath4796"
           clipPathUnits="userSpaceOnUse">
          <path
             inkscape:connector-curvature="0"
             id="path4794"
             d="m 175.845,416.536 h 24.601 v -9.561 h -24.601 z" />
        </clipPath>
        <clipPath
           id="clipPath4842"
           clipPathUnits="userSpaceOnUse">
          <path
             inkscape:connector-curvature="0"
             id="path4840"
             d="m 71.864,377.941 h 142.02 v -3.013 H 71.864 Z" />
        </clipPath>
        <clipPath
           id="clipPath4862"
           clipPathUnits="userSpaceOnUse">
          <path
             inkscape:connector-curvature="0"
             id="path4860"
             d="M 90.5581,390.806 H 207.054 v -3.013 H 90.5581 Z" />
        </clipPath>
        <clipPath
           id="clipPath4882"
           clipPathUnits="userSpaceOnUse">
          <path
             inkscape:connector-curvature="0"
             id="path4880"
             d="m 109.707,403.671 h 90.207 v -3.013 h -90.207 z" />
        </clipPath>
        <clipPath
           id="clipPath4994"
           clipPathUnits="userSpaceOnUse">
          <path
             inkscape:connector-curvature="0"
             id="path4992"
             d="m 167.309,416.536 h 8.506 v -3.013 h -8.506 z" />
        </clipPath>
        <clipPath
           id="clipPath5008"
           clipPathUnits="userSpaceOnUse">
          <path
             inkscape:connector-curvature="0"
             id="path5006"
             d="m 151.396,416.536 h 8.505 v -3.013 h -8.505 z" />
        </clipPath>
        <clipPath
           id="clipPath5022"
           clipPathUnits="userSpaceOnUse">
          <path
             inkscape:connector-curvature="0"
             id="path5020"
             d="m 135.482,416.536 h 8.505 v -3.013 h -8.505 z" />
        </clipPath>
        <clipPath
           id="clipPath5036"
           clipPathUnits="userSpaceOnUse">
          <path
             inkscape:connector-curvature="0"
             id="path5034"
             d="m 36.208,374.928 h 89.681 V 349.194 H 36.208 Z" />
        </clipPath>
        <filter
           inkscape:collect="always"
           style="color-interpolation-filters:sRGB"
           id="filter10233"
           x="-0.0075199637"
           width="1.0150399"
           y="-0.019154953"
           height="1.0383099">
          <feGaussianBlur
             inkscape:collect="always"
             stdDeviation="1.7240716"
             id="feGaussianBlur10235" />
        </filter>
      </defs>
      <sodipodi:namedview
         id="base"
         pagecolor="#ffffff"
         bordercolor="#666666"
         borderopacity="1.0"
         inkscape:pageopacity="0.0"
         inkscape:pageshadow="2"
         inkscape:zoom="0.98994949"
         inkscape:cx="221.44688"
         inkscape:cy="146.98327"
         inkscape:document-units="mm"
         inkscape:current-layer="layer1"
         showgrid="false"
         fit-margin-top="0"
         fit-margin-left="0"
         fit-margin-right="0"
         fit-margin-bottom="0"
         inkscape:window-width="1920"
         inkscape:window-height="1057"
         inkscape:window-x="-8"
         inkscape:window-y="-8"
         inkscape:window-maximized="1" />
    </defs>
    <sodipodi:namedview
       inkscape:current-layer="svg9108"
       inkscape:window-maximized="1"
       inkscape:window-y="-8"
       inkscape:window-x="-8"
       inkscape:cy="193.31749"
       inkscape:cx="390.01218"
       inkscape:zoom="1.3571732"
       showgrid="false"
       id="namedview103"
       inkscape:window-height="1057"
       inkscape:window-width="1920"
       inkscape:pageshadow="2"
       inkscape:pageopacity="0"
       guidetolerance="10"
       gridtolerance="10"
       objecttolerance="10"
       borderopacity="1"
       bordercolor="#666666"
       pagecolor="#ffffff" />
    <clipPath
       id="clipPath5494"
       clipPathUnits="userSpaceOnUse">
      <path
         inkscape:connector-curvature="0"
         id="path5492"
         d="m 360.516,100.091 h 76.043 v -5.5825 h -76.043 z" />
    </clipPath>
    <clipPath
       id="clipPath5536"
       clipPathUnits="userSpaceOnUse">
      <path
         inkscape:connector-curvature="0"
         id="path5534"
         d="m 274.613,108.371 h 24.601 v -9.5608 h -24.601 z" />
    </clipPath>
    <clipPath
       id="clipPath5580"
       clipPathUnits="userSpaceOnUse">
      <path
         inkscape:connector-curvature="0"
         id="path5578"
         d="m 400.768,122.493 h 31.336 v -4.15 h -31.336 z" />
    </clipPath>
    <clipPath
       id="clipPath5494-5"
       clipPathUnits="userSpaceOnUse">
      <path
         inkscape:connector-curvature="0"
         id="path5492-8"
         d="m 360.516,100.091 h 76.043 v -5.5825 h -76.043 z" />
    </clipPath>
    <clipPath
       id="clipPath5536-0"
       clipPathUnits="userSpaceOnUse">
      <path
         inkscape:connector-curvature="0"
         id="path5534-3"
         d="m 274.613,108.371 h 24.601 v -9.5608 h -24.601 z" />
    </clipPath>
    <clipPath
       id="clipPath5580-8"
       clipPathUnits="userSpaceOnUse">
      <path
         inkscape:connector-curvature="0"
         id="path5578-7"
         d="m 400.768,122.493 h 31.336 v -4.15 h -31.336 z" />
    </clipPath>
    <clipPath
       id="clipPath5716"
       clipPathUnits="userSpaceOnUse">
      <path
         inkscape:connector-curvature="0"
         id="path5714"
         d="M 39.792,239.707 H 232.511 V 210.763 H 39.792 Z" />
    </clipPath>
    <clipPath
       id="clipPath5756"
       clipPathUnits="userSpaceOnUse">
      <path
         inkscape:connector-curvature="0"
         id="path5754"
         d="M 42.8136,243.749 H 216.275 v -4.042 H 42.8136 Z" />
    </clipPath>
  </defs>
  <sodipodi:namedview
     pagecolor="#ffffff"
     bordercolor="#666666"
     borderopacity="1"
     objecttolerance="10"
     gridtolerance="10"
     guidetolerance="10"
     inkscape:pageopacity="0"
     inkscape:pageshadow="2"
     inkscape:window-width="1920"
     inkscape:window-height="1057"
     id="namedview93"
     showgrid="false"
     inkscape:zoom="0.67858659"
     inkscape:cx="73.682564"
     inkscape:cy="1.3682609"
     inkscape:window-x="-8"
     inkscape:window-y="-8"
     inkscape:window-maximized="1"
     inkscape:current-layer="svg9108" />
  <metadata
     id="metadata107">
    <rdf:RDF>
      <cc:Work
         rdf:about="">
        <dc:format>image/svg+xml</dc:format>
        <dc:type
           rdf:resource="http://purl.org/dc/dcmitype/StillImage" />
        <dc:title></dc:title>
      </cc:Work>
    </rdf:RDF>
  </metadata>
  <g
     inkscape:label="Capa 1"
     inkscape:groupmode="layer"
     id="layer1"
     transform="translate(-7.7562559,-104.79834)" />
  <g
     id="g6165">
    <path
       inkscape:connector-curvature="0"
       id="path5968"
       transform="matrix(0.26458333,0,0,0.26458333,12.288159,-102.57281)"
       d="m 306.60352,463.80273 c -5.02335,0 -9.96118,1.3148 -14.32032,3.8125 l -14.45508,8.28516 -5.01171,2.87109 -28.75391,16.47852 -16.18945,9.27734 -47.0918,4.66407 h -0.0117 l -75.1543,7.44531 -6.007808,0.5957 c 12.819388,17.10931 27.633528,29.14746 41.945308,37.61133 0,0 0.002,0 0.002,0 18.60477,11.00242 36.35909,15.96697 47.77148,18.1875 0.87788,0.17081 1.71725,0.325 2.51758,0.46484 6.40388,1.119 10.24414,1.29493 10.24414,1.29493 h 280.77149 l -32.28711,-57.5586 h -0.002 l -30.27539,-8.04101 h -0.006 l -1.2207,-0.32422 26.24219,-26.33789 h 1.21289 c 7.67221,0 13.89062,-6.21846 13.89062,-13.88868 h -6.99804 c 0,-2.6708 -2.16518,-4.83789 -4.83594,-4.83789 h -25.78711 c -2.67277,0 -4.83789,2.16709 -4.83789,4.83789 h -0.99219 c -7.67025,0 -13.88867,6.21843 -13.88867,13.88868 h 9.125 l -13.9336,13.98242 -10.84179,-18.29102 c -5.14269,-8.92112 -14.6539,-14.41797 -24.95117,-14.41797 z"
       style="opacity:0.87900002;vector-effect:none;fill:#eaeaea;fill-opacity:1;fill-rule:nonzero;stroke:none;stroke-width:2.75274229;stroke-linecap:butt;stroke-linejoin:miter;stroke-miterlimit:4;stroke-dasharray:none;stroke-dashoffset:0;stroke-opacity:1;filter:url(#filter10233)" />
    <path
       d="m 123.06426,32.167741 h -8.76118 l 7.25951,-7.285812 h 8.76066 z"
       style="fill:#063a52;fill-opacity:1;fill-rule:nonzero;stroke:none;stroke-width:0.52616578"
       id="path5644"
       inkscape:connector-curvature="0" />
    <path
       d="m 122.60966,21.421649 c -2.02943,0 -3.67475,1.645327 -3.67475,3.674742 h 11.49567 c 2.02995,0 3.67527,-1.645326 3.67527,-3.674742 v 0 z"
       style="fill:#d00c01;fill-opacity:1;fill-rule:nonzero;stroke:none;stroke-width:0.52616578"
       id="path5648"
       inkscape:connector-curvature="0" />
    <path
       d="m 130.9749,20.141903 h -6.82279 c -0.70717,0 -1.28016,0.572987 -1.28016,1.279642 h 9.38259 c 0,-0.706655 -0.573,-1.279642 -1.27964,-1.279642"
       style="fill:#ffffff;fill-opacity:1;fill-rule:nonzero;stroke:none;stroke-width:0.52616578"
       id="path5652"
       inkscape:connector-curvature="0" />
    <path
       d="M 140.04473,49.50722 H 65.757489 c 0,0 -16.261154,-0.742943 -27.114902,-15.228821 H 131.5019 Z"
       style="fill:#063a52;fill-opacity:1;fill-rule:nonzero;stroke:none;stroke-width:0.52616578"
       id="path5656"
       inkscape:connector-curvature="0" />
    <path
       d="M 108.1924,20.141903 H 93.410295 c -1.329094,0 -2.635565,0.347802 -3.788919,1.008653 l -17.041985,9.766165 -33.937166,3.361678 h 92.859315 l -12.56694,-3.337471 -4.1404,-6.984321 c -1.36067,-2.360378 -3.87732,-3.814704 -6.6018,-3.814704"
       style="fill:#ffffff;fill-opacity:1;fill-rule:nonzero;stroke:none;stroke-width:0.52616578"
       id="path5660"
       inkscape:connector-curvature="0" />
    <path
       d="m 85.796835,23.342365 -8.93377,5.119597 h 16.413743 c 0.460921,0 0.835024,-0.374112 0.835024,-0.835028 v -3.449541 c 0,-0.460932 -0.374103,-0.835028 -0.835024,-0.835028 z"
       style="fill:#063a52;fill-opacity:1;fill-rule:nonzero;stroke:none;stroke-width:0.52616578"
       id="path5664"
       inkscape:connector-curvature="0" />
    <path
       d="m 85.796835,23.342365 -1.325938,0.759782 h 8.045601 c 0.461447,0 0.835025,0.374111 0.835025,0.835027 v 3.449542 c 0,0.02312 -0.0048,0.04519 -0.0069,0.06846 0.428825,-0.0358 0.76715,-0.390413 0.76715,-0.828181 v -3.449542 c 0,-0.460931 -0.374104,-0.835027 -0.835025,-0.835027 z"
       style="fill:#a5a5a5;fill-opacity:1;fill-rule:nonzero;stroke:none;stroke-width:0.52616578"
       id="path5668"
       inkscape:connector-curvature="0" />
    <path
       d="M 111.33282,23.342365 H 97.955578 c -0.461447,0 -0.835024,0.374096 -0.835024,0.835028 v 3.449541 c 0,0.460916 0.373577,0.835028 0.835024,0.835028 h 13.377242 c 0.46092,0 0.83502,-0.374112 0.83502,-0.835028 v -3.449541 c 0,-0.460932 -0.3741,-0.835028 -0.83502,-0.835028"
       style="fill:#063a52;fill-opacity:1;fill-rule:nonzero;stroke:none;stroke-width:0.52616578"
       id="path5672"
       inkscape:connector-curvature="0" />
    <path
       d="M 111.33282,23.342365 H 97.955578 c -0.437769,0 -0.792931,0.33833 -0.828184,0.766628 0.02263,-0.0015 0.04473,-0.0075 0.06788,-0.0075 h 13.377766 c 0.46092,0 0.83502,0.374112 0.83502,0.835028 v 3.449541 c 0,0.02312 -0.005,0.04519 -0.007,0.06846 0.4283,-0.0352 0.76662,-0.390414 0.76662,-0.828182 v -3.449541 c 0,-0.460931 -0.3741,-0.835028 -0.83502,-0.835028"
       style="fill:#a5a5a5;fill-opacity:1;fill-rule:nonzero;stroke:none;stroke-width:0.52616578"
       id="path5676"
       inkscape:connector-curvature="0" />
    <path
       d="m 86.819595,39.336009 c 0,1.297003 -1.051806,2.348804 -2.348804,2.348804 -1.296998,0 -2.348804,-1.051801 -2.348804,-2.348804 0,-1.297003 1.051806,-2.348804 2.348804,-2.348804 1.296998,0 2.348804,1.051801 2.348804,2.348804"
       style="fill:#ffffff;fill-opacity:1;fill-rule:nonzero;stroke:none;stroke-width:0.52616578"
       id="path5680"
       inkscape:connector-curvature="0" />
    <path
       d="m 84.470791,36.987205 c -0.801876,0 -1.509044,0.402509 -1.932607,1.015498 0.378839,-0.261503 0.837655,-0.415664 1.332777,-0.415664 1.297525,0 2.348805,1.051279 2.348805,2.348804 0,0.495116 -0.154167,0.953929 -0.415671,1.332769 0.612983,-0.423555 1.0155,-1.130731 1.0155,-1.932603 0,-1.297003 -1.051806,-2.348804 -2.348804,-2.348804"
       style="fill:#053242;fill-opacity:1;fill-rule:nonzero;stroke:none;stroke-width:0.52616578"
       id="path5684"
       inkscape:connector-curvature="0" />
    <path
       d="m 95.461343,39.336009 c 0,1.297003 -1.051805,2.348804 -2.348804,2.348804 -1.296998,0 -2.348804,-1.051801 -2.348804,-2.348804 0,-1.297003 1.051806,-2.348804 2.348804,-2.348804 1.296999,0 2.348804,1.051801 2.348804,2.348804"
       style="fill:#ffffff;fill-opacity:1;fill-rule:nonzero;stroke:none;stroke-width:0.52616578"
       id="path5688"
       inkscape:connector-curvature="0" />
    <path
       d="m 93.112591,36.987205 c -0.801876,0 -1.509044,0.402509 -1.932607,1.015498 0.378839,-0.261503 0.837656,-0.415664 1.332778,-0.415664 1.297525,0 2.348804,1.051279 2.348804,2.348804 0,0.495116 -0.154167,0.953929 -0.41567,1.332769 0.612983,-0.423555 1.015499,-1.130731 1.015499,-1.932603 0,-1.297003 -1.051805,-2.348804 -2.348804,-2.348804"
       style="fill:#053242;fill-opacity:1;fill-rule:nonzero;stroke:none;stroke-width:0.52616578"
       id="path5692"
       inkscape:connector-curvature="0" />
    <path
       d="m 104.10314,39.336009 c 0,1.297003 -1.0518,2.348804 -2.3488,2.348804 -1.297,0 -2.348806,-1.051801 -2.348806,-2.348804 0,-1.297003 1.051806,-2.348804 2.348806,-2.348804 1.297,0 2.3488,1.051801 2.3488,2.348804"
       style="fill:#ffffff;fill-opacity:1;fill-rule:nonzero;stroke:none;stroke-width:0.52616578"
       id="path5696"
       inkscape:connector-curvature="0" />
    <path
       d="m 101.75439,36.987205 c -0.80188,0 -1.50904,0.402509 -1.932607,1.015498 0.378837,-0.261503 0.837657,-0.415664 1.332777,-0.415664 1.29753,0 2.3488,1.051279 2.3488,2.348804 0,0.495116 -0.15416,0.953929 -0.41567,1.332769 0.61299,-0.423555 1.0155,-1.130731 1.0155,-1.932603 0,-1.297003 -1.0518,-2.348804 -2.3488,-2.348804"
       style="fill:#053242;fill-opacity:1;fill-rule:nonzero;stroke:none;stroke-width:0.52616578"
       id="path5700"
       inkscape:connector-curvature="0" />
    <path
       d="m 112.74494,39.336009 c 0,1.297003 -1.0518,2.348804 -2.3488,2.348804 -1.297,0 -2.34881,-1.051801 -2.34881,-2.348804 0,-1.297003 1.05181,-2.348804 2.34881,-2.348804 1.297,0 2.3488,1.051801 2.3488,2.348804"
       style="fill:#ffffff;fill-opacity:1;fill-rule:nonzero;stroke:none;stroke-width:0.52616578"
       id="path5704"
       inkscape:connector-curvature="0" />
    <path
       d="m 110.39614,36.987205 c -0.80188,0 -1.50905,0.402509 -1.93261,1.015498 0.37884,-0.261503 0.83766,-0.415664 1.33278,-0.415664 1.29752,0 2.3488,1.051279 2.3488,2.348804 0,0.495116 -0.15417,0.953929 -0.41567,1.332769 0.61298,-0.423555 1.0155,-1.130731 1.0155,-1.932603 0,-1.297003 -1.0518,-2.348804 -2.3488,-2.348804"
       style="fill:#053242;fill-opacity:1;fill-rule:nonzero;stroke:none;stroke-width:0.52616578"
       id="path5708"
       inkscape:connector-curvature="0" />
    <path
       inkscape:connector-curvature="0"
       id="path5718"
       style="fill:#babcbe;fill-opacity:1;fill-rule:nonzero;stroke:none;stroke-width:0.52616578"
       d="M 65.757285,49.507219 H 140.04453 L 136.7944,43.713607 H 69.49201 c -14.757372,0 -30.849627,-9.435204 -30.849627,-9.435204 10.854274,14.48587 27.114902,15.228816 27.114902,15.228816" />
    <path
       d="m 125.18492,40.444487 c -0.72611,0 -1.31647,-0.590363 -1.31647,-1.316467 0,-0.726104 0.59036,-1.316467 1.31647,-1.316467 0.72611,0 1.31647,0.590363 1.31647,1.316467 0,0.726104 -0.59036,1.316467 -1.31647,1.316467 m 0,-3.62949 c -1.27542,0 -2.31302,1.037602 -2.31302,2.313023 0,1.275421 1.0376,2.313023 2.31302,2.313023 1.27543,0 2.3125,-1.037602 2.3125,-2.313023 0,-1.275421 -1.03707,-2.313023 -2.3125,-2.313023"
       style="fill:#ffffff;fill-opacity:1;fill-rule:nonzero;stroke:none;stroke-width:0.52616578"
       id="path5728"
       inkscape:connector-curvature="0" />
    <path
       d="m 124.37952,36.960164 0.26729,0.967099 c 0.16417,-0.07413 0.34622,-0.11574 0.53827,-0.11574 0.19152,0 0.37358,0.04161 0.53827,0.11574 l 0.26676,-0.967099 c -0.25098,-0.09367 -0.52195,-0.144675 -0.80503,-0.144675 -0.28308,0 -0.55458,0.05101 -0.80556,0.144675"
       style="fill:#d00c01;fill-opacity:1;fill-rule:nonzero;stroke:none;stroke-width:0.52616578"
       id="path5732"
       inkscape:connector-curvature="0" />
    <path
       d="m 125.99032,41.295876 -0.26729,-0.967099 c -0.16416,0.07428 -0.34622,0.11574 -0.53827,0.11574 -0.19152,0 -0.37357,-0.04161 -0.53826,-0.11574 l -0.26677,0.967099 c 0.25098,0.09367 0.52196,0.144675 0.80503,0.144675 0.28308,0 0.55458,-0.05101 0.80556,-0.144675"
       style="fill:#d00c01;fill-opacity:1;fill-rule:nonzero;stroke:none;stroke-width:0.52616578"
       id="path5736"
       inkscape:connector-curvature="0" />
    <path
       d="m 126.50139,39.12802 c 0,0.191523 -0.0416,0.373574 -0.11576,0.538265 l 0.96709,0.267291 c 0.0937,-0.250974 0.14523,-0.522485 0.14523,-0.805556 0,-0.28307 -0.0516,-0.554582 -0.14523,-0.805556 l -0.96709,0.267291 c 0.0742,0.164691 0.11576,0.346742 0.11576,0.538265"
       style="fill:#d00c01;fill-opacity:1;fill-rule:nonzero;stroke:none;stroke-width:0.52616578"
       id="path5740"
       inkscape:connector-curvature="0" />
    <path
       d="m 123.86845,39.12802 c 0,-0.191523 0.0416,-0.373574 0.11576,-0.538265 l -0.96709,-0.267291 c -0.0937,0.250974 -0.14523,0.522486 -0.14523,0.805556 0,0.283071 0.0516,0.554582 0.14523,0.805556 l 0.96709,-0.267291 c -0.0742,-0.164691 -0.11576,-0.346742 -0.11576,-0.538265"
       style="fill:#d00c01;fill-opacity:1;fill-rule:nonzero;stroke:none;stroke-width:0.52616578"
       id="path5744"
       inkscape:connector-curvature="0" />
    <path
       d="M 38.642383,34.278294 H 131.5017 l -12.56694,-3.33747 H 72.332252 Z"
       style="fill:#d00c01;fill-opacity:1;fill-rule:nonzero;stroke:none;stroke-width:0.52616578"
       id="path5748"
       inkscape:connector-curvature="0" />
    <path
       inkscape:connector-curvature="0"
       id="path5758"
       style="fill:#e4e5e6;fill-opacity:1;fill-rule:nonzero;stroke:none;stroke-width:0.52616578"
       d="m 40.232246,34.120816 c 0.04472,0.05262 0.08945,0.105233 0.134698,0.157324 h 91.134546 l -8.01035,-2.127289 H 60.116577 Z" />
  </g></a>
</svg>
