<?xml version="1.0" encoding="UTF-8" standalone="no"?>
<!-- Created with Inkscape (http://www.inkscape.org/) -->

<svg
   xmlns:dc="http://purl.org/dc/elements/1.1/"
   xmlns:cc="http://creativecommons.org/ns#"
   xmlns:rdf="http://www.w3.org/1999/02/22-rdf-syntax-ns#"
   xmlns:svg="http://www.w3.org/2000/svg"
   xmlns="http://www.w3.org/2000/svg"
   xmlns:sodipodi="http://sodipodi.sourceforge.net/DTD/sodipodi-0.dtd"
   xmlns:inkscape="http://www.inkscape.org/namespaces/inkscape"
   width="147.77345mm"
   height="59.343742mm"
   viewBox="0 0 147.77345 59.343743"
   version="1.1"
   id="svg9108"
   sodipodi:docname="9.svg"
   inkscape:version="0.92.1 r15371">
  <defs
     id="defs95">
    <clipPath
       id="clipPath4622"
       clipPathUnits="userSpaceOnUse">
      <path
         inkscape:connector-curvature="0"
         id="path4620"
         d="m 309.511,247.825 h 113.998 v -3.013 H 309.511 Z" />
    </clipPath>
    <clipPath
       id="clipPath4694"
       clipPathUnits="userSpaceOnUse">
      <path
         inkscape:connector-curvature="0"
         id="path4692"
         d="M 268.03,242.673 H 447.915 V 223.419 H 268.03 Z" />
    </clipPath>
    <clipPath
       id="clipPath4770"
       clipPathUnits="userSpaceOnUse">
      <path
         inkscape:connector-curvature="0"
         id="path4768"
         d="m 334.771,269.219 h 22.75 v -3.014 h -22.75 z" />
    </clipPath>
    <defs
       id="defs105">
      <clipPath
         clipPathUnits="userSpaceOnUse"
         id="clipPath5254">
        <path
           d="m 84.767,104.272 h 137.666 v -3.013 H 84.767 Z"
           id="path5252"
           inkscape:connector-curvature="0" />
      </clipPath>
      <clipPath
         clipPathUnits="userSpaceOnUse"
         id="clipPath5268">
        <path
           d="m 122.833,125.745 h 87.269 v -3.014 h -87.269 z"
           id="path5266"
           inkscape:connector-curvature="0" />
      </clipPath>
      <clipPath
         clipPathUnits="userSpaceOnUse"
         id="clipPath5282">
        <path
           d="m 189.943,147.292 h 8.506 v -3.013 h -8.506 z"
           id="path5280"
           inkscape:connector-curvature="0" />
      </clipPath>
      <defs
         id="defs9102">
        <clipPath
           id="clipPath4796"
           clipPathUnits="userSpaceOnUse">
          <path
             inkscape:connector-curvature="0"
             id="path4794"
             d="m 175.845,416.536 h 24.601 v -9.561 h -24.601 z" />
        </clipPath>
        <clipPath
           id="clipPath4842"
           clipPathUnits="userSpaceOnUse">
          <path
             inkscape:connector-curvature="0"
             id="path4840"
             d="m 71.864,377.941 h 142.02 v -3.013 H 71.864 Z" />
        </clipPath>
        <clipPath
           id="clipPath4862"
           clipPathUnits="userSpaceOnUse">
          <path
             inkscape:connector-curvature="0"
             id="path4860"
             d="M 90.5581,390.806 H 207.054 v -3.013 H 90.5581 Z" />
        </clipPath>
        <clipPath
           id="clipPath4882"
           clipPathUnits="userSpaceOnUse">
          <path
             inkscape:connector-curvature="0"
             id="path4880"
             d="m 109.707,403.671 h 90.207 v -3.013 h -90.207 z" />
        </clipPath>
        <clipPath
           id="clipPath4994"
           clipPathUnits="userSpaceOnUse">
          <path
             inkscape:connector-curvature="0"
             id="path4992"
             d="m 167.309,416.536 h 8.506 v -3.013 h -8.506 z" />
        </clipPath>
        <clipPath
           id="clipPath5008"
           clipPathUnits="userSpaceOnUse">
          <path
             inkscape:connector-curvature="0"
             id="path5006"
             d="m 151.396,416.536 h 8.505 v -3.013 h -8.505 z" />
        </clipPath>
        <clipPath
           id="clipPath5022"
           clipPathUnits="userSpaceOnUse">
          <path
             inkscape:connector-curvature="0"
             id="path5020"
             d="m 135.482,416.536 h 8.505 v -3.013 h -8.505 z" />
        </clipPath>
        <clipPath
           id="clipPath5036"
           clipPathUnits="userSpaceOnUse">
          <path
             inkscape:connector-curvature="0"
             id="path5034"
             d="m 36.208,374.928 h 89.681 V 349.194 H 36.208 Z" />
        </clipPath>
        <filter
           inkscape:collect="always"
           style="color-interpolation-filters:sRGB"
           id="filter10233"
           x="-0.0075199637"
           width="1.0150399"
           y="-0.019154953"
           height="1.0383099">
          <feGaussianBlur
             inkscape:collect="always"
             stdDeviation="1.7240716"
             id="feGaussianBlur10235" />
        </filter>
      </defs>
      <sodipodi:namedview
         id="base"
         pagecolor="#ffffff"
         bordercolor="#666666"
         borderopacity="1.0"
         inkscape:pageopacity="0.0"
         inkscape:pageshadow="2"
         inkscape:zoom="0.98994949"
         inkscape:cx="221.44688"
         inkscape:cy="146.98327"
         inkscape:document-units="mm"
         inkscape:current-layer="layer1"
         showgrid="false"
         fit-margin-top="0"
         fit-margin-left="0"
         fit-margin-right="0"
         fit-margin-bottom="0"
         inkscape:window-width="1920"
         inkscape:window-height="1057"
         inkscape:window-x="-8"
         inkscape:window-y="-8"
         inkscape:window-maximized="1" />
    </defs>
    <sodipodi:namedview
       inkscape:current-layer="svg9108"
       inkscape:window-maximized="1"
       inkscape:window-y="-8"
       inkscape:window-x="-8"
       inkscape:cy="193.31749"
       inkscape:cx="390.01218"
       inkscape:zoom="1.3571732"
       showgrid="false"
       id="namedview103"
       inkscape:window-height="1057"
       inkscape:window-width="1920"
       inkscape:pageshadow="2"
       inkscape:pageopacity="0"
       guidetolerance="10"
       gridtolerance="10"
       objecttolerance="10"
       borderopacity="1"
       bordercolor="#666666"
       pagecolor="#ffffff" />
    <clipPath
       id="clipPath5494"
       clipPathUnits="userSpaceOnUse">
      <path
         inkscape:connector-curvature="0"
         id="path5492"
         d="m 360.516,100.091 h 76.043 v -5.5825 h -76.043 z" />
    </clipPath>
    <clipPath
       id="clipPath5536"
       clipPathUnits="userSpaceOnUse">
      <path
         inkscape:connector-curvature="0"
         id="path5534"
         d="m 274.613,108.371 h 24.601 v -9.5608 h -24.601 z" />
    </clipPath>
    <clipPath
       id="clipPath5580"
       clipPathUnits="userSpaceOnUse">
      <path
         inkscape:connector-curvature="0"
         id="path5578"
         d="m 400.768,122.493 h 31.336 v -4.15 h -31.336 z" />
    </clipPath>
    <clipPath
       id="clipPath5494-5"
       clipPathUnits="userSpaceOnUse">
      <path
         inkscape:connector-curvature="0"
         id="path5492-8"
         d="m 360.516,100.091 h 76.043 v -5.5825 h -76.043 z" />
    </clipPath>
    <clipPath
       id="clipPath5536-0"
       clipPathUnits="userSpaceOnUse">
      <path
         inkscape:connector-curvature="0"
         id="path5534-3"
         d="m 274.613,108.371 h 24.601 v -9.5608 h -24.601 z" />
    </clipPath>
    <clipPath
       id="clipPath5580-8"
       clipPathUnits="userSpaceOnUse">
      <path
         inkscape:connector-curvature="0"
         id="path5578-7"
         d="m 400.768,122.493 h 31.336 v -4.15 h -31.336 z" />
    </clipPath>
    <clipPath
       id="clipPath5716"
       clipPathUnits="userSpaceOnUse">
      <path
         inkscape:connector-curvature="0"
         id="path5714"
         d="M 39.792,239.707 H 232.511 V 210.763 H 39.792 Z" />
    </clipPath>
    <clipPath
       id="clipPath5756"
       clipPathUnits="userSpaceOnUse">
      <path
         inkscape:connector-curvature="0"
         id="path5754"
         d="M 42.8136,243.749 H 216.275 v -4.042 H 42.8136 Z" />
    </clipPath>
  </defs>
  <sodipodi:namedview
     pagecolor="#ffffff"
     bordercolor="#666666"
     borderopacity="1"
     objecttolerance="10"
     gridtolerance="10"
     guidetolerance="10"
     inkscape:pageopacity="0"
     inkscape:pageshadow="2"
     inkscape:window-width="1920"
     inkscape:window-height="1057"
     id="namedview93"
     showgrid="false"
     inkscape:zoom="1.3571732"
     inkscape:cx="498.15933"
     inkscape:cy="123.90325"
     inkscape:window-x="-8"
     inkscape:window-y="-8"
     inkscape:window-maximized="1"
     inkscape:current-layer="svg9108" />
  <metadata
     id="metadata107">
    <rdf:RDF>
      <cc:Work
         rdf:about="">
        <dc:format>image/svg+xml</dc:format>
        <dc:type
           rdf:resource="http://purl.org/dc/dcmitype/StillImage" />
        <dc:title></dc:title>
      </cc:Work>
    </rdf:RDF>
  </metadata>
  <g
     inkscape:label="Capa 1"
     inkscape:groupmode="layer"
     id="layer1"
     transform="translate(-7.7562559,-104.79834)" />
  <path
     style="opacity:0.87900002;vector-effect:none;fill:#eaeaea;fill-opacity:1;fill-rule:nonzero;stroke:none;stroke-width:2.75274229;stroke-linecap:butt;stroke-linejoin:miter;stroke-miterlimit:4;stroke-dasharray:none;stroke-dashoffset:0;stroke-opacity:1;filter:url(#filter10233)"
     d="m 449.30859,100.91016 v 7.34765 h -18.25195 v 7.59571 h 5.68945 v 12.22265 h -83.32812 v 6.47852 c -30.63978,-9.87211 -44.46481,-27.78711 -107.93359,-27.78711 0,0 10.62513,7.63009 20.99414,24.29101 1.57775,2.53481 3.14633,5.28492 4.67382,8.24219 0.14852,0.28773 0.29767,0.5754 0.44532,0.86719 0.30024,0.59298 0.59833,1.19294 0.89453,1.80273 0.1385,0.28534 0.27459,0.57621 0.41211,0.86524 0.30058,0.63131 0.60299,1.26309 0.89843,1.91211 0.13305,0.29249 0.26067,0.59648 0.39258,0.89257 0.45977,1.03127 0.91304,2.0849 1.35742,3.16016 0.22942,0.55553 0.45878,1.11041 0.6836,1.67774 0.18805,0.47418 0.37202,0.95698 0.55664,1.43945 0.2342,0.61248 0.46504,1.23157 0.69336,1.85742 0.17419,0.47716 0.34897,0.95447 0.51953,1.43945 0.2967,0.84422 0.58611,1.70236 0.87109,2.57032 0.0839,0.25547 0.17105,0.50417 0.25391,0.76172 0.3699,1.15036 0.7289,2.3239 1.07617,3.51562 0.1132,0.3883 0.21944,0.78697 0.33008,1.17969 0.23076,0.81936 0.45663,1.64575 0.67578,2.48437 0.12576,0.48113 0.24933,0.96757 0.37109,1.45508 0.2171,0.86939 0.42509,1.75092 0.62891,2.64063 0.0938,0.40929 0.19039,0.81489 0.28125,1.22851 0.22636,1.03055 0.44096,2.07929 0.64844,3.13672 l -4.61328,13.0332 h 231.93945 l -3.28516,-12.92578 6.83789,-33.39258 h -1.71289 v -9.98242 h 0.74219 v -2.84375 H 490.4375 v -12.22265 h 5.69141 v -7.59571 H 477.875 v -7.34765 z m -93.04492,30.00976 h 12.38672 v 7.45117 c -4.47059,-0.82379 -8.57554,-1.80961 -12.38672,-2.93359 z m 15.23047,0 h 12.80078 v 9.44531 c -4.6199,-0.34692 -8.84953,-0.8629 -12.80078,-1.50195 z m 15.64648,0 h 12.80079 v 9.98242 h -0.6543 c -4.31896,0 -8.34996,-0.12205 -12.14649,-0.3457 z m 15.64454,0 h 12.80273 v 9.98242 h -12.80273 z m 15.64648,0 h 12.80274 v 9.98242 h -12.80274 z m 15.64648,0 h 2.66797 v 4.00781 5.97461 h -2.66797 z m 56.35938,0 h 3.38086 v 9.98242 h -3.38086 v -5.97461 z m 6.22461,0 h 12.80273 v 9.98242 h -12.80273 z"
     transform="matrix(0.26458333,0,0,0.26458333,0,-10.833809)"
     id="path7054"
     inkscape:connector-curvature="0" />
  <g
     transform="matrix(0.24840116,0,0,0.24840116,103.85622,-2.7390683)"
     inkscape:label="Capa 1"
     id="g7052">
    <g
       transform="matrix(7.1262954,0,0,7.1262954,-746.07223,-1777.5654)"
       id="g7050">
      <g
         id="g7048">
        <path
           d="m 119.3273,266.09491 h -8.02534 v -3.91407 h 8.02534 z"
           style="fill:#ffffff;fill-opacity:1;fill-rule:nonzero;stroke:none;stroke-width:0.35277778"
           id="path6990"
           inkscape:connector-curvature="0" />
        <path
           d="m 120.17785,262.18084 h -9.72608 v -1.13524 h 9.72608 z"
           style="fill:#d00c01;fill-opacity:1;fill-rule:nonzero;stroke:none;stroke-width:0.35277778"
           id="path6992"
           inkscape:connector-curvature="0" />
        <path
           inkscape:connector-curvature="0"
           id="path6994"
           style="fill:#063a52;fill-opacity:1;fill-rule:nonzero;stroke:none;stroke-width:0.35277778"
           d="m 115.5584,262.58039 h -3.58246 c -0.14781,0 -0.26776,0.11994 -0.26776,0.26776 v 1.10631 c 0,0.14781 0.11995,0.26776 0.26776,0.26776 h 3.58246 c 0.14781,0 0.26776,-0.11995 0.26776,-0.26776 v -1.10631 c 0,-0.14782 -0.11995,-0.26776 -0.26776,-0.26776" />
        <path
           inkscape:connector-curvature="0"
           id="path6996"
           style="fill:#a5a5a5;fill-opacity:1;fill-rule:nonzero;stroke:none;stroke-width:0.35277778"
           d="m 115.5584,262.58039 h -3.58246 c -0.1404,0 -0.25435,0.1083 -0.26564,0.24589 0.007,-7.1e-4 0.0145,-0.002 0.0219,-0.002 h 3.58246 c 0.14781,0 0.26776,0.11994 0.26776,0.26776 v 1.10631 c 0,0.007 -0.001,0.0145 -0.002,0.0219 0.13759,-0.0113 0.24589,-0.12524 0.24589,-0.26564 v -1.10631 c 0,-0.14782 -0.11995,-0.26776 -0.26776,-0.26776" />
        <path
           inkscape:connector-curvature="0"
           id="path6998"
           style="fill:#063a52;fill-opacity:1;fill-rule:nonzero;stroke:none;stroke-width:0.35277778"
           d="m 118.11858,262.58039 h -1.23507 c -0.14782,0 -0.26776,0.11994 -0.26776,0.26776 v 1.10631 c 0,0.14781 0.11994,0.26776 0.26776,0.26776 h 1.23507 c 0.14781,0 0.26776,-0.11995 0.26776,-0.26776 v -1.10631 c 0,-0.14782 -0.11995,-0.26776 -0.26776,-0.26776" />
        <path
           inkscape:connector-curvature="0"
           id="path7000"
           style="fill:#a5a5a5;fill-opacity:1;fill-rule:nonzero;stroke:none;stroke-width:0.35277778"
           d="m 118.11858,262.58039 h -1.23507 c -0.14041,0 -0.25436,0.1083 -0.26565,0.24589 0.007,-7.1e-4 0.0145,-0.002 0.0219,-0.002 h 1.23507 c 0.14781,0 0.26776,0.11994 0.26776,0.26776 v 1.10631 c 0,0.007 -0.001,0.0145 -0.002,0.0219 0.13759,-0.0113 0.24589,-0.12524 0.24589,-0.26564 v -1.10631 c 0,-0.14782 -0.11995,-0.26776 -0.26776,-0.26776" />
        <path
           inkscape:connector-curvature="0"
           id="path7002"
           style="fill:#e4e5e6;fill-opacity:1;fill-rule:nonzero;stroke:none;stroke-width:0.35277778"
           d="m 119.32731,266.09491 h -8.02535 v -1.06292 h 8.02535 z" />
        <path
           d="m 117.44947,261.04595 h -4.26967 v -1.09855 h 4.26967 z"
           style="fill:#063a52;fill-opacity:1;fill-rule:nonzero;stroke:none;stroke-width:0.35277778"
           id="path7004"
           inkscape:connector-curvature="0" />
        <path
           inkscape:connector-curvature="0"
           id="path7006"
           style="fill:#063a52;fill-opacity:1;fill-rule:nonzero;stroke:none;stroke-width:0.35277778"
           d="m 99.272532,266.47242 h -0.4251 v -2.46451 H 122.7072 v 0.4251 H 99.272532 Z" />
        <path
           d="m 101.54904,266.47239 h -0.4251 v -2.25214 h 0.4251 z"
           style="fill:#063a52;fill-opacity:1;fill-rule:nonzero;stroke:none;stroke-width:0.35277778"
           id="path7008"
           inkscape:connector-curvature="0" />
        <path
           d="m 103.8876,266.47239 h -0.4251 v -2.25214 h 0.4251 z"
           style="fill:#063a52;fill-opacity:1;fill-rule:nonzero;stroke:none;stroke-width:0.35277778"
           id="path7010"
           inkscape:connector-curvature="0" />
        <path
           d="m 106.22617,266.47239 h -0.4251 v -2.25214 h 0.4251 z"
           style="fill:#063a52;fill-opacity:1;fill-rule:nonzero;stroke:none;stroke-width:0.35277778"
           id="path7012"
           inkscape:connector-curvature="0" />
        <path
           d="m 108.56473,266.47239 h -0.4251 v -2.25214 h 0.4251 z"
           style="fill:#063a52;fill-opacity:1;fill-rule:nonzero;stroke:none;stroke-width:0.35277778"
           id="path7014"
           inkscape:connector-curvature="0" />
        <path
           d="m 110.90329,266.47239 h -0.42509 v -2.25214 h 0.42509 z"
           style="fill:#063a52;fill-opacity:1;fill-rule:nonzero;stroke:none;stroke-width:0.35277778"
           id="path7016"
           inkscape:connector-curvature="0" />
        <path
           d="m 113.24186,266.47239 h -0.4251 v -2.25214 h 0.4251 z"
           style="fill:#063a52;fill-opacity:1;fill-rule:nonzero;stroke:none;stroke-width:0.35277778"
           id="path7018"
           inkscape:connector-curvature="0" />
        <path
           d="m 115.58042,266.47239 h -0.4251 v -2.25214 h 0.4251 z"
           style="fill:#063a52;fill-opacity:1;fill-rule:nonzero;stroke:none;stroke-width:0.35277778"
           id="path7020"
           inkscape:connector-curvature="0" />
        <path
           d="m 117.91899,266.47239 h -0.4251 v -2.25214 h 0.4251 z"
           style="fill:#063a52;fill-opacity:1;fill-rule:nonzero;stroke:none;stroke-width:0.35277778"
           id="path7022"
           inkscape:connector-curvature="0" />
        <path
           d="m 120.25755,266.47239 h -0.4251 v -2.25214 h 0.4251 z"
           style="fill:#063a52;fill-opacity:1;fill-rule:nonzero;stroke:none;stroke-width:0.35277778"
           id="path7024"
           inkscape:connector-curvature="0" />
        <path
           d="m 122.59611,266.47239 h -0.42509 v -2.25214 h 0.42509 z"
           style="fill:#063a52;fill-opacity:1;fill-rule:nonzero;stroke:none;stroke-width:0.35277778"
           id="path7026"
           inkscape:connector-curvature="0" />
        <path
           inkscape:connector-curvature="0"
           id="path7028"
           style="fill:#063a52;fill-opacity:1;fill-rule:nonzero;stroke:none;stroke-width:0.26826158"
           d="m 82.714682,260.82284 c 0,0 4.30263,3.08257 5.65489,10.20445 h 33.437748 l 1.04486,-5.10223 h -17.1491 c -10.940968,0 -9.896118,-5.10222 -22.988398,-5.10222" />
        <path
           inkscape:connector-curvature="0"
           id="path7030"
           style="fill:#053242;fill-opacity:1;fill-rule:nonzero;stroke:none;stroke-width:0.26826158"
           d="m 88.369572,271.0274 h 16.685418 c -6.912508,-1.73108 -9.905498,-5.25568 -19.205338,-6.5786 1.00221,1.60902 1.98873,3.78072 2.51992,6.5786" />
        <path
           inkscape:connector-curvature="0"
           id="path7032"
           style="fill:#ffffff;fill-opacity:1;fill-rule:nonzero;stroke:none;stroke-width:0.35277778"
           d="m 119.69473,268.90761 c -0.50729,0 -0.92004,-0.41275 -0.92004,-0.92004 0,-0.5073 0.41275,-0.92005 0.92004,-0.92005 0.50729,0 0.92004,0.41275 0.92004,0.92005 0,0.50729 -0.41275,0.92004 -0.92004,0.92004 m 0,-2.53647 c -0.89112,0 -1.61643,0.72496 -1.61643,1.61643 0,0.89111 0.72531,1.61642 1.61643,1.61642 0.89112,0 1.61643,-0.72531 1.61643,-1.61642 0,-0.89147 -0.72531,-1.61643 -1.61643,-1.61643" />
        <path
           inkscape:connector-curvature="0"
           id="path7034"
           style="fill:#d00c01;fill-opacity:1;fill-rule:nonzero;stroke:none;stroke-width:0.35277778"
           d="m 119.13184,266.47239 0.18662,0.67592 c 0.115,-0.0519 0.24236,-0.0808 0.37641,-0.0808 0.13371,0 0.26106,0.0289 0.37606,0.0808 l 0.18662,-0.67592 c -0.17533,-0.0653 -0.36477,-0.10125 -0.56268,-0.10125 -0.19791,0 -0.3877,0.036 -0.56303,0.10125" />
        <path
           inkscape:connector-curvature="0"
           id="path7036"
           style="fill:#d00c01;fill-opacity:1;fill-rule:nonzero;stroke:none;stroke-width:0.35277778"
           d="m 120.25762,269.50264 -0.18662,-0.67592 c -0.115,0.0519 -0.24236,0.0808 -0.37641,0.0808 -0.13371,0 -0.26106,-0.0289 -0.37606,-0.0808 l -0.18662,0.67592 c 0.17533,0.0653 0.36477,0.10125 0.56268,0.10125 0.19791,0 0.3877,-0.036 0.56303,-0.10125" />
        <path
           inkscape:connector-curvature="0"
           id="path7038"
           style="fill:#d00c01;fill-opacity:1;fill-rule:nonzero;stroke:none;stroke-width:0.35277778"
           d="m 120.61481,267.98753 c 0,0.13406 -0.0289,0.26141 -0.0808,0.37606 l 0.67593,0.18697 c 0.0653,-0.17568 0.10124,-0.36512 0.10124,-0.56303 0,-0.19791 -0.036,-0.38735 -0.10124,-0.56303 l -0.67593,0.18697 c 0.0519,0.11465 0.0808,0.242 0.0808,0.37606" />
        <path
           inkscape:connector-curvature="0"
           id="path7040"
           style="fill:#d00c01;fill-opacity:1;fill-rule:nonzero;stroke:none;stroke-width:0.35277778"
           d="m 118.77465,267.98753 c 0,-0.13406 0.0289,-0.26141 0.0808,-0.37606 l -0.67593,-0.18697 c -0.0653,0.17568 -0.10124,0.36512 -0.10124,0.56303 0,0.19791 0.036,0.38735 0.10124,0.56303 l 0.67593,-0.18697 c -0.0519,-0.11465 -0.0808,-0.242 -0.0808,-0.37606" />
        <path
           inkscape:connector-curvature="0"
           id="path7042"
           style="fill:#ffffff;fill-opacity:1;fill-rule:nonzero;stroke:none;stroke-width:0.35432911"
           d="m 92.412202,264.95377 c 0,0.90664 -0.74132,1.64147 -1.65594,1.64147 -0.91463,0 -1.65631,-0.73483 -1.65631,-1.64147 0,-0.90664 0.74168,-1.64147 1.65631,-1.64147 0.91462,0 1.65594,0.73483 1.65594,1.64147" />
        <path
           inkscape:connector-curvature="0"
           id="path7044"
           style="fill:#053242;fill-opacity:1;fill-rule:nonzero;stroke:none;stroke-width:0.35432911"
           d="m 90.756152,263.31222 c -0.56551,0 -1.06412,0.28116 -1.36271,0.70979 0.26693,-0.18274 0.5908,-0.29069 0.93991,-0.29069 0.91464,0 1.65594,0.73484 1.65594,1.64147 0,0.34643 -0.10851,0.66711 -0.29325,0.93169 0.4324,-0.29598 0.71604,-0.79022 0.71604,-1.35079 0,-0.90663 -0.7413,-1.64147 -1.65593,-1.64147" />
        <path
           inkscape:connector-curvature="0"
           id="path7046"
           style="fill:#053242;fill-opacity:1;fill-rule:nonzero;stroke:none;stroke-width:0.28274846"
           d="M 122.32106,272.84795 H 87.654052 l 0.7156,-2.02264 H 121.8072 Z" />
      </g>
    </g>
  </g>
</svg>
