<?xml version="1.0" encoding="UTF-8" standalone="no"?>
<!-- Created with Inkscape (http://www.inkscape.org/) -->

<svg
   xmlns:dc="http://purl.org/dc/elements/1.1/"
   xmlns:cc="http://creativecommons.org/ns#"
   xmlns:rdf="http://www.w3.org/1999/02/22-rdf-syntax-ns#"
   xmlns:svg="http://www.w3.org/2000/svg"
   xmlns="http://www.w3.org/2000/svg"
   xmlns:sodipodi="http://sodipodi.sourceforge.net/DTD/sodipodi-0.dtd"
   xmlns:inkscape="http://www.inkscape.org/namespaces/inkscape"
   width="150.62901mm"
   height="150.62863mm"
   viewBox="0 0 150.62901 150.62864"
   version="1.1"
   id="svg5342"
   sodipodi:docname="a.svg"
   inkscape:version="0.92.1 r15371">
  <defs
     id="defs5336">
    <filter
       inkscape:collect="always"
       style="color-interpolation-filters:sRGB"
       id="filter6063"
       x="-0.017999975"
       width="1.0359999"
       y="-0.018000025"
       height="1.0360001">
      <feGaussianBlur
         inkscape:collect="always"
         stdDeviation="4.1214222"
         id="feGaussianBlur6065" />
    </filter>
  </defs>
  <sodipodi:namedview
     id="base"
     pagecolor="#ffffff"
     bordercolor="#666666"
     borderopacity="1.0"
     inkscape:pageopacity="0.0"
     inkscape:pageshadow="2"
     inkscape:zoom="0.175"
     inkscape:cx="69.328279"
     inkscape:cy="-1341.1066"
     inkscape:document-units="mm"
     inkscape:current-layer="g5315"
     showgrid="false"
     fit-margin-top="0"
     fit-margin-left="0"
     fit-margin-right="0"
     fit-margin-bottom="0"
     inkscape:window-width="958"
     inkscape:window-height="1048"
     inkscape:window-x="-7"
     inkscape:window-y="0"
     inkscape:window-maximized="0" />
  <metadata
     id="metadata5339">
    <rdf:RDF>
      <cc:Work
         rdf:about="">
        <dc:format>image/svg+xml</dc:format>
        <dc:type
           rdf:resource="http://purl.org/dc/dcmitype/StillImage" />
        <dc:title></dc:title>
      </cc:Work>
    </rdf:RDF>
  </metadata>
  <g
     inkscape:label="Capa 1"
     inkscape:groupmode="layer"
     id="layer1"
     transform="translate(17.106113,35.338013)">
    <g
       id="g5998">
      <g
         transform="translate(-274.03131,-584.21435)"
         id="g5315">
        <g
           id="g6114">
          <path
             transform="matrix(0.26458333,0,0,0.26458333,259.5423,551.49344)"
             style="opacity:1;vector-effect:none;fill:#f6ffff;fill-opacity:0.88477334;fill-rule:nonzero;stroke:none;stroke-width:0.98645669;stroke-linecap:round;stroke-linejoin:bevel;stroke-miterlimit:4;stroke-dasharray:none;stroke-dashoffset:0;stroke-opacity:1;paint-order:fill markers stroke;filter:url(#filter6063)"
             d="m 274.76172,0 a 274.76149,274.76149 0 0 0 -5.57813,0.27929688 274.76149,274.76149 0 0 0 -12.58398,0.62890624 274.76149,274.76149 0 0 0 -0.0449,0.003906 274.76149,274.76149 0 0 0 -5.22852,0.26171868 274.76149,274.76149 0 0 0 -4.43164,0.5371094 274.76149,274.76149 0 0 0 -2.75586,0.2285156 l -0.01,-0.082031 a 274.76149,274.76149 0 0 0 -1.19922,0.1816406 274.76149,274.76149 0 0 0 -4.41016,0.6660156 274.76149,274.76149 0 0 0 -0.74219,0.1113281 274.76149,274.76149 0 0 0 -0.0254,0.00391 274.76149,274.76149 0 0 0 -7.48242,1.1308594 274.76149,274.76149 0 0 0 -2.12891,0.3222656 274.76149,274.76149 0 0 0 -0.006,0.00195 274.76149,274.76149 0 0 0 -4.00977,0.6054688 274.76149,274.76149 0 0 0 -5.5,1.234375 274.76149,274.76149 0 0 0 -3.60938,0.6992187 l -0.004,-0.017578 a 274.76149,274.76149 0 0 0 -0.29883,0.076172 274.76149,274.76149 0 0 0 -3.91406,1 274.76149,274.76149 0 0 0 -0.01,0.00195 274.76149,274.76149 0 0 0 -1.56445,0.4003906 274.76149,274.76149 0 0 0 -6.77539,1.7304688 274.76149,274.76149 0 0 0 -5.00586,1.277344 274.76149,274.76149 0 0 0 -1.50977,0.501953 274.76149,274.76149 0 0 0 -4.09375,1.117188 274.76149,274.76149 0 0 0 -7.38476,2.695312 274.76149,274.76149 0 0 0 -0.0176,0.0059 274.76149,274.76149 0 0 0 -5.5957,2.042968 274.76149,274.76149 0 0 0 -7.30078,2.664063 274.76149,274.76149 0 0 0 -1.72657,0.773437 274.76149,274.76149 0 0 0 -3.20312,1.21875 l -0.0195,-0.04687 a 274.76149,274.76149 0 0 0 -0.53711,0.259766 274.76149,274.76149 0 0 0 -0.006,0.002 274.76149,274.76149 0 0 0 -1.72266,0.832031 274.76149,274.76149 0 0 0 -5.32617,2.574219 274.76149,274.76149 0 0 0 -0.006,0.002 274.76149,274.76149 0 0 0 -11.28125,5.451172 274.76149,274.76149 0 0 0 -1.06445,0.513672 274.76149,274.76149 0 0 0 -7.27539,4.173828 274.76149,274.76149 0 0 0 -3.60157,2.023438 274.76149,274.76149 0 0 0 -1.02343,0.628906 274.76149,274.76149 0 0 0 -10.70899,6.564453 274.76149,274.76149 0 0 0 -0.0117,0.0078 274.76149,274.76149 0 0 0 -0.99023,0.607422 274.76149,274.76149 0 0 0 -6.76367,4.837891 274.76149,274.76149 0 0 0 -3.42578,2.404297 274.76149,274.76149 0 0 0 -8.36719,6.361328 274.76149,274.76149 0 0 0 -2.60156,1.978516 274.76149,274.76149 0 0 0 -0.94141,0.714843 274.76149,274.76149 0 0 0 -2.414062,2.121094 L 98.375993,64.14075 a 274.76149,274.76149 0 0 0 -0.414062,0.316406 274.76149,274.76149 0 0 0 -0.785157,0.695313 274.76149,274.76149 0 0 0 -5.646484,5.259765 274.76149,274.76149 0 0 0 -0.869141,0.810547 274.76149,274.76149 0 0 0 -0.0078,0.0059 274.76149,274.76149 0 0 0 -5.384766,5.017578 274.76149,274.76149 0 0 0 -2.107422,1.960937 274.76149,274.76149 0 0 0 -0.816406,0.761719 274.76149,274.76149 0 0 0 -0.0039,0.0039 274.76149,274.76149 0 0 0 -1.744141,1.625 274.76149,274.76149 0 0 0 -4.9375,5.300782 274.76149,274.76149 0 0 0 -2.818359,2.919921 274.76149,274.76149 0 0 0 -1.611328,1.833985 274.76149,274.76149 0 0 0 -0.002,0.002 274.76149,274.76149 0 0 0 -0.90625,1.03125 274.76149,274.76149 0 0 0 -6.558594,7.464844 274.76149,274.76149 0 0 0 -0.0098,0.01172 274.76149,274.76149 0 0 0 -1.5625,1.779303 274.76149,274.76149 0 0 0 -4.417968,5.81054 274.76149,274.76149 0 0 0 -2.28125,2.89453 l -0.01367,-0.01 a 274.76149,274.76149 0 0 0 -0.205078,0.28711 274.76149,274.76149 0 0 0 -1.384766,1.9375 274.76149,274.76149 0 0 0 -0.002,0.002 274.76149,274.76149 0 0 0 -2.865235,4.00781 274.76149,274.76149 0 0 0 -4.974609,6.95703 274.76149,274.76149 0 0 0 -0.171875,0.24024 274.76149,274.76149 0 0 0 -0.04687,0.0762 274.76149,274.76149 0 0 0 -2.675781,3.87305 274.76149,274.76149 0 0 0 -4.38086,7.63867 274.76149,274.76149 0 0 0 -0.01563,0.0234 274.76149,274.76149 0 0 0 -2.523437,4.40039 274.76149,274.76149 0 0 0 -3.591797,6.26172 274.76149,274.76149 0 0 0 -0.761719,1.32617 274.76149,274.76149 0 0 0 -0.0059,0.01 274.76149,274.76149 0 0 0 -0.738281,1.28907 274.76149,274.76149 0 0 0 -0.457032,0.94922 274.76149,274.76149 0 0 0 -1.166015,2.0664 274.76149,274.76149 0 0 0 -0.38086,0.85156 l 0.117188,0.0586 a 274.76149,274.76149 0 0 0 -2.085938,4.33984 274.76149,274.76149 0 0 0 -1.226562,2.74219 274.76149,274.76149 0 0 0 -1.398438,3.12109 274.76149,274.76149 0 0 0 -4.228515,9.44922 274.76149,274.76149 0 0 0 -3.105469,8.50586 274.76149,274.76149 0 0 0 -1.369141,3.69336 274.76149,274.76149 0 0 0 -0.216796,0.6543 274.76149,274.76149 0 0 0 -4.125,12.41797 274.76149,274.76149 0 0 0 -0.216797,0.65234 274.76149,274.76149 0 0 0 -2.1855472,8.56055 274.76149,274.76149 0 0 0 -1.0449219,4.00195 274.76149,274.76149 0 0 0 -0.1542969,0.68945 274.76149,274.76149 0 0 0 -2.8652344,12.76172 274.76149,274.76149 0 0 0 -0.00195,0.006 274.76149,274.76149 0 0 0 -0.1484375,0.66602 274.76149,274.76149 0 0 0 -1.3417969,8.87304 274.76149,274.76149 0 0 0 -0.625,4.00586 274.76149,274.76149 0 0 0 -0.083984,0.68946 274.76149,274.76149 0 0 0 0,0.002 274.76149,274.76149 0 0 0 -0.041016,0.33008 274.76149,274.76149 0 0 0 -1.5253906,12.57812 274.76149,274.76149 0 0 0 -0.083984,0.69531 274.76149,274.76149 0 0 0 -0.33398435,2.74219 274.76149,274.76149 0 0 0 -0.18164063,2.08203 274.76149,274.76149 0 0 0 -0.15039062,4.25 274.76149,274.76149 0 0 0 -0.0664063,5.0293 274.76149,274.76149 0 0 0 -0.31054687,5.64648 274.76149,274.76149 0 0 0 -0.08203126,2.29297 H 0.0703125 A 274.76149,274.76149 0 0 0 0,274.76172 a 274.76149,274.76149 0 0 0 0.25390625,5.06836 274.76149,274.76149 0 0 0 0.1953125,3.89062 274.76149,274.76149 0 0 0 0.49023437,9.79688 274.76149,274.76149 0 0 0 0,0.002 274.76149,274.76149 0 0 0 0.23437498,4.67578 274.76149,274.76149 0 0 0 0.609375,5.01367 274.76149,274.76149 0 0 0 0.3476563,4.00391 274.76149,274.76149 0 0 0 2.046875,13.54492 274.76149,274.76149 0 0 0 0.00195,0.0137 274.76149,274.76149 0 0 0 0.6953125,4.59961 274.76149,274.76149 0 0 0 1.1132812,4.95899 274.76149,274.76149 0 0 0 0.7441407,3.93554 274.76149,274.76149 0 0 0 1.1503906,4.50586 274.76149,274.76149 0 0 0 0.00977,0.043 274.76149,274.76149 0 0 0 3.3789056,13.23438 274.76149,274.76149 0 0 0 1.59961,4.8125 274.76149,274.76149 0 0 0 1.140625,3.86914 274.76149,274.76149 0 0 0 1.605469,4.39648 274.76149,274.76149 0 0 0 0.0039,0.0117 274.76149,274.76149 0 0 0 3.08789,8.45508 274.76149,274.76149 0 0 0 1.59961,4.38281 274.76149,274.76149 0 0 0 2.068359,4.62305 274.76149,274.76149 0 0 0 1.521485,3.73437 274.76149,274.76149 0 0 0 2.027343,4.19532 274.76149,274.76149 0 0 0 3.933594,8.14453 274.76149,274.76149 0 0 0 0.0098,0.0176 274.76149,274.76149 0 0 0 2.019531,4.18164 274.76149,274.76149 0 0 0 2.527344,4.40429 274.76149,274.76149 0 0 0 1.86914,3.53125 274.76149,274.76149 0 0 0 2.423828,3.95313 274.76149,274.76149 0 0 0 0.01758,0.0312 274.76149,274.76149 0 0 0 3.269532,5.33008 274.76149,274.76149 0 0 0 1.464844,2.39062 274.76149,274.76149 0 0 0 0.0078,0.01 274.76149,274.76149 0 0 0 2.421875,3.95117 274.76149,274.76149 0 0 0 2.9375,4.10937 274.76149,274.76149 0 0 0 2.230469,3.35352 274.76149,274.76149 0 0 0 2.796875,3.67969 274.76149,274.76149 0 0 0 0.01172,0.0156 274.76149,274.76149 0 0 0 5.501953,7.23633 274.76149,274.76149 0 0 0 2.824218,3.7168 274.76149,274.76149 0 0 0 3.363282,3.82617 274.76149,274.76149 0 0 0 0.3125,0.38281 l -0.166016,0.14258 a 274.76149,274.76149 0 0 0 2.359375,2.5332 274.76149,274.76149 0 0 0 0.002,0.002 274.76149,274.76149 0 0 0 3.164063,3.39648 274.76149,274.76149 0 0 0 7.224609,7.75586 274.76149,274.76149 0 0 0 0.01172,0.0117 274.76149,274.76149 0 0 0 2.132812,2.28906 274.76149,274.76149 0 0 0 4.753906,4.42969 274.76149,274.76149 0 0 0 2.902344,2.83008 274.76149,274.76149 0 0 0 2.390625,2.09961 274.76149,274.76149 0 0 0 7.935547,6.97265 274.76149,274.76149 0 0 0 0.01367,0.01 274.76149,274.76149 0 0 0 2.357424,2.07226 274.76149,274.76149 0 0 0 5.20899,3.95899 274.76149,274.76149 0 0 0 3.13086,2.49609 274.76149,274.76149 0 0 0 2.56445,1.83399 274.76149,274.76149 0 0 0 0.0156,0.0117 274.76149,274.76149 0 0 0 8.61524,6.16016 274.76149,274.76149 0 0 0 2.56445,1.83399 274.76149,274.76149 0 0 0 5.55274,3.40429 274.76149,274.76149 0 0 0 3.375,2.17774 274.76149,274.76149 0 0 0 2.74218,1.57226 274.76149,274.76149 0 0 0 9.19922,5.27735 274.76149,274.76149 0 0 0 2.74024,1.57226 274.76149,274.76149 0 0 0 5.91406,2.85742 274.76149,274.76149 0 0 0 3.5293,1.80664 274.76149,274.76149 0 0 0 2.84179,1.27149 274.76149,274.76149 0 0 0 0.0234,0.0117 274.76149,274.76149 0 0 0 8.48242,3.79687 274.76149,274.76149 0 0 0 1.20703,0.53907 274.76149,274.76149 0 0 0 0.002,0 274.76149,274.76149 0 0 0 2.89648,1.29687 274.76149,274.76149 0 0 0 6.17774,2.25391 274.76149,274.76149 0 0 0 3.68164,1.4414 274.76149,274.76149 0 0 0 2.96289,0.98438 274.76149,274.76149 0 0 0 10.07812,3.34961 274.76149,274.76149 0 0 0 3.01953,1.0039 274.76149,274.76149 0 0 0 6.39844,1.63282 274.76149,274.76149 0 0 0 3.79102,1.0625 274.76149,274.76149 0 0 0 3.04296,0.68359 274.76149,274.76149 0 0 0 0.002,0 274.76149,274.76149 0 0 0 1.15234,0.25976 274.76149,274.76149 0 0 0 9.1836,2.06055 274.76149,274.76149 0 0 0 0.006,0 274.76149,274.76149 0 0 0 3.10157,0.69727 274.76149,274.76149 0 0 0 6.51562,0.98437 274.76149,274.76149 0 0 0 3.89844,0.68164 274.76149,274.76149 0 0 0 3.10352,0.37696 274.76149,274.76149 0 0 0 0.0273,0.004 274.76149,274.76149 0 0 0 9.42187,1.14258 274.76149,274.76149 0 0 0 1.0918,0.13281 274.76149,274.76149 0 0 0 0.002,0 274.76149,274.76149 0 0 0 3.13868,0.38086 274.76149,274.76149 0 0 0 6.58007,0.33008 274.76149,274.76149 0 0 0 6.47266,0.47266 274.76149,274.76149 0 0 0 6.45898,0.22851 274.76149,274.76149 0 0 0 0.69922,-0.0195 274.76149,274.76149 0 0 0 3.06446,0.1543 274.76149,274.76149 0 0 0 0.13281,0.004 274.76149,274.76149 0 0 0 10.50586,-0.52539 274.76149,274.76149 0 0 0 12.91015,-0.64453 274.76149,274.76149 0 0 0 0.002,0 274.76149,274.76149 0 0 0 0.85547,-0.043 274.76149,274.76149 0 0 0 9.61718,-1.22851 274.76149,274.76149 0 0 0 3.14063,-0.38086 274.76149,274.76149 0 0 0 0.83789,-0.12695 274.76149,274.76149 0 0 0 10.44922,-1.58008 274.76149,274.76149 0 0 0 2.31836,-0.34961 274.76149,274.76149 0 0 0 13.33594,-2.99414 274.76149,274.76149 0 0 0 13.3457,-3.40821 274.76149,274.76149 0 0 0 12.97656,-4.3125 274.76149,274.76149 0 0 0 12.95313,-4.72656 274.76149,274.76149 0 0 0 12.46679,-5.58008 274.76149,274.76149 0 0 0 12.4043,-5.99023 274.76149,274.76149 0 0 0 11.89453,-6.82422 274.76149,274.76149 0 0 0 11.71094,-7.17969 274.76149,274.76149 0 0 0 11.13476,-7.96289 274.76149,274.76149 0 0 0 10.96485,-8.33398 274.76149,274.76149 0 0 0 10.2832,-9.03516 274.76149,274.76149 0 0 0 10.05664,-9.36914 274.76149,274.76149 0 0 0 9.35938,-10.04687 274.76149,274.76149 0 0 0 9.05468,-10.30664 274.76149,274.76149 0 0 0 8.30078,-10.91993 274.76149,274.76149 0 0 0 7.99219,-11.17773 274.76149,274.76149 0 0 0 7.17383,-11.70117 274.76149,274.76149 0 0 0 6.82031,-11.88867 274.76149,274.76149 0 0 0 5.97852,-12.37305 274.76149,274.76149 0 0 0 5.60937,-12.53516 274.76149,274.76149 0 0 0 4.68946,-12.84765 274.76149,274.76149 0 0 0 4.3457,-13.07618 274.76149,274.76149 0 0 0 3.38281,-13.25 274.76149,274.76149 0 0 0 3.01563,-13.43359 274.76149,274.76149 0 0 0 2.05078,-13.57031 274.76149,274.76149 0 0 0 1.65039,-13.60352 274.76149,274.76149 0 0 0 1.17383,-23.43359 274.76149,274.76149 0 0 0 -1.17188,-23.41211 274.76149,274.76149 0 0 0 -1.65625,-13.64258 274.76149,274.76149 0 0 0 -2.04883,-13.55859 274.76149,274.76149 0 0 0 -3.01171,-13.42188 274.76149,274.76149 0 0 0 -3.38672,-13.25781 274.76149,274.76149 0 0 0 -4.33985,-13.0625 274.76149,274.76149 0 0 0 -4.69726,-12.86914 274.76149,274.76149 0 0 0 -5.61162,-12.5378 274.76149,274.76149 0 0 0 -5.96289,-12.34375 274.76149,274.76149 0 0 0 -6.83984,-11.92773 274.76149,274.76149 0 0 0 -7.16407,-11.6836 274.76149,274.76149 0 0 0 -7.98437,-11.16406 274.76149,274.76149 0 0 0 -8.30664,-10.92774 274.76149,274.76149 0 0 0 -9.06836,-10.322261 274.76149,274.76149 0 0 0 -9.34571,-10.03125 274.76149,274.76149 0 0 0 -10.04687,-9.359375 274.76149,274.76149 0 0 0 -10.3125,-9.058593 274.76149,274.76149 0 0 0 -10.89063,-8.28125 A 274.76149,274.76149 0 0 0 426.46484,45.880859 274.76149,274.76149 0 0 0 414.82422,38.744141 274.76149,274.76149 0 0 0 402.85938,31.880859 274.76149,274.76149 0 0 0 390.5332,25.927734 274.76149,274.76149 0 0 0 377.98633,20.3125 274.76149,274.76149 0 0 0 365.11719,15.615234 274.76149,274.76149 0 0 0 352.05469,11.275391 274.76149,274.76149 0 0 0 338.79688,7.8886719 274.76149,274.76149 0 0 0 325.375,4.8769531 274.76149,274.76149 0 0 0 311.81641,2.828125 274.76149,274.76149 0 0 0 298.17383,1.171875 274.76149,274.76149 0 0 0 274.76172,0 Z m 0,92.689453 a 182.07074,182.07074 0 0 1 182.07226,182.072267 182.07074,182.07074 0 0 1 -150.03515,179.17773 182.07074,182.07074 0 0 1 -0.006,0 182.07074,182.07074 0 0 1 -14.32813,1.85157 182.07074,182.07074 0 0 1 -4.07031,0.49414 182.07074,182.07074 0 0 1 -13.63281,0.54687 182.07074,182.07074 0 0 1 -135.875,-61.30469 182.07074,182.07074 0 0 1 -10.13477,-12.32617 182.07074,182.07074 0 0 1 -0.65625,-0.91992 182.07074,182.07074 0 0 1 -9.25976,-13.88672 182.07074,182.07074 0 0 1 -1.13477,-1.98047 182.07074,182.07074 0 0 1 -7.27344,-13.69531 182.07074,182.07074 0 0 1 -1.43359,-3.20508 182.07074,182.07074 0 0 1 -5.41016,-13.23437 182.07074,182.07074 0 0 1 -1.48828,-4.47657 182.07074,182.07074 0 0 1 -3.703122,-12.49414 182.07074,182.07074 0 0 1 -1.332031,-5.93359 182.07074,182.07074 0 0 1 -2.179688,-11.44531 182.07074,182.07074 0 0 1 -0.90039,-7.43164 182.07074,182.07074 0 0 1 -0.984375,-11.15625 182.07074,182.07074 0 0 1 -0.304688,-8.58008 182.07074,182.07074 0 0 1 0.199219,-3.67969 182.07074,182.07074 0 0 1 0.824219,-14.80469 182.07074,182.07074 0 0 1 0.146484,-1.33593 182.07074,182.07074 0 0 1 18.330082,-61.68164 182.07074,182.07074 0 0 1 16.45117,-26.65235 182.07074,182.07074 0 0 1 22.61328,-25.35351 182.07074,182.07074 0 0 1 50.61914,-33.08008 182.07074,182.07074 0 0 1 31.78516,-10.480471 182.07074,182.07074 0 0 1 17.51953,-3.234375 182.07074,182.07074 0 0 1 17.55469,-1.554687 182.07074,182.07074 0 0 1 2.33007,-0.08398 182.07074,182.07074 0 0 1 3.69727,-0.130859 z"
             id="path5913"
             inkscape:connector-curvature="0" />
          <path
             inkscape:connector-curvature="0"
             id="circle5150"
             d="m 332.23973,551.49358 a 72.69731,72.69731 0 0 0 -6.20067,0.31057 72.69731,72.69731 0 0 0 -3.59151,0.43563 72.69731,72.69731 0 0 0 -3.60545,0.54518 72.69731,72.69731 0 0 0 -3.52848,0.79221 72.69731,72.69731 0 0 0 -3.53105,0.90176 72.69731,72.69731 0 0 0 -3.44112,1.14308 72.69731,72.69731 0 0 0 -3.4122,1.24539 72.69731,72.69731 0 0 0 -3.3197,1.48569 72.69731,72.69731 0 0 0 -3.26647,1.57821 72.69731,72.69731 0 0 0 -3.14864,1.8061 72.69731,72.69731 0 0 0 -3.09851,1.8996 72.69731,72.69731 0 0 0 -2.94609,2.10685 72.69731,72.69731 0 0 0 -2.9011,2.20504 72.69731,72.69731 0 0 0 -2.72076,2.39056 72.69731,72.69731 0 0 0 -2.66084,2.47891 72.69731,72.69731 0 0 0 -2.4789,2.66084 72.69731,72.69731 0 0 0 -2.39107,2.72179 72.69731,72.69731 0 0 0 -2.19729,2.88973 72.69731,72.69731 0 0 0 -2.11976,2.96468 72.69731,72.69731 0 0 0 -1.88362,3.07218 72.69731,72.69731 0 0 0 -1.81951,3.17188 72.69731,72.69731 0 0 0 -1.57253,3.25615 72.69731,72.69731 0 0 0 -1.48878,3.32589 72.69731,72.69731 0 0 0 -1.24127,3.40082 72.69731,72.69731 0 0 0 -1.14877,3.45819 72.69731,72.69731 0 0 0 -0.89556,3.50625 72.69731,72.69731 0 0 0 -0.79787,3.55431 72.69731,72.69731 0 0 0 -0.54261,3.59048 72.69731,72.69731 0 0 0 -0.43667,3.59926 72.69731,72.69731 0 0 0 -0.31057,6.20013 72.69731,72.69731 0 0 0 0.31057,6.20014 72.69731,72.69731 0 0 0 0.43717,3.60083 72.69731,72.69731 0 0 0 0.54211,3.58944 72.69731,72.69731 0 0 0 0.79838,3.55687 72.69731,72.69731 0 0 0 0.89402,3.5016 72.69731,72.69731 0 0 0 1.15083,3.46335 72.69731,72.69731 0 0 0 1.24024,3.39669 72.69731,72.69731 0 0 0 1.48619,3.32126 72.69731,72.69731 0 0 0 1.57768,3.26594 72.69731,72.69731 0 0 0 1.8092,3.15381 72.69731,72.69731 0 0 0 1.8955,3.09078 72.69731,72.69731 0 0 0 2.11047,2.95227 72.69731,72.69731 0 0 0 2.20295,2.89801 72.69731,72.69731 0 0 0 2.39057,2.72076 72.69731,72.69731 0 0 0 2.4789,2.66081 72.69731,72.69731 0 0 0 2.65825,2.47634 72.69731,72.69731 0 0 0 2.72695,2.39573 72.69731,72.69731 0 0 0 2.88925,2.19625 72.69731,72.69731 0 0 0 2.95794,2.11511 72.69731,72.69731 0 0 0 3.08768,1.8929 72.69731,72.69731 0 0 0 3.15897,1.81229 72.69731,72.69731 0 0 0 3.25665,1.57356 72.69731,72.69731 0 0 0 3.33055,1.49035 72.69731,72.69731 0 0 0 3.39257,1.23817 72.69731,72.69731 0 0 0 3.4654,1.15186 72.69731,72.69731 0 0 0 3.5016,0.894 72.69731,72.69731 0 0 0 3.5569,0.79841 72.69731,72.69731 0 0 0 3.58376,0.54157 72.69731,72.69731 0 0 0 3.6127,0.43821 72.69731,72.69731 0 0 0 6.15828,0.3085 72.69731,72.69731 0 0 0 0.0351,10e-4 72.69731,72.69731 0 0 0 6.19548,-0.30953 72.69731,72.69731 0 0 0 3.60236,-0.43718 72.69731,72.69731 0 0 0 3.59978,-0.54416 72.69731,72.69731 0 0 0 3.52846,-0.79219 72.69731,72.69731 0 0 0 3.53105,-0.90176 72.69731,72.69731 0 0 0 3.43339,-1.14101 72.69731,72.69731 0 0 0 3.42718,-1.25058 72.69731,72.69731 0 0 0 3.2985,-1.47638 72.69731,72.69731 0 0 0 3.28198,-1.58493 72.69731,72.69731 0 0 0 3.14711,-1.80557 72.69731,72.69731 0 0 0 3.09851,-1.89963 72.69731,72.69731 0 0 0 2.94608,-2.10685 72.69731,72.69731 0 0 0 2.9011,-2.20504 72.69731,72.69731 0 0 0 2.72077,-2.39053 72.69731,72.69731 0 0 0 2.66081,-2.47894 72.69731,72.69731 0 0 0 2.47634,-2.65821 72.69731,72.69731 0 0 0 2.39572,-2.72698 72.69731,72.69731 0 0 0 2.19625,-2.88923 72.69731,72.69731 0 0 0 2.11461,-2.95743 72.69731,72.69731 0 0 0 1.89806,-3.09594 72.69731,72.69731 0 0 0 1.80454,-3.14556 72.69731,72.69731 0 0 0 1.58181,-3.27368 72.69731,72.69731 0 0 0 1.48416,-3.31661 72.69731,72.69731 0 0 0 1.24076,-3.39926 72.69731,72.69731 0 0 0 1.1498,-3.45974 72.69731,72.69731 0 0 0 0.89503,-3.50573 72.69731,72.69731 0 0 0 0.79788,-3.55431 72.69731,72.69731 0 0 0 0.54261,-3.59048 72.69731,72.69731 0 0 0 0.43666,-3.59926 72.69731,72.69731 0 0 0 0.31057,-6.20014 72.69731,72.69731 0 0 0 -0.31006,-6.19445 72.69731,72.69731 0 0 0 -0.43821,-3.6096 72.69731,72.69731 0 0 0 -0.54207,-3.58738 72.69731,72.69731 0 0 0 -0.79688,-3.55121 72.69731,72.69731 0 0 0 -0.89606,-3.50779 72.69731,72.69731 0 0 0 -1.14824,-3.45612 72.69731,72.69731 0 0 0 -1.24283,-3.40495 72.69731,72.69731 0 0 0 -1.48465,-3.31711 72.69731,72.69731 0 0 0 -1.57769,-3.26596 72.69731,72.69731 0 0 0 -1.80972,-3.15588 72.69731,72.69731 0 0 0 -1.89547,-3.09128 72.69731,72.69731 0 0 0 -2.11254,-2.95384 72.69731,72.69731 0 0 0 -2.19779,-2.89128 72.69731,72.69731 0 0 0 -2.39935,-2.73111 72.69731,72.69731 0 0 0 -2.47272,-2.65409 72.69731,72.69731 0 0 0 -2.65824,-2.47634 72.69731,72.69731 0 0 0 -2.72851,-2.39676 72.69731,72.69731 0 0 0 -2.88147,-2.19106 72.69731,72.69731 0 0 0 -2.96675,-2.12186 72.69731,72.69731 0 0 0 -3.07991,-1.88825 72.69731,72.69731 0 0 0 -3.16571,-1.81591 72.69731,72.69731 0 0 0 -3.26128,-1.57509 72.69731,72.69731 0 0 0 -3.3197,-1.48569 72.69731,72.69731 0 0 0 -3.40495,-1.24283 72.69731,72.69731 0 0 0 -3.45612,-1.14824 72.69731,72.69731 0 0 0 -3.50782,-0.89609 72.69731,72.69731 0 0 0 -3.55119,-0.79684 72.69731,72.69731 0 0 0 -3.58738,-0.54208 72.69731,72.69731 0 0 0 -3.6096,-0.43823 72.69731,72.69731 0 0 0 -6.19445,-0.31004 z m 0,24.52407 a 48.172883,48.172883 0 0 1 48.17327,48.17329 48.172883,48.172883 0 0 1 -48.17327,48.17277 48.172883,48.172883 0 0 1 -48.17277,-48.17277 48.172883,48.172883 0 0 1 48.17277,-48.17329 z"
             style="opacity:1;vector-effect:none;fill:#f6ba01;fill-opacity:1;fill-rule:nonzero;stroke:none;stroke-width:0.26100001;stroke-linecap:round;stroke-linejoin:bevel;stroke-miterlimit:4;stroke-dasharray:none;stroke-dashoffset:0;stroke-opacity:1;paint-order:fill markers stroke" />
          <path
             inkscape:connector-curvature="0"
             id="circle5152"
             d="m 268.17852,589.9486 a 72.69731,72.69731 0 0 0 -0.39844,0.69453 72.69731,72.69731 0 0 0 -1.05108,2.18694 72.69731,72.69731 0 0 0 -1.73686,3.88141 72.69731,72.69731 0 0 0 -1.26039,3.39773 72.69731,72.69731 0 0 0 -1.14874,3.45871 72.69731,72.69731 0 0 0 -0.9121,3.49641 72.69731,72.69731 0 0 0 -0.79891,3.55897 72.69731,72.69731 0 0 0 -0.56018,3.58531 72.69731,72.69731 0 0 0 -0.43667,3.59823 72.69731,72.69731 0 0 0 -0.29818,5.40949 72.69731,72.69731 0 0 0 -0.0217,0.60669 l 24.52407,0.12401 a 48.172883,48.172883 0 0 1 5.6932,-22.45548 z"
             style="opacity:1;vector-effect:none;fill:#f4396f;fill-opacity:1;fill-rule:nonzero;stroke:none;stroke-width:0.26100001;stroke-linecap:round;stroke-linejoin:bevel;stroke-miterlimit:4;stroke-dasharray:none;stroke-dashoffset:0;stroke-opacity:1;paint-order:fill markers stroke" />
          <path
             inkscape:connector-curvature="0"
             id="circle5154"
             d="m 295.61766,655.40299 -18.69135,15.9303 a 72.69731,72.69731 0 0 0 3.37343,3.62149 72.69731,72.69731 0 0 0 2.59313,2.52954 72.69731,72.69731 0 0 0 2.73212,2.40038 72.69731,72.69731 0 0 0 2.83395,2.25878 72.69731,72.69731 0 0 0 2.96209,2.1182 72.69731,72.69731 0 0 0 3.04064,1.96218 72.69731,72.69731 0 0 0 3.1595,1.81229 72.69731,72.69731 0 0 0 3.22358,1.65002 72.69731,72.69731 0 0 0 3.32176,1.48672 72.69731,72.69731 0 0 0 3.3755,1.32085 72.69731,72.69731 0 0 0 3.45043,1.1467 72.69731,72.69731 0 0 0 3.49488,0.97875 72.69731,72.69731 0 0 0 3.54034,0.79478 72.69731,72.69731 0 0 0 3.57756,0.62529 72.69731,72.69731 0 0 0 3.61014,0.43823 72.69731,72.69731 0 0 0 4.28447,0.31316 72.69731,72.69731 0 0 0 1.70895,0.0605 72.69731,72.69731 0 0 0 3.81061,-0.10231 72.69731,72.69731 0 0 0 3.64267,-0.18191 72.69731,72.69731 0 0 0 3.5972,-0.45942 72.69731,72.69731 0 0 0 2.76468,-0.41804 l -4.30773,-24.09105 a 48.172883,48.172883 0 0 1 -8.47648,0.76533 48.172883,48.172883 0 0 1 -36.62207,-16.96072 z"
             style="opacity:1;vector-effect:none;fill:#56c04e;fill-opacity:1;fill-rule:nonzero;stroke:none;stroke-width:0.26100001;stroke-linecap:round;stroke-linejoin:bevel;stroke-miterlimit:4;stroke-dasharray:none;stroke-dashoffset:0;stroke-opacity:1;paint-order:fill markers stroke" />
          <path
             inkscape:connector-curvature="0"
             id="circle5156"
             d="m 260.07513,616.15785 a 72.69731,72.69731 0 0 0 -0.31057,2.5585 72.69731,72.69731 0 0 0 -0.048,0.55086 72.69731,72.69731 0 0 0 -0.0398,1.12448 72.69731,72.69731 0 0 0 -0.0672,5.14024 72.69731,72.69731 0 0 0 0.18137,3.62149 72.69731,72.69731 0 0 0 0.31523,3.62357 72.69731,72.69731 0 0 0 0.54157,3.58376 72.69731,72.69731 0 0 0 0.67593,3.57393 72.69731,72.69731 0 0 0 0.8971,3.51349 72.69731,72.69731 0 0 0 1.02888,3.48866 72.69731,72.69731 0 0 0 1.2428,3.40341 72.69731,72.69731 0 0 0 1.37306,3.37088 72.69731,72.69731 0 0 0 1.57715,3.2649 72.69731,72.69731 0 0 0 1.70016,3.21067 72.69731,72.69731 0 0 0 1.8986,3.09694 72.69731,72.69731 0 0 0 2.01023,3.02258 72.69731,72.69731 0 0 0 2.19882,2.89232 72.69731,72.69731 0 0 0 2.30063,2.80551 72.69731,72.69731 0 0 0 0.91363,0.98083 l 18.13944,-16.45896 a 48.172883,48.172883 0 0 1 -12.5372,-32.33497 48.172883,48.172883 0 0 1 0.31885,-5.3268 z"
             style="opacity:1;vector-effect:none;fill:#ff7500;fill-opacity:1;fill-rule:nonzero;stroke:none;stroke-width:0.26100001;stroke-linecap:round;stroke-linejoin:bevel;stroke-miterlimit:4;stroke-dasharray:none;stroke-dashoffset:0;stroke-opacity:1;paint-order:fill markers stroke" />
          <path
             inkscape:connector-curvature="0"
             id="circle5158"
             d="m 274.22105,580.50162 a 72.69731,72.69731 0 0 0 -2.49547,3.49023 72.69731,72.69731 0 0 0 -0.76584,1.10844 72.69731,72.69731 0 0 0 -1.83089,3.19154 72.69731,72.69731 0 0 0 -1.77818,3.14918 72.69731,72.69731 0 0 0 -0.10078,0.22531 l 21.95991,10.99003 a 48.172883,48.172883 0 0 1 4.59507,-7.40783 z"
             style="opacity:1;vector-effect:none;fill:#0275b0;fill-opacity:1;fill-rule:nonzero;stroke:none;stroke-width:0.26100001;stroke-linecap:round;stroke-linejoin:bevel;stroke-miterlimit:4;stroke-dasharray:none;stroke-dashoffset:0;stroke-opacity:1;paint-order:fill markers stroke" />
          <path
             inkscape:connector-curvature="0"
             id="circle5160"
             d="m 285.57125,568.46411 a 72.69731,72.69731 0 0 0 -0.10954,0.0837 72.69731,72.69731 0 0 0 -0.20775,0.18396 72.69731,72.69731 0 0 0 -3.9243,3.65559 72.69731,72.69731 0 0 0 -2.51457,2.60604 72.69731,72.69731 0 0 0 -2.40194,2.7337 72.69731,72.69731 0 0 0 -2.24637,2.85046 72.69731,72.69731 0 0 0 -1.12498,1.57356 l 19.94966,14.16759 a 48.172883,48.172883 0 0 1 8.34885,-9.02475 z"
             style="opacity:1;vector-effect:none;fill:#88f6c2;fill-opacity:1;fill-rule:nonzero;stroke:none;stroke-width:0.26100001;stroke-linecap:round;stroke-linejoin:bevel;stroke-miterlimit:4;stroke-dasharray:none;stroke-dashoffset:0;stroke-opacity:1;paint-order:fill markers stroke" />
          <path
             inkscape:connector-curvature="0"
             id="circle5162"
             d="m 303.61978,557.38209 a 72.69731,72.69731 0 0 0 -4.99505,2.41329 72.69731,72.69731 0 0 0 -3.15949,1.77562 72.69731,72.69731 0 0 0 -3.10423,1.90323 72.69731,72.69731 0 0 0 -2.96105,2.07894 72.69731,72.69731 0 0 0 -2.90214,2.2066 72.69731,72.69731 0 0 0 -2.73783,2.36368 72.69731,72.69731 0 0 0 -1.65674,1.54358 l 16.88735,17.69141 a 48.172883,48.172883 0 0 1 14.30094,-9.3989 z"
             style="opacity:1;vector-effect:none;fill:#74205d;fill-opacity:1;fill-rule:nonzero;stroke:none;stroke-width:0.26100001;stroke-linecap:round;stroke-linejoin:bevel;stroke-miterlimit:4;stroke-dasharray:none;stroke-dashoffset:0;stroke-opacity:1;paint-order:fill markers stroke" />
          <path
             inkscape:connector-curvature="0"
             id="path5021"
             d="m 316.43087,553.2919 a 72.69731,72.69731 0 0 0 -3.32382,0.84905 72.69731,72.69731 0 0 0 -2.80708,0.76636 72.69731,72.69731 0 0 0 -3.43905,1.25521 72.69731,72.69731 0 0 0 -3.38481,1.28881 72.69731,72.69731 0 0 0 -0.4558,0.22016 l 9.86917,22.46787 a 48.172883,48.172883 0 0 1 8.87957,-2.90783 z"
             style="opacity:1;vector-effect:none;fill:#474a9d;fill-opacity:1;fill-rule:nonzero;stroke:none;stroke-width:0.26100001;stroke-linecap:round;stroke-linejoin:bevel;stroke-miterlimit:4;stroke-dasharray:none;stroke-dashoffset:0;stroke-opacity:1;paint-order:fill markers stroke" />
          <path
             inkscape:connector-curvature="0"
             id="circle5043"
             d="m 324.1348,551.98502 a 72.69731,72.69731 0 0 0 -4.23024,0.63923 72.69731,72.69731 0 0 0 -3.55274,0.68781 72.69731,72.69731 0 0 0 -1.45212,0.37105 l 5.84769,23.77734 a 48.172883,48.172883 0 0 1 6.12521,-1.08416 z"
             style="opacity:1;vector-effect:none;fill:#f2b89e;fill-opacity:1;fill-rule:nonzero;stroke:none;stroke-width:0.26100001;stroke-linecap:round;stroke-linejoin:bevel;stroke-miterlimit:4;stroke-dasharray:none;stroke-dashoffset:0;stroke-opacity:1;paint-order:fill markers stroke" />
          <path
             inkscape:connector-curvature="0"
             id="circle5045"
             d="m 330.76386,551.56748 a 72.69731,72.69731 0 0 0 -3.32952,0.16639 72.69731,72.69731 0 0 0 -3.61683,0.29919 72.69731,72.69731 0 0 0 -1.16686,0.17622 l 3.23545,24.28689 a 48.172883,48.172883 0 0 1 5.37538,-0.44389 z"
             style="opacity:1;vector-effect:none;fill:#5fbb8e;fill-opacity:1;fill-rule:nonzero;stroke:none;stroke-width:0.26100001;stroke-linecap:round;stroke-linejoin:bevel;stroke-miterlimit:4;stroke-dasharray:none;stroke-dashoffset:0;stroke-opacity:1;paint-order:fill markers stroke" />
        </g>
      </g>
    </g>
  </g>
</svg>
